G04 #@! TF.GenerationSoftware,KiCad,Pcbnew,5.0.1*
G04 #@! TF.CreationDate,2018-11-13T22:18:36+00:00*
G04 #@! TF.ProjectId,ESP32-WS2812-Controller,45535033322D5753323831322D436F6E,rev?*
G04 #@! TF.SameCoordinates,Original*
G04 #@! TF.FileFunction,Legend,Bot*
G04 #@! TF.FilePolarity,Positive*
%FSLAX46Y46*%
G04 Gerber Fmt 4.6, Leading zero omitted, Abs format (unit mm)*
G04 Created by KiCad (PCBNEW 5.0.1) date Tue 13 Nov 2018 22:18:36 GMT*
%MOMM*%
%LPD*%
G01*
G04 APERTURE LIST*
%ADD10C,0.200000*%
G04 APERTURE END LIST*
D10*
X123809523Y-107202380D02*
X124142857Y-106726190D01*
X124380952Y-107202380D02*
X124380952Y-106202380D01*
X124000000Y-106202380D01*
X123904761Y-106250000D01*
X123857142Y-106297619D01*
X123809523Y-106392857D01*
X123809523Y-106535714D01*
X123857142Y-106630952D01*
X123904761Y-106678571D01*
X124000000Y-106726190D01*
X124380952Y-106726190D01*
X123000000Y-107154761D02*
X123095238Y-107202380D01*
X123285714Y-107202380D01*
X123380952Y-107154761D01*
X123428571Y-107059523D01*
X123428571Y-106678571D01*
X123380952Y-106583333D01*
X123285714Y-106535714D01*
X123095238Y-106535714D01*
X123000000Y-106583333D01*
X122952380Y-106678571D01*
X122952380Y-106773809D01*
X123428571Y-106869047D01*
X122619047Y-106535714D02*
X122380952Y-107202380D01*
X122142857Y-106535714D01*
X121047619Y-106916666D02*
X120571428Y-106916666D01*
X121142857Y-107202380D02*
X120809523Y-106202380D01*
X120476190Y-107202380D01*
X123797619Y-104857142D02*
X123845238Y-104904761D01*
X123988095Y-104952380D01*
X124083333Y-104952380D01*
X124226190Y-104904761D01*
X124321428Y-104809523D01*
X124369047Y-104714285D01*
X124416666Y-104523809D01*
X124416666Y-104380952D01*
X124369047Y-104190476D01*
X124321428Y-104095238D01*
X124226190Y-104000000D01*
X124083333Y-103952380D01*
X123988095Y-103952380D01*
X123845238Y-104000000D01*
X123797619Y-104047619D01*
X123226190Y-104952380D02*
X123321428Y-104904761D01*
X123369047Y-104857142D01*
X123416666Y-104761904D01*
X123416666Y-104476190D01*
X123369047Y-104380952D01*
X123321428Y-104333333D01*
X123226190Y-104285714D01*
X123083333Y-104285714D01*
X122988095Y-104333333D01*
X122940476Y-104380952D01*
X122892857Y-104476190D01*
X122892857Y-104761904D01*
X122940476Y-104857142D01*
X122988095Y-104904761D01*
X123083333Y-104952380D01*
X123226190Y-104952380D01*
X122464285Y-104285714D02*
X122464285Y-104952380D01*
X122464285Y-104380952D02*
X122416666Y-104333333D01*
X122321428Y-104285714D01*
X122178571Y-104285714D01*
X122083333Y-104333333D01*
X122035714Y-104428571D01*
X122035714Y-104952380D01*
X121559523Y-104285714D02*
X121559523Y-104952380D01*
X121559523Y-104380952D02*
X121511904Y-104333333D01*
X121416666Y-104285714D01*
X121273809Y-104285714D01*
X121178571Y-104333333D01*
X121130952Y-104428571D01*
X121130952Y-104952380D01*
X120511904Y-104952380D02*
X120607142Y-104904761D01*
X120654761Y-104857142D01*
X120702380Y-104761904D01*
X120702380Y-104476190D01*
X120654761Y-104380952D01*
X120607142Y-104333333D01*
X120511904Y-104285714D01*
X120369047Y-104285714D01*
X120273809Y-104333333D01*
X120226190Y-104380952D01*
X120178571Y-104476190D01*
X120178571Y-104761904D01*
X120226190Y-104857142D01*
X120273809Y-104904761D01*
X120369047Y-104952380D01*
X120511904Y-104952380D01*
X119750000Y-104952380D02*
X119750000Y-104285714D01*
X119750000Y-104476190D02*
X119702380Y-104380952D01*
X119654761Y-104333333D01*
X119559523Y-104285714D01*
X119464285Y-104285714D01*
X118369047Y-104952380D02*
X118369047Y-103952380D01*
X118130952Y-103952380D01*
X117988095Y-104000000D01*
X117892857Y-104095238D01*
X117845238Y-104190476D01*
X117797619Y-104380952D01*
X117797619Y-104523809D01*
X117845238Y-104714285D01*
X117892857Y-104809523D01*
X117988095Y-104904761D01*
X118130952Y-104952380D01*
X118369047Y-104952380D01*
X117369047Y-104952380D02*
X117369047Y-104285714D01*
X117369047Y-104476190D02*
X117321428Y-104380952D01*
X117273809Y-104333333D01*
X117178571Y-104285714D01*
X117083333Y-104285714D01*
X116750000Y-104952380D02*
X116750000Y-104285714D01*
X116750000Y-103952380D02*
X116797619Y-104000000D01*
X116750000Y-104047619D01*
X116702380Y-104000000D01*
X116750000Y-103952380D01*
X116750000Y-104047619D01*
X116321428Y-104904761D02*
X116226190Y-104952380D01*
X116035714Y-104952380D01*
X115940476Y-104904761D01*
X115892857Y-104809523D01*
X115892857Y-104761904D01*
X115940476Y-104666666D01*
X116035714Y-104619047D01*
X116178571Y-104619047D01*
X116273809Y-104571428D01*
X116321428Y-104476190D01*
X116321428Y-104428571D01*
X116273809Y-104333333D01*
X116178571Y-104285714D01*
X116035714Y-104285714D01*
X115940476Y-104333333D01*
X115035714Y-104904761D02*
X115130952Y-104952380D01*
X115321428Y-104952380D01*
X115416666Y-104904761D01*
X115464285Y-104857142D01*
X115511904Y-104761904D01*
X115511904Y-104476190D01*
X115464285Y-104380952D01*
X115416666Y-104333333D01*
X115321428Y-104285714D01*
X115130952Y-104285714D01*
X115035714Y-104333333D01*
X114464285Y-104952380D02*
X114559523Y-104904761D01*
X114607142Y-104857142D01*
X114654761Y-104761904D01*
X114654761Y-104476190D01*
X114607142Y-104380952D01*
X114559523Y-104333333D01*
X114464285Y-104285714D01*
X114321428Y-104285714D01*
X114226190Y-104333333D01*
X114178571Y-104380952D01*
X114130952Y-104476190D01*
X114130952Y-104761904D01*
X114178571Y-104857142D01*
X114226190Y-104904761D01*
X114321428Y-104952380D01*
X114464285Y-104952380D01*
X113559523Y-104952380D02*
X113654761Y-104904761D01*
X113702380Y-104809523D01*
X113702380Y-103952380D01*
X113035714Y-104952380D02*
X113130952Y-104904761D01*
X113178571Y-104809523D01*
X113178571Y-103952380D01*
X124380952Y-102428571D02*
X124047619Y-102428571D01*
X123904761Y-102952380D02*
X124380952Y-102952380D01*
X124380952Y-101952380D01*
X123904761Y-101952380D01*
X123523809Y-102904761D02*
X123380952Y-102952380D01*
X123142857Y-102952380D01*
X123047619Y-102904761D01*
X123000000Y-102857142D01*
X122952380Y-102761904D01*
X122952380Y-102666666D01*
X123000000Y-102571428D01*
X123047619Y-102523809D01*
X123142857Y-102476190D01*
X123333333Y-102428571D01*
X123428571Y-102380952D01*
X123476190Y-102333333D01*
X123523809Y-102238095D01*
X123523809Y-102142857D01*
X123476190Y-102047619D01*
X123428571Y-102000000D01*
X123333333Y-101952380D01*
X123095238Y-101952380D01*
X122952380Y-102000000D01*
X122523809Y-102952380D02*
X122523809Y-101952380D01*
X122142857Y-101952380D01*
X122047619Y-102000000D01*
X122000000Y-102047619D01*
X121952380Y-102142857D01*
X121952380Y-102285714D01*
X122000000Y-102380952D01*
X122047619Y-102428571D01*
X122142857Y-102476190D01*
X122523809Y-102476190D01*
X121619047Y-101952380D02*
X121000000Y-101952380D01*
X121333333Y-102333333D01*
X121190476Y-102333333D01*
X121095238Y-102380952D01*
X121047619Y-102428571D01*
X121000000Y-102523809D01*
X121000000Y-102761904D01*
X121047619Y-102857142D01*
X121095238Y-102904761D01*
X121190476Y-102952380D01*
X121476190Y-102952380D01*
X121571428Y-102904761D01*
X121619047Y-102857142D01*
X120619047Y-102047619D02*
X120571428Y-102000000D01*
X120476190Y-101952380D01*
X120238095Y-101952380D01*
X120142857Y-102000000D01*
X120095238Y-102047619D01*
X120047619Y-102142857D01*
X120047619Y-102238095D01*
X120095238Y-102380952D01*
X120666666Y-102952380D01*
X120047619Y-102952380D01*
X118380952Y-102952380D02*
X118857142Y-102952380D01*
X118857142Y-101952380D01*
X118047619Y-102428571D02*
X117714285Y-102428571D01*
X117571428Y-102952380D02*
X118047619Y-102952380D01*
X118047619Y-101952380D01*
X117571428Y-101952380D01*
X117142857Y-102952380D02*
X117142857Y-101952380D01*
X116904761Y-101952380D01*
X116761904Y-102000000D01*
X116666666Y-102095238D01*
X116619047Y-102190476D01*
X116571428Y-102380952D01*
X116571428Y-102523809D01*
X116619047Y-102714285D01*
X116666666Y-102809523D01*
X116761904Y-102904761D01*
X116904761Y-102952380D01*
X117142857Y-102952380D01*
X125000000Y-103500000D02*
X112500000Y-103500000D01*
X125000000Y-105750000D02*
X112500000Y-105750000D01*
X112500000Y-107750000D02*
X125000000Y-107750000D01*
X112500000Y-101500000D02*
X112500000Y-107750000D01*
X125000000Y-101500000D02*
X112500000Y-101500000D01*
X132250000Y-103500000D02*
X125000000Y-103500000D01*
X125000000Y-105750000D02*
X132250000Y-105750000D01*
X125000000Y-101500000D02*
X132250000Y-101500000D01*
X125000000Y-107750000D02*
X125000000Y-101500000D01*
X132250000Y-107750000D02*
X125000000Y-107750000D01*
X132250000Y-101500000D02*
X132250000Y-107750000D01*
X131023809Y-107202380D02*
X131357142Y-106726190D01*
X131595238Y-107202380D02*
X131595238Y-106202380D01*
X131214285Y-106202380D01*
X131119047Y-106250000D01*
X131071428Y-106297619D01*
X131023809Y-106392857D01*
X131023809Y-106535714D01*
X131071428Y-106630952D01*
X131119047Y-106678571D01*
X131214285Y-106726190D01*
X131595238Y-106726190D01*
X130214285Y-107154761D02*
X130309523Y-107202380D01*
X130500000Y-107202380D01*
X130595238Y-107154761D01*
X130642857Y-107059523D01*
X130642857Y-106678571D01*
X130595238Y-106583333D01*
X130500000Y-106535714D01*
X130309523Y-106535714D01*
X130214285Y-106583333D01*
X130166666Y-106678571D01*
X130166666Y-106773809D01*
X130642857Y-106869047D01*
X129833333Y-106535714D02*
X129595238Y-107202380D01*
X129357142Y-106535714D01*
X128976190Y-107202380D02*
X128976190Y-106535714D01*
X128976190Y-106202380D02*
X129023809Y-106250000D01*
X128976190Y-106297619D01*
X128928571Y-106250000D01*
X128976190Y-106202380D01*
X128976190Y-106297619D01*
X128547619Y-107154761D02*
X128452380Y-107202380D01*
X128261904Y-107202380D01*
X128166666Y-107154761D01*
X128119047Y-107059523D01*
X128119047Y-107011904D01*
X128166666Y-106916666D01*
X128261904Y-106869047D01*
X128404761Y-106869047D01*
X128500000Y-106821428D01*
X128547619Y-106726190D01*
X128547619Y-106678571D01*
X128500000Y-106583333D01*
X128404761Y-106535714D01*
X128261904Y-106535714D01*
X128166666Y-106583333D01*
X127690476Y-107202380D02*
X127690476Y-106535714D01*
X127690476Y-106202380D02*
X127738095Y-106250000D01*
X127690476Y-106297619D01*
X127642857Y-106250000D01*
X127690476Y-106202380D01*
X127690476Y-106297619D01*
X127071428Y-107202380D02*
X127166666Y-107154761D01*
X127214285Y-107107142D01*
X127261904Y-107011904D01*
X127261904Y-106726190D01*
X127214285Y-106630952D01*
X127166666Y-106583333D01*
X127071428Y-106535714D01*
X126928571Y-106535714D01*
X126833333Y-106583333D01*
X126785714Y-106630952D01*
X126738095Y-106726190D01*
X126738095Y-107011904D01*
X126785714Y-107107142D01*
X126833333Y-107154761D01*
X126928571Y-107202380D01*
X127071428Y-107202380D01*
X126309523Y-106535714D02*
X126309523Y-107202380D01*
X126309523Y-106630952D02*
X126261904Y-106583333D01*
X126166666Y-106535714D01*
X126023809Y-106535714D01*
X125928571Y-106583333D01*
X125880952Y-106678571D01*
X125880952Y-107202380D01*
X125404761Y-107107142D02*
X125357142Y-107154761D01*
X125404761Y-107202380D01*
X125452380Y-107154761D01*
X125404761Y-107107142D01*
X125404761Y-107202380D01*
X125404761Y-106583333D02*
X125357142Y-106630952D01*
X125404761Y-106678571D01*
X125452380Y-106630952D01*
X125404761Y-106583333D01*
X125404761Y-106678571D01*
X131678571Y-104666666D02*
X131202380Y-104666666D01*
X131773809Y-104952380D02*
X131440476Y-103952380D01*
X131107142Y-104952380D01*
X130345238Y-104285714D02*
X130345238Y-104952380D01*
X130773809Y-104285714D02*
X130773809Y-104809523D01*
X130726190Y-104904761D01*
X130630952Y-104952380D01*
X130488095Y-104952380D01*
X130392857Y-104904761D01*
X130345238Y-104857142D01*
X130011904Y-104285714D02*
X129630952Y-104285714D01*
X129869047Y-103952380D02*
X129869047Y-104809523D01*
X129821428Y-104904761D01*
X129726190Y-104952380D01*
X129630952Y-104952380D01*
X129297619Y-104952380D02*
X129297619Y-103952380D01*
X128869047Y-104952380D02*
X128869047Y-104428571D01*
X128916666Y-104333333D01*
X129011904Y-104285714D01*
X129154761Y-104285714D01*
X129250000Y-104333333D01*
X129297619Y-104380952D01*
X128250000Y-104952380D02*
X128345238Y-104904761D01*
X128392857Y-104857142D01*
X128440476Y-104761904D01*
X128440476Y-104476190D01*
X128392857Y-104380952D01*
X128345238Y-104333333D01*
X128250000Y-104285714D01*
X128107142Y-104285714D01*
X128011904Y-104333333D01*
X127964285Y-104380952D01*
X127916666Y-104476190D01*
X127916666Y-104761904D01*
X127964285Y-104857142D01*
X128011904Y-104904761D01*
X128107142Y-104952380D01*
X128250000Y-104952380D01*
X127488095Y-104952380D02*
X127488095Y-104285714D01*
X127488095Y-104476190D02*
X127440476Y-104380952D01*
X127392857Y-104333333D01*
X127297619Y-104285714D01*
X127202380Y-104285714D01*
X126869047Y-104857142D02*
X126821428Y-104904761D01*
X126869047Y-104952380D01*
X126916666Y-104904761D01*
X126869047Y-104857142D01*
X126869047Y-104952380D01*
X126869047Y-104333333D02*
X126821428Y-104380952D01*
X126869047Y-104428571D01*
X126916666Y-104380952D01*
X126869047Y-104333333D01*
X126869047Y-104428571D01*
X131500000Y-102952380D02*
X131500000Y-101952380D01*
X131119047Y-101952380D01*
X131023809Y-102000000D01*
X130976190Y-102047619D01*
X130928571Y-102142857D01*
X130928571Y-102285714D01*
X130976190Y-102380952D01*
X131023809Y-102428571D01*
X131119047Y-102476190D01*
X131500000Y-102476190D01*
X129928571Y-102857142D02*
X129976190Y-102904761D01*
X130119047Y-102952380D01*
X130214285Y-102952380D01*
X130357142Y-102904761D01*
X130452380Y-102809523D01*
X130500000Y-102714285D01*
X130547619Y-102523809D01*
X130547619Y-102380952D01*
X130500000Y-102190476D01*
X130452380Y-102095238D01*
X130357142Y-102000000D01*
X130214285Y-101952380D01*
X130119047Y-101952380D01*
X129976190Y-102000000D01*
X129928571Y-102047619D01*
X129166666Y-102428571D02*
X129023809Y-102476190D01*
X128976190Y-102523809D01*
X128928571Y-102619047D01*
X128928571Y-102761904D01*
X128976190Y-102857142D01*
X129023809Y-102904761D01*
X129119047Y-102952380D01*
X129500000Y-102952380D01*
X129500000Y-101952380D01*
X129166666Y-101952380D01*
X129071428Y-102000000D01*
X129023809Y-102047619D01*
X128976190Y-102142857D01*
X128976190Y-102238095D01*
X129023809Y-102333333D01*
X129071428Y-102380952D01*
X129166666Y-102428571D01*
X129500000Y-102428571D01*
X128500000Y-102857142D02*
X128452380Y-102904761D01*
X128500000Y-102952380D01*
X128547619Y-102904761D01*
X128500000Y-102857142D01*
X128500000Y-102952380D01*
X128500000Y-102333333D02*
X128452380Y-102380952D01*
X128500000Y-102428571D01*
X128547619Y-102380952D01*
X128500000Y-102333333D01*
X128500000Y-102428571D01*
M02*
