G04 #@! TF.GenerationSoftware,KiCad,Pcbnew,5.0.1*
G04 #@! TF.CreationDate,2018-11-12T23:15:09+00:00*
G04 #@! TF.ProjectId,ESP32-WS2812-Controller,45535033322D5753323831322D436F6E,rev?*
G04 #@! TF.SameCoordinates,Original*
G04 #@! TF.FileFunction,Copper,L1,Top,Signal*
G04 #@! TF.FilePolarity,Positive*
%FSLAX46Y46*%
G04 Gerber Fmt 4.6, Leading zero omitted, Abs format (unit mm)*
G04 Created by KiCad (PCBNEW 5.0.1) date Mon 12 Nov 2018 23:15:09 GMT*
%MOMM*%
%LPD*%
G01*
G04 APERTURE LIST*
G04 #@! TA.AperFunction,ComponentPad*
%ADD10C,1.600000*%
G04 #@! TD*
G04 #@! TA.AperFunction,ComponentPad*
%ADD11R,1.600000X1.600000*%
G04 #@! TD*
G04 #@! TA.AperFunction,SMDPad,CuDef*
%ADD12R,2.500000X1.000000*%
G04 #@! TD*
G04 #@! TA.AperFunction,SMDPad,CuDef*
%ADD13R,0.750000X0.800000*%
G04 #@! TD*
G04 #@! TA.AperFunction,SMDPad,CuDef*
%ADD14R,1.200000X1.200000*%
G04 #@! TD*
G04 #@! TA.AperFunction,SMDPad,CuDef*
%ADD15R,1.300000X0.700000*%
G04 #@! TD*
G04 #@! TA.AperFunction,ComponentPad*
%ADD16O,1.000000X1.550000*%
G04 #@! TD*
G04 #@! TA.AperFunction,ComponentPad*
%ADD17O,1.250000X0.950000*%
G04 #@! TD*
G04 #@! TA.AperFunction,SMDPad,CuDef*
%ADD18R,0.400000X1.350000*%
G04 #@! TD*
G04 #@! TA.AperFunction,ComponentPad*
%ADD19O,2.000000X2.600000*%
G04 #@! TD*
G04 #@! TA.AperFunction,ComponentPad*
%ADD20R,2.000000X2.600000*%
G04 #@! TD*
G04 #@! TA.AperFunction,ComponentPad*
%ADD21O,2.600000X2.000000*%
G04 #@! TD*
G04 #@! TA.AperFunction,ComponentPad*
%ADD22R,2.600000X2.000000*%
G04 #@! TD*
G04 #@! TA.AperFunction,SMDPad,CuDef*
%ADD23R,0.900000X0.800000*%
G04 #@! TD*
G04 #@! TA.AperFunction,SMDPad,CuDef*
%ADD24R,0.700000X1.300000*%
G04 #@! TD*
G04 #@! TA.AperFunction,SMDPad,CuDef*
%ADD25R,0.900000X0.500000*%
G04 #@! TD*
G04 #@! TA.AperFunction,ComponentPad*
%ADD26O,3.048000X1.727200*%
G04 #@! TD*
G04 #@! TA.AperFunction,SMDPad,CuDef*
%ADD27R,1.500000X2.000000*%
G04 #@! TD*
G04 #@! TA.AperFunction,SMDPad,CuDef*
%ADD28R,3.800000X2.000000*%
G04 #@! TD*
G04 #@! TA.AperFunction,SMDPad,CuDef*
%ADD29O,2.500000X0.900000*%
G04 #@! TD*
G04 #@! TA.AperFunction,SMDPad,CuDef*
%ADD30O,0.900000X2.500000*%
G04 #@! TD*
G04 #@! TA.AperFunction,SMDPad,CuDef*
%ADD31R,6.000000X6.000000*%
G04 #@! TD*
G04 #@! TA.AperFunction,ComponentPad*
%ADD32O,1.700000X1.700000*%
G04 #@! TD*
G04 #@! TA.AperFunction,ComponentPad*
%ADD33R,1.700000X1.700000*%
G04 #@! TD*
G04 #@! TA.AperFunction,ViaPad*
%ADD34C,0.800000*%
G04 #@! TD*
G04 #@! TA.AperFunction,Conductor*
%ADD35C,0.250000*%
G04 #@! TD*
G04 #@! TA.AperFunction,Conductor*
%ADD36C,0.500000*%
G04 #@! TD*
G04 #@! TA.AperFunction,Conductor*
%ADD37C,0.400000*%
G04 #@! TD*
G04 #@! TA.AperFunction,Conductor*
%ADD38C,0.300000*%
G04 #@! TD*
G04 #@! TA.AperFunction,Conductor*
%ADD39C,0.254000*%
G04 #@! TD*
G04 APERTURE END LIST*
D10*
G04 #@! TO.P,C1,2*
G04 #@! TO.N,GND*
X146200000Y-131600000D03*
D11*
G04 #@! TO.P,C1,1*
G04 #@! TO.N,+5V*
X146200000Y-134100000D03*
G04 #@! TD*
G04 #@! TO.P,C2,1*
G04 #@! TO.N,+5V*
X119920000Y-134620000D03*
D10*
G04 #@! TO.P,C2,2*
G04 #@! TO.N,GND*
X117420000Y-134620000D03*
G04 #@! TD*
G04 #@! TO.P,C3,2*
G04 #@! TO.N,GND*
X111070000Y-134620000D03*
D11*
G04 #@! TO.P,C3,1*
G04 #@! TO.N,+3V3*
X113570000Y-134620000D03*
G04 #@! TD*
D12*
G04 #@! TO.P,C4,2*
G04 #@! TO.N,GND*
X105000000Y-112500000D03*
G04 #@! TO.P,C4,1*
G04 #@! TO.N,+3V3*
X105000000Y-109500000D03*
G04 #@! TD*
D13*
G04 #@! TO.P,C5,1*
G04 #@! TO.N,+3V3*
X109000000Y-109500000D03*
G04 #@! TO.P,C5,2*
G04 #@! TO.N,GND*
X109000000Y-111000000D03*
G04 #@! TD*
D14*
G04 #@! TO.P,D1,1*
G04 #@! TO.N,/5V_LED_A*
X141100000Y-142000000D03*
G04 #@! TO.P,D1,2*
G04 #@! TO.N,+5V*
X138900000Y-142000000D03*
G04 #@! TD*
G04 #@! TO.P,D2,1*
G04 #@! TO.N,/3.3V_LED_A*
X141100000Y-146750000D03*
G04 #@! TO.P,D2,2*
G04 #@! TO.N,+3V3*
X138900000Y-146750000D03*
G04 #@! TD*
G04 #@! TO.P,D3,2*
G04 #@! TO.N,/ESP32-WROOM/IO5*
X150650000Y-119000000D03*
G04 #@! TO.P,D3,1*
G04 #@! TO.N,/User_LED_A*
X152850000Y-119000000D03*
G04 #@! TD*
D15*
G04 #@! TO.P,FB1,2*
G04 #@! TO.N,/5V_Input*
X124000000Y-137950000D03*
G04 #@! TO.P,FB1,1*
G04 #@! TO.N,+5V*
X124000000Y-136050000D03*
G04 #@! TD*
D16*
G04 #@! TO.P,J1,6*
G04 #@! TO.N,GND*
X133500000Y-148350000D03*
X126500000Y-148350000D03*
D17*
X132500000Y-145650000D03*
X127500000Y-145650000D03*
D18*
G04 #@! TO.P,J1,5*
X131300000Y-145650000D03*
G04 #@! TO.P,J1,4*
G04 #@! TO.N,Net-(J1-Pad4)*
X130650000Y-145650000D03*
G04 #@! TO.P,J1,3*
G04 #@! TO.N,Net-(J1-Pad3)*
X130000000Y-145650000D03*
G04 #@! TO.P,J1,2*
G04 #@! TO.N,Net-(J1-Pad2)*
X129350000Y-145650000D03*
G04 #@! TO.P,J1,1*
G04 #@! TO.N,/5V_Input*
X128700000Y-145650000D03*
G04 #@! TD*
D19*
G04 #@! TO.P,J2,2*
G04 #@! TO.N,GND*
X131540000Y-138000000D03*
D20*
G04 #@! TO.P,J2,1*
G04 #@! TO.N,/5V_Input*
X129000000Y-138000000D03*
G04 #@! TD*
D21*
G04 #@! TO.P,J4,3*
G04 #@! TO.N,+5V*
X154200000Y-134180000D03*
G04 #@! TO.P,J4,2*
G04 #@! TO.N,/DATA*
X154200000Y-131640000D03*
D22*
G04 #@! TO.P,J4,1*
G04 #@! TO.N,GND*
X154200000Y-129100000D03*
G04 #@! TD*
D23*
G04 #@! TO.P,Q1,3*
G04 #@! TO.N,/DATA*
X138250000Y-125500000D03*
G04 #@! TO.P,Q1,2*
G04 #@! TO.N,/ESP32-WROOM/IO2*
X136250000Y-126450000D03*
G04 #@! TO.P,Q1,1*
G04 #@! TO.N,Net-(Q1-Pad1)*
X136250000Y-124550000D03*
G04 #@! TD*
D24*
G04 #@! TO.P,R1,1*
G04 #@! TO.N,/5V_LED_A*
X144050000Y-142000000D03*
G04 #@! TO.P,R1,2*
G04 #@! TO.N,GND*
X145950000Y-142000000D03*
G04 #@! TD*
G04 #@! TO.P,R2,2*
G04 #@! TO.N,GND*
X145950000Y-146750000D03*
G04 #@! TO.P,R2,1*
G04 #@! TO.N,/3.3V_LED_A*
X144050000Y-146750000D03*
G04 #@! TD*
G04 #@! TO.P,R3,2*
G04 #@! TO.N,GND*
X157450000Y-119000000D03*
G04 #@! TO.P,R3,1*
G04 #@! TO.N,/User_LED_A*
X155550000Y-119000000D03*
G04 #@! TD*
D25*
G04 #@! TO.P,R4,1*
G04 #@! TO.N,+3V3*
X136250000Y-121500000D03*
G04 #@! TO.P,R4,2*
G04 #@! TO.N,Net-(Q1-Pad1)*
X136250000Y-120000000D03*
G04 #@! TD*
G04 #@! TO.P,R5,2*
G04 #@! TO.N,GND*
X145750000Y-119250000D03*
G04 #@! TO.P,R5,1*
G04 #@! TO.N,/ESP32-WROOM/IO4*
X145750000Y-117750000D03*
G04 #@! TD*
G04 #@! TO.P,R6,2*
G04 #@! TO.N,/DATA*
X141000000Y-125500000D03*
G04 #@! TO.P,R6,1*
G04 #@! TO.N,+5V*
X141000000Y-124000000D03*
G04 #@! TD*
G04 #@! TO.P,R7,1*
G04 #@! TO.N,+3V3*
X142500000Y-119250000D03*
G04 #@! TO.P,R7,2*
G04 #@! TO.N,/Button_Open_Side*
X142500000Y-117750000D03*
G04 #@! TD*
G04 #@! TO.P,R8,2*
G04 #@! TO.N,/EN*
X110000000Y-106750000D03*
G04 #@! TO.P,R8,1*
G04 #@! TO.N,+3V3*
X110000000Y-105250000D03*
G04 #@! TD*
D26*
G04 #@! TO.P,SW1,2*
G04 #@! TO.N,/Button_Open_Side*
X149320000Y-106760000D03*
G04 #@! TO.P,SW1,1*
G04 #@! TO.N,/ESP32-WROOM/IO4*
X149320000Y-111760000D03*
G04 #@! TO.P,SW1,2*
G04 #@! TO.N,/Button_Open_Side*
X136820000Y-106760000D03*
G04 #@! TO.P,SW1,1*
G04 #@! TO.N,/ESP32-WROOM/IO4*
X136820000Y-111760000D03*
G04 #@! TD*
D27*
G04 #@! TO.P,U1,1*
G04 #@! TO.N,+5V*
X118410000Y-140360000D03*
G04 #@! TO.P,U1,3*
G04 #@! TO.N,+3V3*
X113810000Y-140360000D03*
G04 #@! TO.P,U1,2*
G04 #@! TO.N,GND*
X116110000Y-140360000D03*
D28*
G04 #@! TO.P,U1,4*
X116110000Y-146660000D03*
G04 #@! TD*
D29*
G04 #@! TO.P,U2,38*
G04 #@! TO.N,GND*
X131380000Y-107780000D03*
G04 #@! TO.P,U2,37*
G04 #@! TO.N,/ESP32-WROOM/IO23*
X131380000Y-109050000D03*
G04 #@! TO.P,U2,36*
G04 #@! TO.N,/ESP32-WROOM/IO22*
X131380000Y-110320000D03*
G04 #@! TO.P,U2,35*
G04 #@! TO.N,/TXD*
X131380000Y-111590000D03*
G04 #@! TO.P,U2,34*
G04 #@! TO.N,/RXD*
X131380000Y-112860000D03*
G04 #@! TO.P,U2,33*
G04 #@! TO.N,/ESP32-WROOM/IO21*
X131380000Y-114130000D03*
G04 #@! TO.P,U2,32*
G04 #@! TO.N,Net-(U2-Pad32)*
X131380000Y-115400000D03*
G04 #@! TO.P,U2,31*
G04 #@! TO.N,/ESP32-WROOM/IO19*
X131380000Y-116670000D03*
G04 #@! TO.P,U2,30*
G04 #@! TO.N,/ESP32-WROOM/IO18*
X131380000Y-117940000D03*
G04 #@! TO.P,U2,29*
G04 #@! TO.N,/ESP32-WROOM/IO5*
X131380000Y-119210000D03*
G04 #@! TO.P,U2,28*
G04 #@! TO.N,/ESP32-WROOM/IO17*
X131380000Y-120480000D03*
G04 #@! TO.P,U2,27*
G04 #@! TO.N,/ESP32-WROOM/IO16*
X131380000Y-121750000D03*
G04 #@! TO.P,U2,26*
G04 #@! TO.N,/ESP32-WROOM/IO4*
X131380000Y-123020000D03*
G04 #@! TO.P,U2,25*
G04 #@! TO.N,/IO0*
X131380000Y-124290000D03*
D30*
G04 #@! TO.P,U2,24*
G04 #@! TO.N,/ESP32-WROOM/IO2*
X128095000Y-125780000D03*
G04 #@! TO.P,U2,23*
G04 #@! TO.N,/ESP32-WROOM/IO15*
X126825000Y-125780000D03*
G04 #@! TO.P,U2,22*
G04 #@! TO.N,/ESP32-WROOM/SD1*
X125555000Y-125780000D03*
G04 #@! TO.P,U2,21*
G04 #@! TO.N,/ESP32-WROOM/SDO*
X124285000Y-125780000D03*
G04 #@! TO.P,U2,20*
G04 #@! TO.N,/ESP32-WROOM/CLK*
X123015000Y-125780000D03*
G04 #@! TO.P,U2,19*
G04 #@! TO.N,/ESP32-WROOM/CMD*
X121745000Y-125780000D03*
G04 #@! TO.P,U2,18*
G04 #@! TO.N,/ESP32-WROOM/SD3*
X120475000Y-125780000D03*
G04 #@! TO.P,U2,17*
G04 #@! TO.N,/ESP32-WROOM/SD2*
X119205000Y-125780000D03*
G04 #@! TO.P,U2,16*
G04 #@! TO.N,/ESP32-WROOM/IO13*
X117935000Y-125780000D03*
G04 #@! TO.P,U2,15*
G04 #@! TO.N,GND*
X116665000Y-125780000D03*
D29*
G04 #@! TO.P,U2,14*
G04 #@! TO.N,/ESP32-WROOM/IO12*
X113380000Y-124290000D03*
G04 #@! TO.P,U2,13*
G04 #@! TO.N,/ESP32-WROOM/IO14*
X113380000Y-123020000D03*
G04 #@! TO.P,U2,12*
G04 #@! TO.N,/ESP32-WROOM/IO27*
X113380000Y-121750000D03*
G04 #@! TO.P,U2,11*
G04 #@! TO.N,/ESP32-WROOM/IO26*
X113380000Y-120480000D03*
G04 #@! TO.P,U2,10*
G04 #@! TO.N,/ESP32-WROOM/IO25*
X113380000Y-119210000D03*
G04 #@! TO.P,U2,9*
G04 #@! TO.N,/ESP32-WROOM/IO33*
X113380000Y-117940000D03*
G04 #@! TO.P,U2,8*
G04 #@! TO.N,/Mic_Input*
X113380000Y-116670000D03*
G04 #@! TO.P,U2,7*
G04 #@! TO.N,/ESP32-WROOM/IO35*
X113380000Y-115400000D03*
G04 #@! TO.P,U2,6*
G04 #@! TO.N,/ESP32-WROOM/IO34*
X113380000Y-114130000D03*
G04 #@! TO.P,U2,5*
G04 #@! TO.N,/ESP32-WROOM/SENSOR_VN*
X113380000Y-112860000D03*
G04 #@! TO.P,U2,4*
G04 #@! TO.N,/ESP32-WROOM/SENSOR_VP*
X113380000Y-111590000D03*
G04 #@! TO.P,U2,3*
G04 #@! TO.N,/EN*
X113380000Y-110320000D03*
G04 #@! TO.P,U2,2*
G04 #@! TO.N,+3V3*
X113380000Y-109050000D03*
G04 #@! TO.P,U2,1*
G04 #@! TO.N,GND*
X113380000Y-107780000D03*
D31*
G04 #@! TO.P,U2,39*
X122080000Y-115480000D03*
G04 #@! TD*
D32*
G04 #@! TO.P,J3,6*
G04 #@! TO.N,/IO0*
X106540000Y-126080000D03*
G04 #@! TO.P,J3,5*
G04 #@! TO.N,/TXD*
X104000000Y-126080000D03*
G04 #@! TO.P,J3,4*
G04 #@! TO.N,/RXD*
X106540000Y-123540000D03*
G04 #@! TO.P,J3,3*
G04 #@! TO.N,Net-(J3-Pad3)*
X104000000Y-123540000D03*
G04 #@! TO.P,J3,2*
G04 #@! TO.N,/EN*
X106540000Y-121000000D03*
D33*
G04 #@! TO.P,J3,1*
G04 #@! TO.N,GND*
X104000000Y-121000000D03*
G04 #@! TD*
D32*
G04 #@! TO.P,J5,3*
G04 #@! TO.N,/Mic_Input*
X104750000Y-137330000D03*
G04 #@! TO.P,J5,2*
G04 #@! TO.N,GND*
X104750000Y-134790000D03*
D33*
G04 #@! TO.P,J5,1*
G04 #@! TO.N,+3V3*
X104750000Y-132250000D03*
G04 #@! TD*
D34*
G04 #@! TO.N,+5V*
X124400000Y-134700000D03*
X122300000Y-135600000D03*
X118400000Y-138400000D03*
X120350000Y-140000000D03*
X138900000Y-134250000D03*
X139550000Y-124000000D03*
G04 #@! TO.N,+3V3*
X105000000Y-110700000D03*
X102750000Y-110150000D03*
X140900000Y-119250000D03*
X137150000Y-146750000D03*
X109000000Y-104000000D03*
X134750000Y-121500000D03*
G04 #@! TO.N,/5V_Input*
X128700000Y-144150000D03*
X128700000Y-147150000D03*
X124000000Y-139200000D03*
X125450000Y-138250000D03*
G04 #@! TO.N,/ESP32-WROOM/IO4*
X134000000Y-123000000D03*
G04 #@! TO.N,/IO0*
X126850000Y-123400000D03*
G04 #@! TO.N,/TXD*
X128650000Y-111600000D03*
G04 #@! TO.N,/RXD*
X127300000Y-112950000D03*
G04 #@! TO.N,/EN*
X110150000Y-107850000D03*
X110850000Y-110300000D03*
G04 #@! TD*
D35*
G04 #@! TO.N,GND*
X131300000Y-145650000D02*
X132500000Y-145650000D01*
X131300000Y-145650000D02*
X131300000Y-144725000D01*
X131300000Y-144725000D02*
X131300000Y-143750000D01*
D36*
G04 #@! TO.N,+5V*
X124000000Y-136050000D02*
X124000000Y-135100000D01*
X124000000Y-135100000D02*
X124400000Y-134700000D01*
X124000000Y-136050000D02*
X122750000Y-136050000D01*
X122750000Y-136050000D02*
X122300000Y-135600000D01*
X118410000Y-140360000D02*
X118410000Y-138410000D01*
X118410000Y-138410000D02*
X118400000Y-138400000D01*
X118410000Y-140360000D02*
X119990000Y-140360000D01*
X119990000Y-140360000D02*
X120350000Y-140000000D01*
D37*
X138900000Y-142000000D02*
X138900000Y-134250000D01*
X141000000Y-124000000D02*
X139550000Y-124000000D01*
D36*
G04 #@! TO.N,+3V3*
X113810000Y-134860000D02*
X113570000Y-134620000D01*
X113810000Y-140360000D02*
X113810000Y-134860000D01*
D38*
X109450000Y-109050000D02*
X109000000Y-109500000D01*
X113380000Y-109050000D02*
X109450000Y-109050000D01*
X109000000Y-109500000D02*
X105000000Y-109500000D01*
X105000000Y-109500000D02*
X105000000Y-110700000D01*
X105000000Y-109500000D02*
X103400000Y-109500000D01*
X103400000Y-109500000D02*
X102750000Y-110150000D01*
X142500000Y-119250000D02*
X140900000Y-119250000D01*
D37*
X138900000Y-146750000D02*
X137150000Y-146750000D01*
X110000000Y-105250000D02*
X110000000Y-105000000D01*
X110000000Y-105000000D02*
X109000000Y-104000000D01*
D38*
X136250000Y-121500000D02*
X134750000Y-121500000D01*
D37*
G04 #@! TO.N,/5V_LED_A*
X141100000Y-142000000D02*
X144050000Y-142000000D01*
G04 #@! TO.N,/3.3V_LED_A*
X141100000Y-146750000D02*
X144050000Y-146750000D01*
D35*
G04 #@! TO.N,/ESP32-WROOM/IO5*
X134500000Y-118500000D02*
X133790000Y-119210000D01*
X133790000Y-119210000D02*
X131380000Y-119210000D01*
X137500000Y-118500000D02*
X134500000Y-118500000D01*
X140000000Y-121000000D02*
X137500000Y-118500000D01*
X147800000Y-121000000D02*
X140000000Y-121000000D01*
X150650000Y-119000000D02*
X149800000Y-119000000D01*
X149800000Y-119000000D02*
X147800000Y-121000000D01*
D37*
G04 #@! TO.N,/User_LED_A*
X152850000Y-119000000D02*
X155550000Y-119000000D01*
D38*
G04 #@! TO.N,/5V_Input*
X128700000Y-145650000D02*
X128700000Y-144150000D01*
X128700000Y-145650000D02*
X128700000Y-147150000D01*
D36*
X124000000Y-137950000D02*
X124000000Y-139200000D01*
X124000000Y-137950000D02*
X125150000Y-137950000D01*
X125150000Y-137950000D02*
X125450000Y-138250000D01*
D38*
G04 #@! TO.N,/DATA*
X138250000Y-125500000D02*
X141000000Y-125500000D01*
D37*
X141000000Y-125500000D02*
X145050000Y-125500000D01*
X151190000Y-131640000D02*
X154200000Y-131640000D01*
X145050000Y-125500000D02*
X151190000Y-131640000D01*
D38*
G04 #@! TO.N,/ESP32-WROOM/IO2*
X128095000Y-125780000D02*
X129530000Y-125780000D01*
X130200000Y-126450000D02*
X136250000Y-126450000D01*
X129530000Y-125780000D02*
X130200000Y-126450000D01*
D35*
G04 #@! TO.N,Net-(Q1-Pad1)*
X136450000Y-120000000D02*
X136250000Y-120000000D01*
X137500000Y-122650000D02*
X137500000Y-121050000D01*
X137500000Y-121050000D02*
X136450000Y-120000000D01*
X136250000Y-124550000D02*
X136250000Y-123900000D01*
X136250000Y-123900000D02*
X137500000Y-122650000D01*
D38*
G04 #@! TO.N,/ESP32-WROOM/IO4*
X149659600Y-111760000D02*
X150320000Y-111760000D01*
D37*
X148659600Y-111760000D02*
X149320000Y-111760000D01*
X145750000Y-114669600D02*
X148659600Y-111760000D01*
X145750000Y-117750000D02*
X145750000Y-114669600D01*
D35*
X132180000Y-123020000D02*
X132200000Y-123000000D01*
X131380000Y-123020000D02*
X132180000Y-123020000D01*
X131400000Y-123000000D02*
X131380000Y-123020000D01*
X134000000Y-123000000D02*
X131400000Y-123000000D01*
D37*
G04 #@! TO.N,/Button_Open_Side*
X142500000Y-111779600D02*
X142500000Y-117100000D01*
X142500000Y-117100000D02*
X142500000Y-117750000D01*
X137480400Y-106760000D02*
X142500000Y-111779600D01*
X136820000Y-106760000D02*
X137480400Y-106760000D01*
D38*
G04 #@! TO.N,/IO0*
X129830000Y-124290000D02*
X131380000Y-124290000D01*
X126850000Y-123400000D02*
X128940000Y-123400000D01*
X128940000Y-123400000D02*
X129830000Y-124290000D01*
G04 #@! TO.N,/TXD*
X131370000Y-111600000D02*
X131380000Y-111590000D01*
X128650000Y-111600000D02*
X131370000Y-111600000D01*
G04 #@! TO.N,/RXD*
X131290000Y-112950000D02*
X131380000Y-112860000D01*
X127300000Y-112950000D02*
X131290000Y-112950000D01*
G04 #@! TO.N,/EN*
X110000000Y-106750000D02*
X110000000Y-107700000D01*
X110000000Y-107700000D02*
X110150000Y-107850000D01*
X113360000Y-110300000D02*
X113380000Y-110320000D01*
X110850000Y-110300000D02*
X113360000Y-110300000D01*
X106540000Y-116260000D02*
X106540000Y-121000000D01*
X110850000Y-110300000D02*
X110850000Y-111950000D01*
X110850000Y-111950000D02*
X106540000Y-116260000D01*
D37*
G04 #@! TO.N,/Mic_Input*
X111580000Y-116670000D02*
X113380000Y-116670000D01*
X110000000Y-129000000D02*
X110000000Y-118250000D01*
X104750000Y-137330000D02*
X105952081Y-137330000D01*
X108500000Y-130500000D02*
X110000000Y-129000000D01*
X105952081Y-137330000D02*
X108500000Y-134782081D01*
X108500000Y-134782081D02*
X108500000Y-130500000D01*
X110000000Y-118250000D02*
X111580000Y-116670000D01*
G04 #@! TD*
D39*
G04 #@! TO.N,GND*
G36*
X113273000Y-106300000D02*
X113282667Y-106348601D01*
X113310197Y-106389803D01*
X113351399Y-106417333D01*
X113400000Y-106427000D01*
X131400000Y-106427000D01*
X131448601Y-106417333D01*
X131489803Y-106389803D01*
X131517333Y-106348601D01*
X131527000Y-106300000D01*
X131527000Y-104625050D01*
X153115000Y-104625050D01*
X153115000Y-105374950D01*
X153401974Y-106067767D01*
X153932233Y-106598026D01*
X154625050Y-106885000D01*
X155374950Y-106885000D01*
X156067767Y-106598026D01*
X156598026Y-106067767D01*
X156885000Y-105374950D01*
X156885000Y-104625050D01*
X156598026Y-103932233D01*
X156067767Y-103401974D01*
X155374950Y-103115000D01*
X154625050Y-103115000D01*
X153932233Y-103401974D01*
X153401974Y-103932233D01*
X153115000Y-104625050D01*
X131527000Y-104625050D01*
X131527000Y-100710000D01*
X159290001Y-100710000D01*
X159290000Y-149290000D01*
X134404459Y-149290000D01*
X134500002Y-149176678D01*
X134635000Y-148752000D01*
X134635000Y-148477000D01*
X133627000Y-148477000D01*
X133627000Y-148497000D01*
X133373000Y-148497000D01*
X133373000Y-148477000D01*
X132365000Y-148477000D01*
X132365000Y-148752000D01*
X132499998Y-149176678D01*
X132595541Y-149290000D01*
X127404459Y-149290000D01*
X127500002Y-149176678D01*
X127635000Y-148752000D01*
X127635000Y-148477000D01*
X126627000Y-148477000D01*
X126627000Y-148497000D01*
X126373000Y-148497000D01*
X126373000Y-148477000D01*
X125365000Y-148477000D01*
X125365000Y-148752000D01*
X125499998Y-149176678D01*
X125595541Y-149290000D01*
X100710000Y-149290000D01*
X100710000Y-146945750D01*
X113575000Y-146945750D01*
X113575000Y-147786309D01*
X113671673Y-148019698D01*
X113850301Y-148198327D01*
X114083690Y-148295000D01*
X115824250Y-148295000D01*
X115983000Y-148136250D01*
X115983000Y-146787000D01*
X116237000Y-146787000D01*
X116237000Y-148136250D01*
X116395750Y-148295000D01*
X118136310Y-148295000D01*
X118369699Y-148198327D01*
X118548327Y-148019698D01*
X118578025Y-147948000D01*
X125365000Y-147948000D01*
X125365000Y-148223000D01*
X126373000Y-148223000D01*
X126373000Y-147107046D01*
X126627000Y-147107046D01*
X126627000Y-148223000D01*
X127635000Y-148223000D01*
X127635000Y-147948000D01*
X127500002Y-147523322D01*
X127212763Y-147182632D01*
X126801874Y-146980881D01*
X126627000Y-147107046D01*
X126373000Y-147107046D01*
X126198126Y-146980881D01*
X125787237Y-147182632D01*
X125499998Y-147523322D01*
X125365000Y-147948000D01*
X118578025Y-147948000D01*
X118645000Y-147786309D01*
X118645000Y-146945750D01*
X118486250Y-146787000D01*
X116237000Y-146787000D01*
X115983000Y-146787000D01*
X113733750Y-146787000D01*
X113575000Y-146945750D01*
X100710000Y-146945750D01*
X100710000Y-144625050D01*
X103115000Y-144625050D01*
X103115000Y-145374950D01*
X103401974Y-146067767D01*
X103932233Y-146598026D01*
X104625050Y-146885000D01*
X105374950Y-146885000D01*
X106067767Y-146598026D01*
X106598026Y-146067767D01*
X106819247Y-145533691D01*
X113575000Y-145533691D01*
X113575000Y-146374250D01*
X113733750Y-146533000D01*
X115983000Y-146533000D01*
X115983000Y-145183750D01*
X116237000Y-145183750D01*
X116237000Y-146533000D01*
X118486250Y-146533000D01*
X118645000Y-146374250D01*
X118645000Y-145947938D01*
X126280732Y-145947938D01*
X126464448Y-146321821D01*
X126788951Y-146609568D01*
X127198869Y-146751229D01*
X127373000Y-146602563D01*
X127373000Y-145777000D01*
X126407266Y-145777000D01*
X126280732Y-145947938D01*
X118645000Y-145947938D01*
X118645000Y-145533691D01*
X118569767Y-145352062D01*
X126280732Y-145352062D01*
X126407266Y-145523000D01*
X127373000Y-145523000D01*
X127373000Y-144697437D01*
X127627000Y-144697437D01*
X127627000Y-145523000D01*
X127647000Y-145523000D01*
X127647000Y-145777000D01*
X127627000Y-145777000D01*
X127627000Y-146602563D01*
X127759591Y-146715764D01*
X127665000Y-146944126D01*
X127665000Y-147355874D01*
X127822569Y-147736280D01*
X128113720Y-148027431D01*
X128494126Y-148185000D01*
X128905874Y-148185000D01*
X129286280Y-148027431D01*
X129365711Y-147948000D01*
X132365000Y-147948000D01*
X132365000Y-148223000D01*
X133373000Y-148223000D01*
X133373000Y-147107046D01*
X133627000Y-147107046D01*
X133627000Y-148223000D01*
X134635000Y-148223000D01*
X134635000Y-147948000D01*
X134500002Y-147523322D01*
X134212763Y-147182632D01*
X133801874Y-146980881D01*
X133627000Y-147107046D01*
X133373000Y-147107046D01*
X133198126Y-146980881D01*
X132787237Y-147182632D01*
X132499998Y-147523322D01*
X132365000Y-147948000D01*
X129365711Y-147948000D01*
X129577431Y-147736280D01*
X129735000Y-147355874D01*
X129735000Y-146959511D01*
X129800000Y-146972440D01*
X130200000Y-146972440D01*
X130325000Y-146947576D01*
X130450000Y-146972440D01*
X130850000Y-146972440D01*
X130953852Y-146951783D01*
X130973690Y-146960000D01*
X131041250Y-146960000D01*
X131073208Y-146928042D01*
X131097765Y-146923157D01*
X131307809Y-146782809D01*
X131400000Y-146644836D01*
X131400000Y-146801250D01*
X131558750Y-146960000D01*
X131626310Y-146960000D01*
X131859699Y-146863327D01*
X132030115Y-146692910D01*
X132198869Y-146751229D01*
X132373000Y-146602563D01*
X132373000Y-145777000D01*
X132627000Y-145777000D01*
X132627000Y-146602563D01*
X132801131Y-146751229D01*
X133211049Y-146609568D01*
X133284850Y-146544126D01*
X136115000Y-146544126D01*
X136115000Y-146955874D01*
X136272569Y-147336280D01*
X136563720Y-147627431D01*
X136944126Y-147785000D01*
X137355874Y-147785000D01*
X137724833Y-147632172D01*
X137842191Y-147807809D01*
X138052235Y-147948157D01*
X138300000Y-147997440D01*
X139500000Y-147997440D01*
X139747765Y-147948157D01*
X139957809Y-147807809D01*
X140000000Y-147744666D01*
X140042191Y-147807809D01*
X140252235Y-147948157D01*
X140500000Y-147997440D01*
X141700000Y-147997440D01*
X141947765Y-147948157D01*
X142157809Y-147807809D01*
X142298157Y-147597765D01*
X142300696Y-147585000D01*
X143089358Y-147585000D01*
X143101843Y-147647765D01*
X143242191Y-147857809D01*
X143452235Y-147998157D01*
X143700000Y-148047440D01*
X144400000Y-148047440D01*
X144647765Y-147998157D01*
X144857809Y-147857809D01*
X144998157Y-147647765D01*
X145003721Y-147619791D01*
X145061673Y-147759699D01*
X145240302Y-147938327D01*
X145473691Y-148035000D01*
X145664250Y-148035000D01*
X145823000Y-147876250D01*
X145823000Y-146877000D01*
X146077000Y-146877000D01*
X146077000Y-147876250D01*
X146235750Y-148035000D01*
X146426309Y-148035000D01*
X146659698Y-147938327D01*
X146838327Y-147759699D01*
X146935000Y-147526310D01*
X146935000Y-147035750D01*
X146776250Y-146877000D01*
X146077000Y-146877000D01*
X145823000Y-146877000D01*
X145803000Y-146877000D01*
X145803000Y-146623000D01*
X145823000Y-146623000D01*
X145823000Y-145623750D01*
X146077000Y-145623750D01*
X146077000Y-146623000D01*
X146776250Y-146623000D01*
X146935000Y-146464250D01*
X146935000Y-145973690D01*
X146838327Y-145740301D01*
X146659698Y-145561673D01*
X146426309Y-145465000D01*
X146235750Y-145465000D01*
X146077000Y-145623750D01*
X145823000Y-145623750D01*
X145664250Y-145465000D01*
X145473691Y-145465000D01*
X145240302Y-145561673D01*
X145061673Y-145740301D01*
X145003721Y-145880209D01*
X144998157Y-145852235D01*
X144857809Y-145642191D01*
X144647765Y-145501843D01*
X144400000Y-145452560D01*
X143700000Y-145452560D01*
X143452235Y-145501843D01*
X143242191Y-145642191D01*
X143101843Y-145852235D01*
X143089358Y-145915000D01*
X142300696Y-145915000D01*
X142298157Y-145902235D01*
X142157809Y-145692191D01*
X141947765Y-145551843D01*
X141700000Y-145502560D01*
X140500000Y-145502560D01*
X140252235Y-145551843D01*
X140042191Y-145692191D01*
X140000000Y-145755334D01*
X139957809Y-145692191D01*
X139747765Y-145551843D01*
X139500000Y-145502560D01*
X138300000Y-145502560D01*
X138052235Y-145551843D01*
X137842191Y-145692191D01*
X137724833Y-145867828D01*
X137355874Y-145715000D01*
X136944126Y-145715000D01*
X136563720Y-145872569D01*
X136272569Y-146163720D01*
X136115000Y-146544126D01*
X133284850Y-146544126D01*
X133535552Y-146321821D01*
X133719268Y-145947938D01*
X133592734Y-145777000D01*
X132627000Y-145777000D01*
X132373000Y-145777000D01*
X132353000Y-145777000D01*
X132353000Y-145523000D01*
X132373000Y-145523000D01*
X132373000Y-144697437D01*
X132627000Y-144697437D01*
X132627000Y-145523000D01*
X133592734Y-145523000D01*
X133719268Y-145352062D01*
X133535552Y-144978179D01*
X133211049Y-144690432D01*
X133021857Y-144625050D01*
X153115000Y-144625050D01*
X153115000Y-145374950D01*
X153401974Y-146067767D01*
X153932233Y-146598026D01*
X154625050Y-146885000D01*
X155374950Y-146885000D01*
X156067767Y-146598026D01*
X156598026Y-146067767D01*
X156885000Y-145374950D01*
X156885000Y-144625050D01*
X156598026Y-143932233D01*
X156067767Y-143401974D01*
X155374950Y-143115000D01*
X154625050Y-143115000D01*
X153932233Y-143401974D01*
X153401974Y-143932233D01*
X153115000Y-144625050D01*
X133021857Y-144625050D01*
X132801131Y-144548771D01*
X132627000Y-144697437D01*
X132373000Y-144697437D01*
X132198869Y-144548771D01*
X132030115Y-144607090D01*
X131859699Y-144436673D01*
X131626310Y-144340000D01*
X131558750Y-144340000D01*
X131400000Y-144498750D01*
X131400000Y-144655164D01*
X131307809Y-144517191D01*
X131097765Y-144376843D01*
X131073208Y-144371958D01*
X131041250Y-144340000D01*
X130973690Y-144340000D01*
X130953852Y-144348217D01*
X130850000Y-144327560D01*
X130450000Y-144327560D01*
X130325000Y-144352424D01*
X130200000Y-144327560D01*
X129800000Y-144327560D01*
X129735000Y-144340489D01*
X129735000Y-143944126D01*
X129577431Y-143563720D01*
X129286280Y-143272569D01*
X128905874Y-143115000D01*
X128494126Y-143115000D01*
X128113720Y-143272569D01*
X127822569Y-143563720D01*
X127665000Y-143944126D01*
X127665000Y-144355874D01*
X127759591Y-144584236D01*
X127627000Y-144697437D01*
X127373000Y-144697437D01*
X127198869Y-144548771D01*
X126788951Y-144690432D01*
X126464448Y-144978179D01*
X126280732Y-145352062D01*
X118569767Y-145352062D01*
X118548327Y-145300302D01*
X118369699Y-145121673D01*
X118136310Y-145025000D01*
X116395750Y-145025000D01*
X116237000Y-145183750D01*
X115983000Y-145183750D01*
X115824250Y-145025000D01*
X114083690Y-145025000D01*
X113850301Y-145121673D01*
X113671673Y-145300302D01*
X113575000Y-145533691D01*
X106819247Y-145533691D01*
X106885000Y-145374950D01*
X106885000Y-144625050D01*
X106598026Y-143932233D01*
X106067767Y-143401974D01*
X105374950Y-143115000D01*
X104625050Y-143115000D01*
X103932233Y-143401974D01*
X103401974Y-143932233D01*
X103115000Y-144625050D01*
X100710000Y-144625050D01*
X100710000Y-131400000D01*
X103252560Y-131400000D01*
X103252560Y-133100000D01*
X103301843Y-133347765D01*
X103442191Y-133557809D01*
X103652235Y-133698157D01*
X103755708Y-133718739D01*
X103478355Y-134023076D01*
X103308524Y-134433110D01*
X103429845Y-134663000D01*
X104623000Y-134663000D01*
X104623000Y-134643000D01*
X104877000Y-134643000D01*
X104877000Y-134663000D01*
X106070155Y-134663000D01*
X106191476Y-134433110D01*
X106021645Y-134023076D01*
X105744292Y-133718739D01*
X105847765Y-133698157D01*
X106057809Y-133557809D01*
X106198157Y-133347765D01*
X106247440Y-133100000D01*
X106247440Y-131400000D01*
X106198157Y-131152235D01*
X106057809Y-130942191D01*
X105847765Y-130801843D01*
X105600000Y-130752560D01*
X103900000Y-130752560D01*
X103652235Y-130801843D01*
X103442191Y-130942191D01*
X103301843Y-131152235D01*
X103252560Y-131400000D01*
X100710000Y-131400000D01*
X100710000Y-120023690D01*
X102515000Y-120023690D01*
X102515000Y-120714250D01*
X102673750Y-120873000D01*
X103873000Y-120873000D01*
X103873000Y-119673750D01*
X103714250Y-119515000D01*
X103023691Y-119515000D01*
X102790302Y-119611673D01*
X102611673Y-119790301D01*
X102515000Y-120023690D01*
X100710000Y-120023690D01*
X100710000Y-112785750D01*
X103115000Y-112785750D01*
X103115000Y-113126309D01*
X103211673Y-113359698D01*
X103390301Y-113538327D01*
X103623690Y-113635000D01*
X104714250Y-113635000D01*
X104873000Y-113476250D01*
X104873000Y-112627000D01*
X105127000Y-112627000D01*
X105127000Y-113476250D01*
X105285750Y-113635000D01*
X106376310Y-113635000D01*
X106609699Y-113538327D01*
X106788327Y-113359698D01*
X106885000Y-113126309D01*
X106885000Y-112785750D01*
X106726250Y-112627000D01*
X105127000Y-112627000D01*
X104873000Y-112627000D01*
X103273750Y-112627000D01*
X103115000Y-112785750D01*
X100710000Y-112785750D01*
X100710000Y-109944126D01*
X101715000Y-109944126D01*
X101715000Y-110355874D01*
X101872569Y-110736280D01*
X102163720Y-111027431D01*
X102544126Y-111185000D01*
X102955874Y-111185000D01*
X103336280Y-111027431D01*
X103627431Y-110736280D01*
X103670758Y-110631678D01*
X103750000Y-110647440D01*
X103965000Y-110647440D01*
X103965000Y-110905874D01*
X104122569Y-111286280D01*
X104201289Y-111365000D01*
X103623690Y-111365000D01*
X103390301Y-111461673D01*
X103211673Y-111640302D01*
X103115000Y-111873691D01*
X103115000Y-112214250D01*
X103273750Y-112373000D01*
X104873000Y-112373000D01*
X104873000Y-112353000D01*
X105127000Y-112353000D01*
X105127000Y-112373000D01*
X106726250Y-112373000D01*
X106885000Y-112214250D01*
X106885000Y-111873691D01*
X106788327Y-111640302D01*
X106609699Y-111461673D01*
X106376310Y-111365000D01*
X105798711Y-111365000D01*
X105877431Y-111286280D01*
X105877650Y-111285750D01*
X107990000Y-111285750D01*
X107990000Y-111526309D01*
X108086673Y-111759698D01*
X108265301Y-111938327D01*
X108498690Y-112035000D01*
X108714250Y-112035000D01*
X108873000Y-111876250D01*
X108873000Y-111127000D01*
X109127000Y-111127000D01*
X109127000Y-111876250D01*
X109285750Y-112035000D01*
X109501310Y-112035000D01*
X109734699Y-111938327D01*
X109913327Y-111759698D01*
X110010000Y-111526309D01*
X110010000Y-111285750D01*
X109851250Y-111127000D01*
X109127000Y-111127000D01*
X108873000Y-111127000D01*
X108148750Y-111127000D01*
X107990000Y-111285750D01*
X105877650Y-111285750D01*
X106035000Y-110905874D01*
X106035000Y-110647440D01*
X106250000Y-110647440D01*
X106497765Y-110598157D01*
X106707809Y-110457809D01*
X106823277Y-110285000D01*
X108068158Y-110285000D01*
X107990000Y-110473691D01*
X107990000Y-110714250D01*
X108148750Y-110873000D01*
X108873000Y-110873000D01*
X108873000Y-110853000D01*
X109127000Y-110853000D01*
X109127000Y-110873000D01*
X109851250Y-110873000D01*
X109933146Y-110791104D01*
X109972569Y-110886280D01*
X110065000Y-110978711D01*
X110065001Y-111624841D01*
X106039592Y-115650251D01*
X105974047Y-115694047D01*
X105800546Y-115953709D01*
X105755000Y-116182685D01*
X105755000Y-116182688D01*
X105739622Y-116260000D01*
X105755000Y-116337312D01*
X105755001Y-119738526D01*
X105469375Y-119929375D01*
X105454904Y-119951032D01*
X105388327Y-119790301D01*
X105209698Y-119611673D01*
X104976309Y-119515000D01*
X104285750Y-119515000D01*
X104127000Y-119673750D01*
X104127000Y-120873000D01*
X104147000Y-120873000D01*
X104147000Y-121127000D01*
X104127000Y-121127000D01*
X104127000Y-121147000D01*
X103873000Y-121147000D01*
X103873000Y-121127000D01*
X102673750Y-121127000D01*
X102515000Y-121285750D01*
X102515000Y-121976310D01*
X102611673Y-122209699D01*
X102790302Y-122388327D01*
X102951033Y-122454904D01*
X102929375Y-122469375D01*
X102601161Y-122960582D01*
X102485908Y-123540000D01*
X102601161Y-124119418D01*
X102929375Y-124610625D01*
X103227761Y-124810000D01*
X102929375Y-125009375D01*
X102601161Y-125500582D01*
X102485908Y-126080000D01*
X102601161Y-126659418D01*
X102929375Y-127150625D01*
X103420582Y-127478839D01*
X103853744Y-127565000D01*
X104146256Y-127565000D01*
X104579418Y-127478839D01*
X105070625Y-127150625D01*
X105270000Y-126852239D01*
X105469375Y-127150625D01*
X105960582Y-127478839D01*
X106393744Y-127565000D01*
X106686256Y-127565000D01*
X107119418Y-127478839D01*
X107610625Y-127150625D01*
X107938839Y-126659418D01*
X108054092Y-126080000D01*
X107938839Y-125500582D01*
X107610625Y-125009375D01*
X107312239Y-124810000D01*
X107610625Y-124610625D01*
X107938839Y-124119418D01*
X108054092Y-123540000D01*
X107938839Y-122960582D01*
X107610625Y-122469375D01*
X107312239Y-122270000D01*
X107610625Y-122070625D01*
X107938839Y-121579418D01*
X108054092Y-121000000D01*
X107938839Y-120420582D01*
X107610625Y-119929375D01*
X107325000Y-119738526D01*
X107325000Y-116585157D01*
X111350411Y-112559747D01*
X111415953Y-112515953D01*
X111459747Y-112450411D01*
X111459749Y-112450409D01*
X111589453Y-112256293D01*
X111589454Y-112256292D01*
X111619467Y-112105408D01*
X111699376Y-112225000D01*
X111557953Y-112436654D01*
X111473744Y-112860000D01*
X111557953Y-113283346D01*
X111699376Y-113495000D01*
X111557953Y-113706654D01*
X111473744Y-114130000D01*
X111557953Y-114553346D01*
X111699376Y-114765000D01*
X111557953Y-114976654D01*
X111473744Y-115400000D01*
X111557892Y-115823040D01*
X111497766Y-115835000D01*
X111497763Y-115835000D01*
X111254199Y-115883448D01*
X111149048Y-115953708D01*
X110977999Y-116067999D01*
X110931416Y-116137715D01*
X109467718Y-117601415D01*
X109398000Y-117647999D01*
X109351416Y-117717717D01*
X109213448Y-117924200D01*
X109148643Y-118250000D01*
X109165001Y-118332238D01*
X109165000Y-128654131D01*
X107967718Y-129851415D01*
X107898000Y-129897999D01*
X107851416Y-129967717D01*
X107713448Y-130174200D01*
X107648643Y-130500000D01*
X107665001Y-130582238D01*
X107665000Y-134436213D01*
X105829122Y-136272092D01*
X105820625Y-136259375D01*
X105501522Y-136046157D01*
X105631358Y-135985183D01*
X106021645Y-135556924D01*
X106191476Y-135146890D01*
X106070155Y-134917000D01*
X104877000Y-134917000D01*
X104877000Y-134937000D01*
X104623000Y-134937000D01*
X104623000Y-134917000D01*
X103429845Y-134917000D01*
X103308524Y-135146890D01*
X103478355Y-135556924D01*
X103868642Y-135985183D01*
X103998478Y-136046157D01*
X103679375Y-136259375D01*
X103351161Y-136750582D01*
X103235908Y-137330000D01*
X103351161Y-137909418D01*
X103679375Y-138400625D01*
X104170582Y-138728839D01*
X104603744Y-138815000D01*
X104896256Y-138815000D01*
X105329418Y-138728839D01*
X105820625Y-138400625D01*
X105969443Y-138177904D01*
X106034314Y-138165000D01*
X106034318Y-138165000D01*
X106277882Y-138116552D01*
X106554082Y-137932001D01*
X106600668Y-137862280D01*
X108835203Y-135627745D01*
X110241861Y-135627745D01*
X110315995Y-135873864D01*
X110853223Y-136066965D01*
X111423454Y-136039778D01*
X111824005Y-135873864D01*
X111898139Y-135627745D01*
X111070000Y-134799605D01*
X110241861Y-135627745D01*
X108835203Y-135627745D01*
X109032283Y-135430666D01*
X109102001Y-135384082D01*
X109286552Y-135107882D01*
X109335000Y-134864318D01*
X109335000Y-134864317D01*
X109351358Y-134782081D01*
X109335000Y-134699844D01*
X109335000Y-134403223D01*
X109623035Y-134403223D01*
X109650222Y-134973454D01*
X109816136Y-135374005D01*
X110062255Y-135448139D01*
X110890395Y-134620000D01*
X111249605Y-134620000D01*
X112077745Y-135448139D01*
X112125307Y-135433813D01*
X112171843Y-135667765D01*
X112312191Y-135877809D01*
X112522235Y-136018157D01*
X112770000Y-136067440D01*
X112925001Y-136067440D01*
X112925000Y-138739413D01*
X112812235Y-138761843D01*
X112602191Y-138902191D01*
X112461843Y-139112235D01*
X112412560Y-139360000D01*
X112412560Y-141360000D01*
X112461843Y-141607765D01*
X112602191Y-141817809D01*
X112812235Y-141958157D01*
X113060000Y-142007440D01*
X114560000Y-142007440D01*
X114807765Y-141958157D01*
X114959047Y-141857073D01*
X115000301Y-141898327D01*
X115233690Y-141995000D01*
X115824250Y-141995000D01*
X115983000Y-141836250D01*
X115983000Y-140487000D01*
X115963000Y-140487000D01*
X115963000Y-140233000D01*
X115983000Y-140233000D01*
X115983000Y-138883750D01*
X116237000Y-138883750D01*
X116237000Y-140233000D01*
X116257000Y-140233000D01*
X116257000Y-140487000D01*
X116237000Y-140487000D01*
X116237000Y-141836250D01*
X116395750Y-141995000D01*
X116986310Y-141995000D01*
X117219699Y-141898327D01*
X117260953Y-141857073D01*
X117412235Y-141958157D01*
X117660000Y-142007440D01*
X119160000Y-142007440D01*
X119407765Y-141958157D01*
X119617809Y-141817809D01*
X119758157Y-141607765D01*
X119799483Y-141400000D01*
X137652560Y-141400000D01*
X137652560Y-142600000D01*
X137701843Y-142847765D01*
X137842191Y-143057809D01*
X138052235Y-143198157D01*
X138300000Y-143247440D01*
X139500000Y-143247440D01*
X139747765Y-143198157D01*
X139957809Y-143057809D01*
X140000000Y-142994666D01*
X140042191Y-143057809D01*
X140252235Y-143198157D01*
X140500000Y-143247440D01*
X141700000Y-143247440D01*
X141947765Y-143198157D01*
X142157809Y-143057809D01*
X142298157Y-142847765D01*
X142300696Y-142835000D01*
X143089358Y-142835000D01*
X143101843Y-142897765D01*
X143242191Y-143107809D01*
X143452235Y-143248157D01*
X143700000Y-143297440D01*
X144400000Y-143297440D01*
X144647765Y-143248157D01*
X144857809Y-143107809D01*
X144998157Y-142897765D01*
X145003721Y-142869791D01*
X145061673Y-143009699D01*
X145240302Y-143188327D01*
X145473691Y-143285000D01*
X145664250Y-143285000D01*
X145823000Y-143126250D01*
X145823000Y-142127000D01*
X146077000Y-142127000D01*
X146077000Y-143126250D01*
X146235750Y-143285000D01*
X146426309Y-143285000D01*
X146659698Y-143188327D01*
X146838327Y-143009699D01*
X146935000Y-142776310D01*
X146935000Y-142285750D01*
X146776250Y-142127000D01*
X146077000Y-142127000D01*
X145823000Y-142127000D01*
X145803000Y-142127000D01*
X145803000Y-141873000D01*
X145823000Y-141873000D01*
X145823000Y-140873750D01*
X146077000Y-140873750D01*
X146077000Y-141873000D01*
X146776250Y-141873000D01*
X146935000Y-141714250D01*
X146935000Y-141223690D01*
X146838327Y-140990301D01*
X146659698Y-140811673D01*
X146426309Y-140715000D01*
X146235750Y-140715000D01*
X146077000Y-140873750D01*
X145823000Y-140873750D01*
X145664250Y-140715000D01*
X145473691Y-140715000D01*
X145240302Y-140811673D01*
X145061673Y-140990301D01*
X145003721Y-141130209D01*
X144998157Y-141102235D01*
X144857809Y-140892191D01*
X144647765Y-140751843D01*
X144400000Y-140702560D01*
X143700000Y-140702560D01*
X143452235Y-140751843D01*
X143242191Y-140892191D01*
X143101843Y-141102235D01*
X143089358Y-141165000D01*
X142300696Y-141165000D01*
X142298157Y-141152235D01*
X142157809Y-140942191D01*
X141947765Y-140801843D01*
X141700000Y-140752560D01*
X140500000Y-140752560D01*
X140252235Y-140801843D01*
X140042191Y-140942191D01*
X140000000Y-141005334D01*
X139957809Y-140942191D01*
X139747765Y-140801843D01*
X139735000Y-140799304D01*
X139735000Y-134878711D01*
X139777431Y-134836280D01*
X139935000Y-134455874D01*
X139935000Y-134044126D01*
X139777431Y-133663720D01*
X139486280Y-133372569D01*
X139311083Y-133300000D01*
X144752560Y-133300000D01*
X144752560Y-134900000D01*
X144801843Y-135147765D01*
X144942191Y-135357809D01*
X145152235Y-135498157D01*
X145400000Y-135547440D01*
X147000000Y-135547440D01*
X147247765Y-135498157D01*
X147457809Y-135357809D01*
X147598157Y-135147765D01*
X147647440Y-134900000D01*
X147647440Y-133300000D01*
X147598157Y-133052235D01*
X147457809Y-132842191D01*
X147247765Y-132701843D01*
X147013813Y-132655307D01*
X147028139Y-132607745D01*
X146200000Y-131779605D01*
X145371861Y-132607745D01*
X145386187Y-132655307D01*
X145152235Y-132701843D01*
X144942191Y-132842191D01*
X144801843Y-133052235D01*
X144752560Y-133300000D01*
X139311083Y-133300000D01*
X139105874Y-133215000D01*
X138694126Y-133215000D01*
X138313720Y-133372569D01*
X138022569Y-133663720D01*
X137865000Y-134044126D01*
X137865000Y-134455874D01*
X138022569Y-134836280D01*
X138065001Y-134878712D01*
X138065000Y-140799304D01*
X138052235Y-140801843D01*
X137842191Y-140942191D01*
X137701843Y-141152235D01*
X137652560Y-141400000D01*
X119799483Y-141400000D01*
X119807440Y-141360000D01*
X119807440Y-141245000D01*
X119902839Y-141245000D01*
X119990000Y-141262337D01*
X120077161Y-141245000D01*
X120077165Y-141245000D01*
X120335310Y-141193652D01*
X120600269Y-141016611D01*
X120936280Y-140877431D01*
X121227431Y-140586280D01*
X121385000Y-140205874D01*
X121385000Y-139794126D01*
X121227431Y-139413720D01*
X120936280Y-139122569D01*
X120555874Y-138965000D01*
X120144126Y-138965000D01*
X119763720Y-139122569D01*
X119760794Y-139125495D01*
X119758157Y-139112235D01*
X119617809Y-138902191D01*
X119407765Y-138761843D01*
X119373240Y-138754976D01*
X119435000Y-138605874D01*
X119435000Y-138194126D01*
X119277431Y-137813720D01*
X118986280Y-137522569D01*
X118605874Y-137365000D01*
X118194126Y-137365000D01*
X117813720Y-137522569D01*
X117522569Y-137813720D01*
X117365000Y-138194126D01*
X117365000Y-138605874D01*
X117428282Y-138758651D01*
X117412235Y-138761843D01*
X117260953Y-138862927D01*
X117219699Y-138821673D01*
X116986310Y-138725000D01*
X116395750Y-138725000D01*
X116237000Y-138883750D01*
X115983000Y-138883750D01*
X115824250Y-138725000D01*
X115233690Y-138725000D01*
X115000301Y-138821673D01*
X114959047Y-138862927D01*
X114807765Y-138761843D01*
X114695000Y-138739413D01*
X114695000Y-135966550D01*
X114827809Y-135877809D01*
X114968157Y-135667765D01*
X114976117Y-135627745D01*
X116591861Y-135627745D01*
X116665995Y-135873864D01*
X117203223Y-136066965D01*
X117773454Y-136039778D01*
X118174005Y-135873864D01*
X118248139Y-135627745D01*
X117420000Y-134799605D01*
X116591861Y-135627745D01*
X114976117Y-135627745D01*
X115017440Y-135420000D01*
X115017440Y-134403223D01*
X115973035Y-134403223D01*
X116000222Y-134973454D01*
X116166136Y-135374005D01*
X116412255Y-135448139D01*
X117240395Y-134620000D01*
X117599605Y-134620000D01*
X118427745Y-135448139D01*
X118475307Y-135433813D01*
X118521843Y-135667765D01*
X118662191Y-135877809D01*
X118872235Y-136018157D01*
X119120000Y-136067440D01*
X120720000Y-136067440D01*
X120967765Y-136018157D01*
X121177809Y-135877809D01*
X121265000Y-135747319D01*
X121265000Y-135805874D01*
X121422569Y-136186280D01*
X121713720Y-136477431D01*
X122069761Y-136624908D01*
X122111951Y-136688049D01*
X122404690Y-136883652D01*
X122662835Y-136935000D01*
X122662839Y-136935000D01*
X122749999Y-136952337D01*
X122837159Y-136935000D01*
X123007715Y-136935000D01*
X123102235Y-136998157D01*
X123111500Y-137000000D01*
X123102235Y-137001843D01*
X122892191Y-137142191D01*
X122751843Y-137352235D01*
X122702560Y-137600000D01*
X122702560Y-138300000D01*
X122751843Y-138547765D01*
X122892191Y-138757809D01*
X123025883Y-138847140D01*
X122965000Y-138994126D01*
X122965000Y-139405874D01*
X123122569Y-139786280D01*
X123413720Y-140077431D01*
X123794126Y-140235000D01*
X124205874Y-140235000D01*
X124586280Y-140077431D01*
X124877431Y-139786280D01*
X125035000Y-139405874D01*
X125035000Y-139198377D01*
X125244126Y-139285000D01*
X125655874Y-139285000D01*
X126036280Y-139127431D01*
X126327431Y-138836280D01*
X126485000Y-138455874D01*
X126485000Y-138044126D01*
X126327431Y-137663720D01*
X126036280Y-137372569D01*
X125655874Y-137215000D01*
X125642952Y-137215000D01*
X125495310Y-137116348D01*
X125237165Y-137065000D01*
X125237161Y-137065000D01*
X125150000Y-137047663D01*
X125062839Y-137065000D01*
X124992285Y-137065000D01*
X124897765Y-137001843D01*
X124888500Y-137000000D01*
X124897765Y-136998157D01*
X125107809Y-136857809D01*
X125213254Y-136700000D01*
X127352560Y-136700000D01*
X127352560Y-139300000D01*
X127401843Y-139547765D01*
X127542191Y-139757809D01*
X127752235Y-139898157D01*
X128000000Y-139947440D01*
X130000000Y-139947440D01*
X130247765Y-139898157D01*
X130457809Y-139757809D01*
X130565099Y-139597240D01*
X131031645Y-139859144D01*
X131159566Y-139890124D01*
X131413000Y-139770777D01*
X131413000Y-138127000D01*
X131667000Y-138127000D01*
X131667000Y-139770777D01*
X131920434Y-139890124D01*
X132048355Y-139859144D01*
X132606317Y-139545922D01*
X133001942Y-139043020D01*
X133175000Y-138427000D01*
X133175000Y-138127000D01*
X131667000Y-138127000D01*
X131413000Y-138127000D01*
X131393000Y-138127000D01*
X131393000Y-137873000D01*
X131413000Y-137873000D01*
X131413000Y-136229223D01*
X131667000Y-136229223D01*
X131667000Y-137873000D01*
X133175000Y-137873000D01*
X133175000Y-137573000D01*
X133001942Y-136956980D01*
X132606317Y-136454078D01*
X132048355Y-136140856D01*
X131920434Y-136109876D01*
X131667000Y-136229223D01*
X131413000Y-136229223D01*
X131159566Y-136109876D01*
X131031645Y-136140856D01*
X130565099Y-136402760D01*
X130457809Y-136242191D01*
X130247765Y-136101843D01*
X130000000Y-136052560D01*
X128000000Y-136052560D01*
X127752235Y-136101843D01*
X127542191Y-136242191D01*
X127401843Y-136452235D01*
X127352560Y-136700000D01*
X125213254Y-136700000D01*
X125248157Y-136647765D01*
X125297440Y-136400000D01*
X125297440Y-135700000D01*
X125248157Y-135452235D01*
X125193410Y-135370301D01*
X125277431Y-135286280D01*
X125435000Y-134905874D01*
X125435000Y-134494126D01*
X125277431Y-134113720D01*
X124986280Y-133822569D01*
X124605874Y-133665000D01*
X124194126Y-133665000D01*
X123813720Y-133822569D01*
X123522569Y-134113720D01*
X123384594Y-134446822D01*
X123361952Y-134461951D01*
X123312578Y-134535844D01*
X123312576Y-134535846D01*
X123166348Y-134754691D01*
X123125212Y-134961501D01*
X122886280Y-134722569D01*
X122505874Y-134565000D01*
X122094126Y-134565000D01*
X121713720Y-134722569D01*
X121422569Y-135013720D01*
X121367440Y-135146813D01*
X121367440Y-133820000D01*
X121318157Y-133572235D01*
X121177809Y-133362191D01*
X120967765Y-133221843D01*
X120720000Y-133172560D01*
X119120000Y-133172560D01*
X118872235Y-133221843D01*
X118662191Y-133362191D01*
X118521843Y-133572235D01*
X118475307Y-133806187D01*
X118427745Y-133791861D01*
X117599605Y-134620000D01*
X117240395Y-134620000D01*
X116412255Y-133791861D01*
X116166136Y-133865995D01*
X115973035Y-134403223D01*
X115017440Y-134403223D01*
X115017440Y-133820000D01*
X114976118Y-133612255D01*
X116591861Y-133612255D01*
X117420000Y-134440395D01*
X118248139Y-133612255D01*
X118174005Y-133366136D01*
X117636777Y-133173035D01*
X117066546Y-133200222D01*
X116665995Y-133366136D01*
X116591861Y-133612255D01*
X114976118Y-133612255D01*
X114968157Y-133572235D01*
X114827809Y-133362191D01*
X114617765Y-133221843D01*
X114370000Y-133172560D01*
X112770000Y-133172560D01*
X112522235Y-133221843D01*
X112312191Y-133362191D01*
X112171843Y-133572235D01*
X112125307Y-133806187D01*
X112077745Y-133791861D01*
X111249605Y-134620000D01*
X110890395Y-134620000D01*
X110062255Y-133791861D01*
X109816136Y-133865995D01*
X109623035Y-134403223D01*
X109335000Y-134403223D01*
X109335000Y-133612255D01*
X110241861Y-133612255D01*
X111070000Y-134440395D01*
X111898139Y-133612255D01*
X111824005Y-133366136D01*
X111286777Y-133173035D01*
X110716546Y-133200222D01*
X110315995Y-133366136D01*
X110241861Y-133612255D01*
X109335000Y-133612255D01*
X109335000Y-131383223D01*
X144753035Y-131383223D01*
X144780222Y-131953454D01*
X144946136Y-132354005D01*
X145192255Y-132428139D01*
X146020395Y-131600000D01*
X146379605Y-131600000D01*
X147207745Y-132428139D01*
X147453864Y-132354005D01*
X147646965Y-131816777D01*
X147619778Y-131246546D01*
X147453864Y-130845995D01*
X147207745Y-130771861D01*
X146379605Y-131600000D01*
X146020395Y-131600000D01*
X145192255Y-130771861D01*
X144946136Y-130845995D01*
X144753035Y-131383223D01*
X109335000Y-131383223D01*
X109335000Y-130845867D01*
X109588612Y-130592255D01*
X145371861Y-130592255D01*
X146200000Y-131420395D01*
X147028139Y-130592255D01*
X146954005Y-130346136D01*
X146416777Y-130153035D01*
X145846546Y-130180222D01*
X145445995Y-130346136D01*
X145371861Y-130592255D01*
X109588612Y-130592255D01*
X110532286Y-129648583D01*
X110602001Y-129602001D01*
X110786552Y-129325801D01*
X110835000Y-129082237D01*
X110835000Y-129082234D01*
X110851357Y-129000001D01*
X110835000Y-128917768D01*
X110835000Y-125907000D01*
X115580000Y-125907000D01*
X115580000Y-126707000D01*
X115711192Y-127112544D01*
X115987592Y-127437013D01*
X116370999Y-127624408D01*
X116538000Y-127497502D01*
X116538000Y-125907000D01*
X115580000Y-125907000D01*
X110835000Y-125907000D01*
X110835000Y-118595867D01*
X111476585Y-117954283D01*
X111557953Y-118363346D01*
X111699376Y-118575000D01*
X111557953Y-118786654D01*
X111473744Y-119210000D01*
X111557953Y-119633346D01*
X111699376Y-119845000D01*
X111557953Y-120056654D01*
X111473744Y-120480000D01*
X111557953Y-120903346D01*
X111699376Y-121115000D01*
X111557953Y-121326654D01*
X111473744Y-121750000D01*
X111557953Y-122173346D01*
X111699376Y-122385000D01*
X111557953Y-122596654D01*
X111473744Y-123020000D01*
X111557953Y-123443346D01*
X111699376Y-123655000D01*
X111557953Y-123866654D01*
X111473744Y-124290000D01*
X111557953Y-124713346D01*
X111797759Y-125072241D01*
X112156654Y-125312047D01*
X112473139Y-125375000D01*
X114286861Y-125375000D01*
X114603346Y-125312047D01*
X114962241Y-125072241D01*
X115108733Y-124853000D01*
X115580000Y-124853000D01*
X115580000Y-125653000D01*
X116538000Y-125653000D01*
X116538000Y-124062498D01*
X116792000Y-124062498D01*
X116792000Y-125653000D01*
X116812000Y-125653000D01*
X116812000Y-125907000D01*
X116792000Y-125907000D01*
X116792000Y-127497502D01*
X116959001Y-127624408D01*
X117297507Y-127458959D01*
X117511654Y-127602047D01*
X117935000Y-127686256D01*
X118358345Y-127602047D01*
X118570000Y-127460624D01*
X118781654Y-127602047D01*
X119205000Y-127686256D01*
X119628345Y-127602047D01*
X119840000Y-127460624D01*
X120051654Y-127602047D01*
X120475000Y-127686256D01*
X120898345Y-127602047D01*
X121110000Y-127460624D01*
X121321654Y-127602047D01*
X121745000Y-127686256D01*
X122168345Y-127602047D01*
X122380000Y-127460624D01*
X122591654Y-127602047D01*
X123015000Y-127686256D01*
X123438345Y-127602047D01*
X123650000Y-127460624D01*
X123861654Y-127602047D01*
X124285000Y-127686256D01*
X124708345Y-127602047D01*
X124920000Y-127460624D01*
X125131654Y-127602047D01*
X125555000Y-127686256D01*
X125978345Y-127602047D01*
X126190000Y-127460624D01*
X126401654Y-127602047D01*
X126825000Y-127686256D01*
X127248345Y-127602047D01*
X127460000Y-127460624D01*
X127671654Y-127602047D01*
X128095000Y-127686256D01*
X128518345Y-127602047D01*
X128877241Y-127362241D01*
X129117047Y-127003346D01*
X129180000Y-126686861D01*
X129180000Y-126565000D01*
X129204843Y-126565000D01*
X129590253Y-126950410D01*
X129634047Y-127015953D01*
X129699589Y-127059747D01*
X129699591Y-127059749D01*
X129893708Y-127189454D01*
X130122684Y-127235000D01*
X130122687Y-127235000D01*
X130199999Y-127250378D01*
X130277311Y-127235000D01*
X135293541Y-127235000D01*
X135342191Y-127307809D01*
X135552235Y-127448157D01*
X135800000Y-127497440D01*
X136700000Y-127497440D01*
X136947765Y-127448157D01*
X137157809Y-127307809D01*
X137298157Y-127097765D01*
X137347440Y-126850000D01*
X137347440Y-126361316D01*
X137552235Y-126498157D01*
X137800000Y-126547440D01*
X138700000Y-126547440D01*
X138947765Y-126498157D01*
X139157809Y-126357809D01*
X139206459Y-126285000D01*
X140207715Y-126285000D01*
X140302235Y-126348157D01*
X140550000Y-126397440D01*
X141450000Y-126397440D01*
X141697765Y-126348157D01*
X141717456Y-126335000D01*
X144704133Y-126335000D01*
X150541417Y-132172286D01*
X150587999Y-132242001D01*
X150864199Y-132426552D01*
X151107763Y-132475000D01*
X151107766Y-132475000D01*
X151189999Y-132491357D01*
X151272232Y-132475000D01*
X152491532Y-132475000D01*
X152721231Y-132818769D01*
X152857768Y-132910000D01*
X152721231Y-133001231D01*
X152359864Y-133542055D01*
X152232969Y-134180000D01*
X152359864Y-134817945D01*
X152721231Y-135358769D01*
X153262055Y-135720136D01*
X153738969Y-135815000D01*
X154661031Y-135815000D01*
X155137945Y-135720136D01*
X155678769Y-135358769D01*
X156040136Y-134817945D01*
X156167031Y-134180000D01*
X156040136Y-133542055D01*
X155678769Y-133001231D01*
X155542232Y-132910000D01*
X155678769Y-132818769D01*
X156040136Y-132277945D01*
X156167031Y-131640000D01*
X156040136Y-131002055D01*
X155810670Y-130658635D01*
X155859699Y-130638327D01*
X156038327Y-130459698D01*
X156135000Y-130226309D01*
X156135000Y-129385750D01*
X155976250Y-129227000D01*
X154327000Y-129227000D01*
X154327000Y-129247000D01*
X154073000Y-129247000D01*
X154073000Y-129227000D01*
X152423750Y-129227000D01*
X152265000Y-129385750D01*
X152265000Y-130226309D01*
X152361673Y-130459698D01*
X152540301Y-130638327D01*
X152589330Y-130658635D01*
X152491532Y-130805000D01*
X151535869Y-130805000D01*
X148704560Y-127973691D01*
X152265000Y-127973691D01*
X152265000Y-128814250D01*
X152423750Y-128973000D01*
X154073000Y-128973000D01*
X154073000Y-127623750D01*
X154327000Y-127623750D01*
X154327000Y-128973000D01*
X155976250Y-128973000D01*
X156135000Y-128814250D01*
X156135000Y-127973691D01*
X156038327Y-127740302D01*
X155859699Y-127561673D01*
X155626310Y-127465000D01*
X154485750Y-127465000D01*
X154327000Y-127623750D01*
X154073000Y-127623750D01*
X153914250Y-127465000D01*
X152773690Y-127465000D01*
X152540301Y-127561673D01*
X152361673Y-127740302D01*
X152265000Y-127973691D01*
X148704560Y-127973691D01*
X145698587Y-124967720D01*
X145652001Y-124897999D01*
X145375801Y-124713448D01*
X145132237Y-124665000D01*
X145132233Y-124665000D01*
X145050000Y-124648643D01*
X144967767Y-124665000D01*
X141936413Y-124665000D01*
X142048157Y-124497765D01*
X142097440Y-124250000D01*
X142097440Y-123750000D01*
X142048157Y-123502235D01*
X141907809Y-123292191D01*
X141697765Y-123151843D01*
X141450000Y-123102560D01*
X140550000Y-123102560D01*
X140302235Y-123151843D01*
X140282544Y-123165000D01*
X140178711Y-123165000D01*
X140136280Y-123122569D01*
X139755874Y-122965000D01*
X139344126Y-122965000D01*
X138963720Y-123122569D01*
X138672569Y-123413720D01*
X138515000Y-123794126D01*
X138515000Y-124205874D01*
X138617180Y-124452560D01*
X137800000Y-124452560D01*
X137552235Y-124501843D01*
X137347440Y-124638684D01*
X137347440Y-124150000D01*
X137302207Y-123922595D01*
X137984473Y-123240329D01*
X138047929Y-123197929D01*
X138215904Y-122946537D01*
X138260000Y-122724852D01*
X138260000Y-122724847D01*
X138274888Y-122650000D01*
X138260000Y-122575153D01*
X138260000Y-121124846D01*
X138274888Y-121049999D01*
X138260000Y-120975152D01*
X138260000Y-120975148D01*
X138215904Y-120753463D01*
X138047929Y-120502071D01*
X137984473Y-120459671D01*
X137347440Y-119822639D01*
X137347440Y-119750000D01*
X137298157Y-119502235D01*
X137157809Y-119292191D01*
X137109632Y-119260000D01*
X137185199Y-119260000D01*
X139409671Y-121484473D01*
X139452071Y-121547929D01*
X139703463Y-121715904D01*
X139925148Y-121760000D01*
X139925153Y-121760000D01*
X140000000Y-121774888D01*
X140074847Y-121760000D01*
X147725153Y-121760000D01*
X147800000Y-121774888D01*
X147874847Y-121760000D01*
X147874852Y-121760000D01*
X148096537Y-121715904D01*
X148347929Y-121547929D01*
X148390331Y-121484470D01*
X149726949Y-120147852D01*
X149802235Y-120198157D01*
X150050000Y-120247440D01*
X151250000Y-120247440D01*
X151497765Y-120198157D01*
X151707809Y-120057809D01*
X151750000Y-119994666D01*
X151792191Y-120057809D01*
X152002235Y-120198157D01*
X152250000Y-120247440D01*
X153450000Y-120247440D01*
X153697765Y-120198157D01*
X153907809Y-120057809D01*
X154048157Y-119847765D01*
X154050696Y-119835000D01*
X154589358Y-119835000D01*
X154601843Y-119897765D01*
X154742191Y-120107809D01*
X154952235Y-120248157D01*
X155200000Y-120297440D01*
X155900000Y-120297440D01*
X156147765Y-120248157D01*
X156357809Y-120107809D01*
X156498157Y-119897765D01*
X156503721Y-119869791D01*
X156561673Y-120009699D01*
X156740302Y-120188327D01*
X156973691Y-120285000D01*
X157164250Y-120285000D01*
X157323000Y-120126250D01*
X157323000Y-119127000D01*
X157577000Y-119127000D01*
X157577000Y-120126250D01*
X157735750Y-120285000D01*
X157926309Y-120285000D01*
X158159698Y-120188327D01*
X158338327Y-120009699D01*
X158435000Y-119776310D01*
X158435000Y-119285750D01*
X158276250Y-119127000D01*
X157577000Y-119127000D01*
X157323000Y-119127000D01*
X157303000Y-119127000D01*
X157303000Y-118873000D01*
X157323000Y-118873000D01*
X157323000Y-117873750D01*
X157577000Y-117873750D01*
X157577000Y-118873000D01*
X158276250Y-118873000D01*
X158435000Y-118714250D01*
X158435000Y-118223690D01*
X158338327Y-117990301D01*
X158159698Y-117811673D01*
X157926309Y-117715000D01*
X157735750Y-117715000D01*
X157577000Y-117873750D01*
X157323000Y-117873750D01*
X157164250Y-117715000D01*
X156973691Y-117715000D01*
X156740302Y-117811673D01*
X156561673Y-117990301D01*
X156503721Y-118130209D01*
X156498157Y-118102235D01*
X156357809Y-117892191D01*
X156147765Y-117751843D01*
X155900000Y-117702560D01*
X155200000Y-117702560D01*
X154952235Y-117751843D01*
X154742191Y-117892191D01*
X154601843Y-118102235D01*
X154589358Y-118165000D01*
X154050696Y-118165000D01*
X154048157Y-118152235D01*
X153907809Y-117942191D01*
X153697765Y-117801843D01*
X153450000Y-117752560D01*
X152250000Y-117752560D01*
X152002235Y-117801843D01*
X151792191Y-117942191D01*
X151750000Y-118005334D01*
X151707809Y-117942191D01*
X151497765Y-117801843D01*
X151250000Y-117752560D01*
X150050000Y-117752560D01*
X149802235Y-117801843D01*
X149592191Y-117942191D01*
X149451843Y-118152235D01*
X149413682Y-118344086D01*
X149252071Y-118452071D01*
X149209671Y-118515527D01*
X147485199Y-120240000D01*
X141214514Y-120240000D01*
X141486280Y-120127431D01*
X141578711Y-120035000D01*
X141707715Y-120035000D01*
X141802235Y-120098157D01*
X142050000Y-120147440D01*
X142950000Y-120147440D01*
X143197765Y-120098157D01*
X143407809Y-119957809D01*
X143548157Y-119747765D01*
X143590726Y-119533750D01*
X144665000Y-119533750D01*
X144665000Y-119626309D01*
X144761673Y-119859698D01*
X144940301Y-120038327D01*
X145173690Y-120135000D01*
X145464250Y-120135000D01*
X145623000Y-119976250D01*
X145623000Y-119375000D01*
X145877000Y-119375000D01*
X145877000Y-119976250D01*
X146035750Y-120135000D01*
X146326310Y-120135000D01*
X146559699Y-120038327D01*
X146738327Y-119859698D01*
X146835000Y-119626309D01*
X146835000Y-119533750D01*
X146676250Y-119375000D01*
X145877000Y-119375000D01*
X145623000Y-119375000D01*
X144823750Y-119375000D01*
X144665000Y-119533750D01*
X143590726Y-119533750D01*
X143597440Y-119500000D01*
X143597440Y-119000000D01*
X143548157Y-118752235D01*
X143407809Y-118542191D01*
X143344666Y-118500000D01*
X143407809Y-118457809D01*
X143548157Y-118247765D01*
X143597440Y-118000000D01*
X143597440Y-117500000D01*
X144652560Y-117500000D01*
X144652560Y-118000000D01*
X144701843Y-118247765D01*
X144842191Y-118457809D01*
X144903320Y-118498654D01*
X144761673Y-118640302D01*
X144665000Y-118873691D01*
X144665000Y-118966250D01*
X144823750Y-119125000D01*
X145623000Y-119125000D01*
X145623000Y-119103000D01*
X145877000Y-119103000D01*
X145877000Y-119125000D01*
X146676250Y-119125000D01*
X146835000Y-118966250D01*
X146835000Y-118873691D01*
X146738327Y-118640302D01*
X146596680Y-118498654D01*
X146657809Y-118457809D01*
X146798157Y-118247765D01*
X146847440Y-118000000D01*
X146847440Y-117500000D01*
X146798157Y-117252235D01*
X146657809Y-117042191D01*
X146585000Y-116993541D01*
X146585000Y-115015467D01*
X148370095Y-113230373D01*
X148512002Y-113258600D01*
X150127998Y-113258600D01*
X150565125Y-113171650D01*
X151060830Y-112840430D01*
X151392050Y-112344725D01*
X151508359Y-111760000D01*
X151392050Y-111175275D01*
X151060830Y-110679570D01*
X150565125Y-110348350D01*
X150127998Y-110261400D01*
X148512002Y-110261400D01*
X148074875Y-110348350D01*
X147579170Y-110679570D01*
X147247950Y-111175275D01*
X147131641Y-111760000D01*
X147189227Y-112049505D01*
X145217718Y-114021015D01*
X145148000Y-114067599D01*
X145101416Y-114137317D01*
X144963448Y-114343800D01*
X144898643Y-114669600D01*
X144915001Y-114751838D01*
X144915000Y-116993541D01*
X144842191Y-117042191D01*
X144701843Y-117252235D01*
X144652560Y-117500000D01*
X143597440Y-117500000D01*
X143548157Y-117252235D01*
X143407809Y-117042191D01*
X143335000Y-116993541D01*
X143335000Y-111861832D01*
X143351357Y-111779599D01*
X143335000Y-111697364D01*
X143335000Y-111697363D01*
X143286552Y-111453799D01*
X143179583Y-111293708D01*
X143148584Y-111247315D01*
X143148583Y-111247314D01*
X143102001Y-111177599D01*
X143032286Y-111131017D01*
X138950773Y-107049505D01*
X139008359Y-106760000D01*
X147131641Y-106760000D01*
X147247950Y-107344725D01*
X147579170Y-107840430D01*
X148074875Y-108171650D01*
X148512002Y-108258600D01*
X150127998Y-108258600D01*
X150565125Y-108171650D01*
X151060830Y-107840430D01*
X151392050Y-107344725D01*
X151508359Y-106760000D01*
X151392050Y-106175275D01*
X151060830Y-105679570D01*
X150565125Y-105348350D01*
X150127998Y-105261400D01*
X148512002Y-105261400D01*
X148074875Y-105348350D01*
X147579170Y-105679570D01*
X147247950Y-106175275D01*
X147131641Y-106760000D01*
X139008359Y-106760000D01*
X138892050Y-106175275D01*
X138560830Y-105679570D01*
X138065125Y-105348350D01*
X137627998Y-105261400D01*
X136012002Y-105261400D01*
X135574875Y-105348350D01*
X135079170Y-105679570D01*
X134747950Y-106175275D01*
X134631641Y-106760000D01*
X134747950Y-107344725D01*
X135079170Y-107840430D01*
X135574875Y-108171650D01*
X136012002Y-108258600D01*
X137627998Y-108258600D01*
X137769905Y-108230373D01*
X141665000Y-112125469D01*
X141665001Y-116993541D01*
X141592191Y-117042191D01*
X141451843Y-117252235D01*
X141402560Y-117500000D01*
X141402560Y-118000000D01*
X141451843Y-118247765D01*
X141592191Y-118457809D01*
X141602953Y-118465000D01*
X141578711Y-118465000D01*
X141486280Y-118372569D01*
X141105874Y-118215000D01*
X140694126Y-118215000D01*
X140313720Y-118372569D01*
X140022569Y-118663720D01*
X139865000Y-119044126D01*
X139865000Y-119455874D01*
X140022569Y-119836280D01*
X140313720Y-120127431D01*
X140585486Y-120240000D01*
X140314802Y-120240000D01*
X138090331Y-118015530D01*
X138047929Y-117952071D01*
X137796537Y-117784096D01*
X137574852Y-117740000D01*
X137574847Y-117740000D01*
X137500000Y-117725112D01*
X137425153Y-117740000D01*
X134574848Y-117740000D01*
X134500000Y-117725112D01*
X134425152Y-117740000D01*
X134425148Y-117740000D01*
X134203463Y-117784096D01*
X133952071Y-117952071D01*
X133909671Y-118015527D01*
X133475199Y-118450000D01*
X133144147Y-118450000D01*
X133202047Y-118363346D01*
X133286256Y-117940000D01*
X133202047Y-117516654D01*
X133060624Y-117305000D01*
X133202047Y-117093346D01*
X133286256Y-116670000D01*
X133202047Y-116246654D01*
X133060624Y-116035000D01*
X133202047Y-115823346D01*
X133286256Y-115400000D01*
X133202047Y-114976654D01*
X133060624Y-114765000D01*
X133202047Y-114553346D01*
X133286256Y-114130000D01*
X133202047Y-113706654D01*
X133060624Y-113495000D01*
X133202047Y-113283346D01*
X133286256Y-112860000D01*
X133202047Y-112436654D01*
X133060624Y-112225000D01*
X133202047Y-112013346D01*
X133252440Y-111760000D01*
X134631641Y-111760000D01*
X134747950Y-112344725D01*
X135079170Y-112840430D01*
X135574875Y-113171650D01*
X136012002Y-113258600D01*
X137627998Y-113258600D01*
X138065125Y-113171650D01*
X138560830Y-112840430D01*
X138892050Y-112344725D01*
X139008359Y-111760000D01*
X138892050Y-111175275D01*
X138560830Y-110679570D01*
X138065125Y-110348350D01*
X137627998Y-110261400D01*
X136012002Y-110261400D01*
X135574875Y-110348350D01*
X135079170Y-110679570D01*
X134747950Y-111175275D01*
X134631641Y-111760000D01*
X133252440Y-111760000D01*
X133286256Y-111590000D01*
X133202047Y-111166654D01*
X133060624Y-110955000D01*
X133202047Y-110743346D01*
X133286256Y-110320000D01*
X133202047Y-109896654D01*
X133060624Y-109685000D01*
X133202047Y-109473346D01*
X133286256Y-109050000D01*
X133202047Y-108626654D01*
X133058959Y-108412507D01*
X133224408Y-108074001D01*
X133097502Y-107907000D01*
X131507000Y-107907000D01*
X131507000Y-107927000D01*
X131253000Y-107927000D01*
X131253000Y-107907000D01*
X129662498Y-107907000D01*
X129535592Y-108074001D01*
X129701041Y-108412507D01*
X129557953Y-108626654D01*
X129473744Y-109050000D01*
X129557953Y-109473346D01*
X129699376Y-109685000D01*
X129557953Y-109896654D01*
X129473744Y-110320000D01*
X129557953Y-110743346D01*
X129605831Y-110815000D01*
X129328711Y-110815000D01*
X129236280Y-110722569D01*
X128855874Y-110565000D01*
X128444126Y-110565000D01*
X128063720Y-110722569D01*
X127772569Y-111013720D01*
X127615000Y-111394126D01*
X127615000Y-111805874D01*
X127692163Y-111992163D01*
X127505874Y-111915000D01*
X127094126Y-111915000D01*
X126713720Y-112072569D01*
X126422569Y-112363720D01*
X126265000Y-112744126D01*
X126265000Y-113155874D01*
X126422569Y-113536280D01*
X126713720Y-113827431D01*
X127094126Y-113985000D01*
X127505874Y-113985000D01*
X127886280Y-113827431D01*
X127978711Y-113735000D01*
X129552315Y-113735000D01*
X129473744Y-114130000D01*
X129557953Y-114553346D01*
X129699376Y-114765000D01*
X129557953Y-114976654D01*
X129473744Y-115400000D01*
X129557953Y-115823346D01*
X129699376Y-116035000D01*
X129557953Y-116246654D01*
X129473744Y-116670000D01*
X129557953Y-117093346D01*
X129699376Y-117305000D01*
X129557953Y-117516654D01*
X129473744Y-117940000D01*
X129557953Y-118363346D01*
X129699376Y-118575000D01*
X129557953Y-118786654D01*
X129473744Y-119210000D01*
X129557953Y-119633346D01*
X129699376Y-119845000D01*
X129557953Y-120056654D01*
X129473744Y-120480000D01*
X129557953Y-120903346D01*
X129699376Y-121115000D01*
X129557953Y-121326654D01*
X129473744Y-121750000D01*
X129557953Y-122173346D01*
X129699376Y-122385000D01*
X129557953Y-122596654D01*
X129509636Y-122839559D01*
X129505953Y-122834047D01*
X129246292Y-122660546D01*
X129017316Y-122615000D01*
X129017312Y-122615000D01*
X128940000Y-122599622D01*
X128862688Y-122615000D01*
X127528711Y-122615000D01*
X127436280Y-122522569D01*
X127055874Y-122365000D01*
X126644126Y-122365000D01*
X126263720Y-122522569D01*
X125972569Y-122813720D01*
X125815000Y-123194126D01*
X125815000Y-123605874D01*
X125959263Y-123954157D01*
X125555000Y-123873744D01*
X125131655Y-123957953D01*
X124920001Y-124099376D01*
X124708346Y-123957953D01*
X124285000Y-123873744D01*
X123861655Y-123957953D01*
X123650001Y-124099376D01*
X123438346Y-123957953D01*
X123015000Y-123873744D01*
X122591655Y-123957953D01*
X122380001Y-124099376D01*
X122168346Y-123957953D01*
X121745000Y-123873744D01*
X121321655Y-123957953D01*
X121110001Y-124099376D01*
X120898346Y-123957953D01*
X120475000Y-123873744D01*
X120051655Y-123957953D01*
X119840001Y-124099376D01*
X119628346Y-123957953D01*
X119205000Y-123873744D01*
X118781655Y-123957953D01*
X118570001Y-124099376D01*
X118358346Y-123957953D01*
X117935000Y-123873744D01*
X117511655Y-123957953D01*
X117297508Y-124101042D01*
X116959001Y-123935592D01*
X116792000Y-124062498D01*
X116538000Y-124062498D01*
X116370999Y-123935592D01*
X115987592Y-124122987D01*
X115711192Y-124447456D01*
X115580000Y-124853000D01*
X115108733Y-124853000D01*
X115202047Y-124713346D01*
X115286256Y-124290000D01*
X115202047Y-123866654D01*
X115060624Y-123655000D01*
X115202047Y-123443346D01*
X115286256Y-123020000D01*
X115202047Y-122596654D01*
X115060624Y-122385000D01*
X115202047Y-122173346D01*
X115286256Y-121750000D01*
X115202047Y-121326654D01*
X115060624Y-121115000D01*
X115202047Y-120903346D01*
X115286256Y-120480000D01*
X115202047Y-120056654D01*
X115060624Y-119845000D01*
X115202047Y-119633346D01*
X115286256Y-119210000D01*
X115202047Y-118786654D01*
X115060624Y-118575000D01*
X115202047Y-118363346D01*
X115286256Y-117940000D01*
X115202047Y-117516654D01*
X115060624Y-117305000D01*
X115202047Y-117093346D01*
X115286256Y-116670000D01*
X115202047Y-116246654D01*
X115060624Y-116035000D01*
X115202047Y-115823346D01*
X115213503Y-115765750D01*
X118445000Y-115765750D01*
X118445000Y-118606310D01*
X118541673Y-118839699D01*
X118720302Y-119018327D01*
X118953691Y-119115000D01*
X121794250Y-119115000D01*
X121953000Y-118956250D01*
X121953000Y-115607000D01*
X122207000Y-115607000D01*
X122207000Y-118956250D01*
X122365750Y-119115000D01*
X125206309Y-119115000D01*
X125439698Y-119018327D01*
X125618327Y-118839699D01*
X125715000Y-118606310D01*
X125715000Y-115765750D01*
X125556250Y-115607000D01*
X122207000Y-115607000D01*
X121953000Y-115607000D01*
X118603750Y-115607000D01*
X118445000Y-115765750D01*
X115213503Y-115765750D01*
X115286256Y-115400000D01*
X115202047Y-114976654D01*
X115060624Y-114765000D01*
X115202047Y-114553346D01*
X115286256Y-114130000D01*
X115202047Y-113706654D01*
X115060624Y-113495000D01*
X115202047Y-113283346D01*
X115286256Y-112860000D01*
X115202047Y-112436654D01*
X115146613Y-112353690D01*
X118445000Y-112353690D01*
X118445000Y-115194250D01*
X118603750Y-115353000D01*
X121953000Y-115353000D01*
X121953000Y-112003750D01*
X122207000Y-112003750D01*
X122207000Y-115353000D01*
X125556250Y-115353000D01*
X125715000Y-115194250D01*
X125715000Y-112353690D01*
X125618327Y-112120301D01*
X125439698Y-111941673D01*
X125206309Y-111845000D01*
X122365750Y-111845000D01*
X122207000Y-112003750D01*
X121953000Y-112003750D01*
X121794250Y-111845000D01*
X118953691Y-111845000D01*
X118720302Y-111941673D01*
X118541673Y-112120301D01*
X118445000Y-112353690D01*
X115146613Y-112353690D01*
X115060624Y-112225000D01*
X115202047Y-112013346D01*
X115286256Y-111590000D01*
X115202047Y-111166654D01*
X115060624Y-110955000D01*
X115202047Y-110743346D01*
X115286256Y-110320000D01*
X115202047Y-109896654D01*
X115060624Y-109685000D01*
X115202047Y-109473346D01*
X115286256Y-109050000D01*
X115202047Y-108626654D01*
X115058959Y-108412507D01*
X115224408Y-108074001D01*
X115097502Y-107907000D01*
X113507000Y-107907000D01*
X113507000Y-107927000D01*
X113253000Y-107927000D01*
X113253000Y-107907000D01*
X111662498Y-107907000D01*
X111535592Y-108074001D01*
X111628945Y-108265000D01*
X111098377Y-108265000D01*
X111185000Y-108055874D01*
X111185000Y-107644126D01*
X111119502Y-107485999D01*
X111535592Y-107485999D01*
X111662498Y-107653000D01*
X113253000Y-107653000D01*
X113253000Y-106695000D01*
X113507000Y-106695000D01*
X113507000Y-107653000D01*
X115097502Y-107653000D01*
X115224408Y-107485999D01*
X129535592Y-107485999D01*
X129662498Y-107653000D01*
X131253000Y-107653000D01*
X131253000Y-106695000D01*
X131507000Y-106695000D01*
X131507000Y-107653000D01*
X133097502Y-107653000D01*
X133224408Y-107485999D01*
X133037013Y-107102592D01*
X132712544Y-106826192D01*
X132307000Y-106695000D01*
X131507000Y-106695000D01*
X131253000Y-106695000D01*
X130453000Y-106695000D01*
X130047456Y-106826192D01*
X129722987Y-107102592D01*
X129535592Y-107485999D01*
X115224408Y-107485999D01*
X115037013Y-107102592D01*
X114712544Y-106826192D01*
X114307000Y-106695000D01*
X113507000Y-106695000D01*
X113253000Y-106695000D01*
X112453000Y-106695000D01*
X112047456Y-106826192D01*
X111722987Y-107102592D01*
X111535592Y-107485999D01*
X111119502Y-107485999D01*
X111031283Y-107273019D01*
X111048157Y-107247765D01*
X111097440Y-107000000D01*
X111097440Y-106500000D01*
X111048157Y-106252235D01*
X110907809Y-106042191D01*
X110844666Y-106000000D01*
X110907809Y-105957809D01*
X111048157Y-105747765D01*
X111097440Y-105500000D01*
X111097440Y-105000000D01*
X111048157Y-104752235D01*
X110907809Y-104542191D01*
X110697765Y-104401843D01*
X110569601Y-104376350D01*
X110532282Y-104351415D01*
X110035000Y-103854133D01*
X110035000Y-103794126D01*
X109877431Y-103413720D01*
X109586280Y-103122569D01*
X109205874Y-102965000D01*
X108794126Y-102965000D01*
X108413720Y-103122569D01*
X108122569Y-103413720D01*
X107965000Y-103794126D01*
X107965000Y-104205874D01*
X108122569Y-104586280D01*
X108413720Y-104877431D01*
X108794126Y-105035000D01*
X108854133Y-105035000D01*
X108902560Y-105083427D01*
X108902560Y-105500000D01*
X108951843Y-105747765D01*
X109092191Y-105957809D01*
X109155334Y-106000000D01*
X109092191Y-106042191D01*
X108951843Y-106252235D01*
X108902560Y-106500000D01*
X108902560Y-107000000D01*
X108951843Y-107247765D01*
X109092191Y-107457809D01*
X109170501Y-107510134D01*
X109115000Y-107644126D01*
X109115000Y-108055874D01*
X109214644Y-108296436D01*
X109143708Y-108310546D01*
X108931170Y-108452560D01*
X108625000Y-108452560D01*
X108377235Y-108501843D01*
X108167191Y-108642191D01*
X108118541Y-108715000D01*
X106823277Y-108715000D01*
X106707809Y-108542191D01*
X106497765Y-108401843D01*
X106250000Y-108352560D01*
X103750000Y-108352560D01*
X103502235Y-108401843D01*
X103292191Y-108542191D01*
X103154350Y-108748484D01*
X103093708Y-108760546D01*
X102899591Y-108890251D01*
X102899589Y-108890253D01*
X102834047Y-108934047D01*
X102790253Y-108999590D01*
X102674842Y-109115000D01*
X102544126Y-109115000D01*
X102163720Y-109272569D01*
X101872569Y-109563720D01*
X101715000Y-109944126D01*
X100710000Y-109944126D01*
X100710000Y-104625050D01*
X103115000Y-104625050D01*
X103115000Y-105374950D01*
X103401974Y-106067767D01*
X103932233Y-106598026D01*
X104625050Y-106885000D01*
X105374950Y-106885000D01*
X106067767Y-106598026D01*
X106598026Y-106067767D01*
X106885000Y-105374950D01*
X106885000Y-104625050D01*
X106598026Y-103932233D01*
X106067767Y-103401974D01*
X105374950Y-103115000D01*
X104625050Y-103115000D01*
X103932233Y-103401974D01*
X103401974Y-103932233D01*
X103115000Y-104625050D01*
X100710000Y-104625050D01*
X100710000Y-100710000D01*
X113273000Y-100710000D01*
X113273000Y-106300000D01*
X113273000Y-106300000D01*
G37*
X113273000Y-106300000D02*
X113282667Y-106348601D01*
X113310197Y-106389803D01*
X113351399Y-106417333D01*
X113400000Y-106427000D01*
X131400000Y-106427000D01*
X131448601Y-106417333D01*
X131489803Y-106389803D01*
X131517333Y-106348601D01*
X131527000Y-106300000D01*
X131527000Y-104625050D01*
X153115000Y-104625050D01*
X153115000Y-105374950D01*
X153401974Y-106067767D01*
X153932233Y-106598026D01*
X154625050Y-106885000D01*
X155374950Y-106885000D01*
X156067767Y-106598026D01*
X156598026Y-106067767D01*
X156885000Y-105374950D01*
X156885000Y-104625050D01*
X156598026Y-103932233D01*
X156067767Y-103401974D01*
X155374950Y-103115000D01*
X154625050Y-103115000D01*
X153932233Y-103401974D01*
X153401974Y-103932233D01*
X153115000Y-104625050D01*
X131527000Y-104625050D01*
X131527000Y-100710000D01*
X159290001Y-100710000D01*
X159290000Y-149290000D01*
X134404459Y-149290000D01*
X134500002Y-149176678D01*
X134635000Y-148752000D01*
X134635000Y-148477000D01*
X133627000Y-148477000D01*
X133627000Y-148497000D01*
X133373000Y-148497000D01*
X133373000Y-148477000D01*
X132365000Y-148477000D01*
X132365000Y-148752000D01*
X132499998Y-149176678D01*
X132595541Y-149290000D01*
X127404459Y-149290000D01*
X127500002Y-149176678D01*
X127635000Y-148752000D01*
X127635000Y-148477000D01*
X126627000Y-148477000D01*
X126627000Y-148497000D01*
X126373000Y-148497000D01*
X126373000Y-148477000D01*
X125365000Y-148477000D01*
X125365000Y-148752000D01*
X125499998Y-149176678D01*
X125595541Y-149290000D01*
X100710000Y-149290000D01*
X100710000Y-146945750D01*
X113575000Y-146945750D01*
X113575000Y-147786309D01*
X113671673Y-148019698D01*
X113850301Y-148198327D01*
X114083690Y-148295000D01*
X115824250Y-148295000D01*
X115983000Y-148136250D01*
X115983000Y-146787000D01*
X116237000Y-146787000D01*
X116237000Y-148136250D01*
X116395750Y-148295000D01*
X118136310Y-148295000D01*
X118369699Y-148198327D01*
X118548327Y-148019698D01*
X118578025Y-147948000D01*
X125365000Y-147948000D01*
X125365000Y-148223000D01*
X126373000Y-148223000D01*
X126373000Y-147107046D01*
X126627000Y-147107046D01*
X126627000Y-148223000D01*
X127635000Y-148223000D01*
X127635000Y-147948000D01*
X127500002Y-147523322D01*
X127212763Y-147182632D01*
X126801874Y-146980881D01*
X126627000Y-147107046D01*
X126373000Y-147107046D01*
X126198126Y-146980881D01*
X125787237Y-147182632D01*
X125499998Y-147523322D01*
X125365000Y-147948000D01*
X118578025Y-147948000D01*
X118645000Y-147786309D01*
X118645000Y-146945750D01*
X118486250Y-146787000D01*
X116237000Y-146787000D01*
X115983000Y-146787000D01*
X113733750Y-146787000D01*
X113575000Y-146945750D01*
X100710000Y-146945750D01*
X100710000Y-144625050D01*
X103115000Y-144625050D01*
X103115000Y-145374950D01*
X103401974Y-146067767D01*
X103932233Y-146598026D01*
X104625050Y-146885000D01*
X105374950Y-146885000D01*
X106067767Y-146598026D01*
X106598026Y-146067767D01*
X106819247Y-145533691D01*
X113575000Y-145533691D01*
X113575000Y-146374250D01*
X113733750Y-146533000D01*
X115983000Y-146533000D01*
X115983000Y-145183750D01*
X116237000Y-145183750D01*
X116237000Y-146533000D01*
X118486250Y-146533000D01*
X118645000Y-146374250D01*
X118645000Y-145947938D01*
X126280732Y-145947938D01*
X126464448Y-146321821D01*
X126788951Y-146609568D01*
X127198869Y-146751229D01*
X127373000Y-146602563D01*
X127373000Y-145777000D01*
X126407266Y-145777000D01*
X126280732Y-145947938D01*
X118645000Y-145947938D01*
X118645000Y-145533691D01*
X118569767Y-145352062D01*
X126280732Y-145352062D01*
X126407266Y-145523000D01*
X127373000Y-145523000D01*
X127373000Y-144697437D01*
X127627000Y-144697437D01*
X127627000Y-145523000D01*
X127647000Y-145523000D01*
X127647000Y-145777000D01*
X127627000Y-145777000D01*
X127627000Y-146602563D01*
X127759591Y-146715764D01*
X127665000Y-146944126D01*
X127665000Y-147355874D01*
X127822569Y-147736280D01*
X128113720Y-148027431D01*
X128494126Y-148185000D01*
X128905874Y-148185000D01*
X129286280Y-148027431D01*
X129365711Y-147948000D01*
X132365000Y-147948000D01*
X132365000Y-148223000D01*
X133373000Y-148223000D01*
X133373000Y-147107046D01*
X133627000Y-147107046D01*
X133627000Y-148223000D01*
X134635000Y-148223000D01*
X134635000Y-147948000D01*
X134500002Y-147523322D01*
X134212763Y-147182632D01*
X133801874Y-146980881D01*
X133627000Y-147107046D01*
X133373000Y-147107046D01*
X133198126Y-146980881D01*
X132787237Y-147182632D01*
X132499998Y-147523322D01*
X132365000Y-147948000D01*
X129365711Y-147948000D01*
X129577431Y-147736280D01*
X129735000Y-147355874D01*
X129735000Y-146959511D01*
X129800000Y-146972440D01*
X130200000Y-146972440D01*
X130325000Y-146947576D01*
X130450000Y-146972440D01*
X130850000Y-146972440D01*
X130953852Y-146951783D01*
X130973690Y-146960000D01*
X131041250Y-146960000D01*
X131073208Y-146928042D01*
X131097765Y-146923157D01*
X131307809Y-146782809D01*
X131400000Y-146644836D01*
X131400000Y-146801250D01*
X131558750Y-146960000D01*
X131626310Y-146960000D01*
X131859699Y-146863327D01*
X132030115Y-146692910D01*
X132198869Y-146751229D01*
X132373000Y-146602563D01*
X132373000Y-145777000D01*
X132627000Y-145777000D01*
X132627000Y-146602563D01*
X132801131Y-146751229D01*
X133211049Y-146609568D01*
X133284850Y-146544126D01*
X136115000Y-146544126D01*
X136115000Y-146955874D01*
X136272569Y-147336280D01*
X136563720Y-147627431D01*
X136944126Y-147785000D01*
X137355874Y-147785000D01*
X137724833Y-147632172D01*
X137842191Y-147807809D01*
X138052235Y-147948157D01*
X138300000Y-147997440D01*
X139500000Y-147997440D01*
X139747765Y-147948157D01*
X139957809Y-147807809D01*
X140000000Y-147744666D01*
X140042191Y-147807809D01*
X140252235Y-147948157D01*
X140500000Y-147997440D01*
X141700000Y-147997440D01*
X141947765Y-147948157D01*
X142157809Y-147807809D01*
X142298157Y-147597765D01*
X142300696Y-147585000D01*
X143089358Y-147585000D01*
X143101843Y-147647765D01*
X143242191Y-147857809D01*
X143452235Y-147998157D01*
X143700000Y-148047440D01*
X144400000Y-148047440D01*
X144647765Y-147998157D01*
X144857809Y-147857809D01*
X144998157Y-147647765D01*
X145003721Y-147619791D01*
X145061673Y-147759699D01*
X145240302Y-147938327D01*
X145473691Y-148035000D01*
X145664250Y-148035000D01*
X145823000Y-147876250D01*
X145823000Y-146877000D01*
X146077000Y-146877000D01*
X146077000Y-147876250D01*
X146235750Y-148035000D01*
X146426309Y-148035000D01*
X146659698Y-147938327D01*
X146838327Y-147759699D01*
X146935000Y-147526310D01*
X146935000Y-147035750D01*
X146776250Y-146877000D01*
X146077000Y-146877000D01*
X145823000Y-146877000D01*
X145803000Y-146877000D01*
X145803000Y-146623000D01*
X145823000Y-146623000D01*
X145823000Y-145623750D01*
X146077000Y-145623750D01*
X146077000Y-146623000D01*
X146776250Y-146623000D01*
X146935000Y-146464250D01*
X146935000Y-145973690D01*
X146838327Y-145740301D01*
X146659698Y-145561673D01*
X146426309Y-145465000D01*
X146235750Y-145465000D01*
X146077000Y-145623750D01*
X145823000Y-145623750D01*
X145664250Y-145465000D01*
X145473691Y-145465000D01*
X145240302Y-145561673D01*
X145061673Y-145740301D01*
X145003721Y-145880209D01*
X144998157Y-145852235D01*
X144857809Y-145642191D01*
X144647765Y-145501843D01*
X144400000Y-145452560D01*
X143700000Y-145452560D01*
X143452235Y-145501843D01*
X143242191Y-145642191D01*
X143101843Y-145852235D01*
X143089358Y-145915000D01*
X142300696Y-145915000D01*
X142298157Y-145902235D01*
X142157809Y-145692191D01*
X141947765Y-145551843D01*
X141700000Y-145502560D01*
X140500000Y-145502560D01*
X140252235Y-145551843D01*
X140042191Y-145692191D01*
X140000000Y-145755334D01*
X139957809Y-145692191D01*
X139747765Y-145551843D01*
X139500000Y-145502560D01*
X138300000Y-145502560D01*
X138052235Y-145551843D01*
X137842191Y-145692191D01*
X137724833Y-145867828D01*
X137355874Y-145715000D01*
X136944126Y-145715000D01*
X136563720Y-145872569D01*
X136272569Y-146163720D01*
X136115000Y-146544126D01*
X133284850Y-146544126D01*
X133535552Y-146321821D01*
X133719268Y-145947938D01*
X133592734Y-145777000D01*
X132627000Y-145777000D01*
X132373000Y-145777000D01*
X132353000Y-145777000D01*
X132353000Y-145523000D01*
X132373000Y-145523000D01*
X132373000Y-144697437D01*
X132627000Y-144697437D01*
X132627000Y-145523000D01*
X133592734Y-145523000D01*
X133719268Y-145352062D01*
X133535552Y-144978179D01*
X133211049Y-144690432D01*
X133021857Y-144625050D01*
X153115000Y-144625050D01*
X153115000Y-145374950D01*
X153401974Y-146067767D01*
X153932233Y-146598026D01*
X154625050Y-146885000D01*
X155374950Y-146885000D01*
X156067767Y-146598026D01*
X156598026Y-146067767D01*
X156885000Y-145374950D01*
X156885000Y-144625050D01*
X156598026Y-143932233D01*
X156067767Y-143401974D01*
X155374950Y-143115000D01*
X154625050Y-143115000D01*
X153932233Y-143401974D01*
X153401974Y-143932233D01*
X153115000Y-144625050D01*
X133021857Y-144625050D01*
X132801131Y-144548771D01*
X132627000Y-144697437D01*
X132373000Y-144697437D01*
X132198869Y-144548771D01*
X132030115Y-144607090D01*
X131859699Y-144436673D01*
X131626310Y-144340000D01*
X131558750Y-144340000D01*
X131400000Y-144498750D01*
X131400000Y-144655164D01*
X131307809Y-144517191D01*
X131097765Y-144376843D01*
X131073208Y-144371958D01*
X131041250Y-144340000D01*
X130973690Y-144340000D01*
X130953852Y-144348217D01*
X130850000Y-144327560D01*
X130450000Y-144327560D01*
X130325000Y-144352424D01*
X130200000Y-144327560D01*
X129800000Y-144327560D01*
X129735000Y-144340489D01*
X129735000Y-143944126D01*
X129577431Y-143563720D01*
X129286280Y-143272569D01*
X128905874Y-143115000D01*
X128494126Y-143115000D01*
X128113720Y-143272569D01*
X127822569Y-143563720D01*
X127665000Y-143944126D01*
X127665000Y-144355874D01*
X127759591Y-144584236D01*
X127627000Y-144697437D01*
X127373000Y-144697437D01*
X127198869Y-144548771D01*
X126788951Y-144690432D01*
X126464448Y-144978179D01*
X126280732Y-145352062D01*
X118569767Y-145352062D01*
X118548327Y-145300302D01*
X118369699Y-145121673D01*
X118136310Y-145025000D01*
X116395750Y-145025000D01*
X116237000Y-145183750D01*
X115983000Y-145183750D01*
X115824250Y-145025000D01*
X114083690Y-145025000D01*
X113850301Y-145121673D01*
X113671673Y-145300302D01*
X113575000Y-145533691D01*
X106819247Y-145533691D01*
X106885000Y-145374950D01*
X106885000Y-144625050D01*
X106598026Y-143932233D01*
X106067767Y-143401974D01*
X105374950Y-143115000D01*
X104625050Y-143115000D01*
X103932233Y-143401974D01*
X103401974Y-143932233D01*
X103115000Y-144625050D01*
X100710000Y-144625050D01*
X100710000Y-131400000D01*
X103252560Y-131400000D01*
X103252560Y-133100000D01*
X103301843Y-133347765D01*
X103442191Y-133557809D01*
X103652235Y-133698157D01*
X103755708Y-133718739D01*
X103478355Y-134023076D01*
X103308524Y-134433110D01*
X103429845Y-134663000D01*
X104623000Y-134663000D01*
X104623000Y-134643000D01*
X104877000Y-134643000D01*
X104877000Y-134663000D01*
X106070155Y-134663000D01*
X106191476Y-134433110D01*
X106021645Y-134023076D01*
X105744292Y-133718739D01*
X105847765Y-133698157D01*
X106057809Y-133557809D01*
X106198157Y-133347765D01*
X106247440Y-133100000D01*
X106247440Y-131400000D01*
X106198157Y-131152235D01*
X106057809Y-130942191D01*
X105847765Y-130801843D01*
X105600000Y-130752560D01*
X103900000Y-130752560D01*
X103652235Y-130801843D01*
X103442191Y-130942191D01*
X103301843Y-131152235D01*
X103252560Y-131400000D01*
X100710000Y-131400000D01*
X100710000Y-120023690D01*
X102515000Y-120023690D01*
X102515000Y-120714250D01*
X102673750Y-120873000D01*
X103873000Y-120873000D01*
X103873000Y-119673750D01*
X103714250Y-119515000D01*
X103023691Y-119515000D01*
X102790302Y-119611673D01*
X102611673Y-119790301D01*
X102515000Y-120023690D01*
X100710000Y-120023690D01*
X100710000Y-112785750D01*
X103115000Y-112785750D01*
X103115000Y-113126309D01*
X103211673Y-113359698D01*
X103390301Y-113538327D01*
X103623690Y-113635000D01*
X104714250Y-113635000D01*
X104873000Y-113476250D01*
X104873000Y-112627000D01*
X105127000Y-112627000D01*
X105127000Y-113476250D01*
X105285750Y-113635000D01*
X106376310Y-113635000D01*
X106609699Y-113538327D01*
X106788327Y-113359698D01*
X106885000Y-113126309D01*
X106885000Y-112785750D01*
X106726250Y-112627000D01*
X105127000Y-112627000D01*
X104873000Y-112627000D01*
X103273750Y-112627000D01*
X103115000Y-112785750D01*
X100710000Y-112785750D01*
X100710000Y-109944126D01*
X101715000Y-109944126D01*
X101715000Y-110355874D01*
X101872569Y-110736280D01*
X102163720Y-111027431D01*
X102544126Y-111185000D01*
X102955874Y-111185000D01*
X103336280Y-111027431D01*
X103627431Y-110736280D01*
X103670758Y-110631678D01*
X103750000Y-110647440D01*
X103965000Y-110647440D01*
X103965000Y-110905874D01*
X104122569Y-111286280D01*
X104201289Y-111365000D01*
X103623690Y-111365000D01*
X103390301Y-111461673D01*
X103211673Y-111640302D01*
X103115000Y-111873691D01*
X103115000Y-112214250D01*
X103273750Y-112373000D01*
X104873000Y-112373000D01*
X104873000Y-112353000D01*
X105127000Y-112353000D01*
X105127000Y-112373000D01*
X106726250Y-112373000D01*
X106885000Y-112214250D01*
X106885000Y-111873691D01*
X106788327Y-111640302D01*
X106609699Y-111461673D01*
X106376310Y-111365000D01*
X105798711Y-111365000D01*
X105877431Y-111286280D01*
X105877650Y-111285750D01*
X107990000Y-111285750D01*
X107990000Y-111526309D01*
X108086673Y-111759698D01*
X108265301Y-111938327D01*
X108498690Y-112035000D01*
X108714250Y-112035000D01*
X108873000Y-111876250D01*
X108873000Y-111127000D01*
X109127000Y-111127000D01*
X109127000Y-111876250D01*
X109285750Y-112035000D01*
X109501310Y-112035000D01*
X109734699Y-111938327D01*
X109913327Y-111759698D01*
X110010000Y-111526309D01*
X110010000Y-111285750D01*
X109851250Y-111127000D01*
X109127000Y-111127000D01*
X108873000Y-111127000D01*
X108148750Y-111127000D01*
X107990000Y-111285750D01*
X105877650Y-111285750D01*
X106035000Y-110905874D01*
X106035000Y-110647440D01*
X106250000Y-110647440D01*
X106497765Y-110598157D01*
X106707809Y-110457809D01*
X106823277Y-110285000D01*
X108068158Y-110285000D01*
X107990000Y-110473691D01*
X107990000Y-110714250D01*
X108148750Y-110873000D01*
X108873000Y-110873000D01*
X108873000Y-110853000D01*
X109127000Y-110853000D01*
X109127000Y-110873000D01*
X109851250Y-110873000D01*
X109933146Y-110791104D01*
X109972569Y-110886280D01*
X110065000Y-110978711D01*
X110065001Y-111624841D01*
X106039592Y-115650251D01*
X105974047Y-115694047D01*
X105800546Y-115953709D01*
X105755000Y-116182685D01*
X105755000Y-116182688D01*
X105739622Y-116260000D01*
X105755000Y-116337312D01*
X105755001Y-119738526D01*
X105469375Y-119929375D01*
X105454904Y-119951032D01*
X105388327Y-119790301D01*
X105209698Y-119611673D01*
X104976309Y-119515000D01*
X104285750Y-119515000D01*
X104127000Y-119673750D01*
X104127000Y-120873000D01*
X104147000Y-120873000D01*
X104147000Y-121127000D01*
X104127000Y-121127000D01*
X104127000Y-121147000D01*
X103873000Y-121147000D01*
X103873000Y-121127000D01*
X102673750Y-121127000D01*
X102515000Y-121285750D01*
X102515000Y-121976310D01*
X102611673Y-122209699D01*
X102790302Y-122388327D01*
X102951033Y-122454904D01*
X102929375Y-122469375D01*
X102601161Y-122960582D01*
X102485908Y-123540000D01*
X102601161Y-124119418D01*
X102929375Y-124610625D01*
X103227761Y-124810000D01*
X102929375Y-125009375D01*
X102601161Y-125500582D01*
X102485908Y-126080000D01*
X102601161Y-126659418D01*
X102929375Y-127150625D01*
X103420582Y-127478839D01*
X103853744Y-127565000D01*
X104146256Y-127565000D01*
X104579418Y-127478839D01*
X105070625Y-127150625D01*
X105270000Y-126852239D01*
X105469375Y-127150625D01*
X105960582Y-127478839D01*
X106393744Y-127565000D01*
X106686256Y-127565000D01*
X107119418Y-127478839D01*
X107610625Y-127150625D01*
X107938839Y-126659418D01*
X108054092Y-126080000D01*
X107938839Y-125500582D01*
X107610625Y-125009375D01*
X107312239Y-124810000D01*
X107610625Y-124610625D01*
X107938839Y-124119418D01*
X108054092Y-123540000D01*
X107938839Y-122960582D01*
X107610625Y-122469375D01*
X107312239Y-122270000D01*
X107610625Y-122070625D01*
X107938839Y-121579418D01*
X108054092Y-121000000D01*
X107938839Y-120420582D01*
X107610625Y-119929375D01*
X107325000Y-119738526D01*
X107325000Y-116585157D01*
X111350411Y-112559747D01*
X111415953Y-112515953D01*
X111459747Y-112450411D01*
X111459749Y-112450409D01*
X111589453Y-112256293D01*
X111589454Y-112256292D01*
X111619467Y-112105408D01*
X111699376Y-112225000D01*
X111557953Y-112436654D01*
X111473744Y-112860000D01*
X111557953Y-113283346D01*
X111699376Y-113495000D01*
X111557953Y-113706654D01*
X111473744Y-114130000D01*
X111557953Y-114553346D01*
X111699376Y-114765000D01*
X111557953Y-114976654D01*
X111473744Y-115400000D01*
X111557892Y-115823040D01*
X111497766Y-115835000D01*
X111497763Y-115835000D01*
X111254199Y-115883448D01*
X111149048Y-115953708D01*
X110977999Y-116067999D01*
X110931416Y-116137715D01*
X109467718Y-117601415D01*
X109398000Y-117647999D01*
X109351416Y-117717717D01*
X109213448Y-117924200D01*
X109148643Y-118250000D01*
X109165001Y-118332238D01*
X109165000Y-128654131D01*
X107967718Y-129851415D01*
X107898000Y-129897999D01*
X107851416Y-129967717D01*
X107713448Y-130174200D01*
X107648643Y-130500000D01*
X107665001Y-130582238D01*
X107665000Y-134436213D01*
X105829122Y-136272092D01*
X105820625Y-136259375D01*
X105501522Y-136046157D01*
X105631358Y-135985183D01*
X106021645Y-135556924D01*
X106191476Y-135146890D01*
X106070155Y-134917000D01*
X104877000Y-134917000D01*
X104877000Y-134937000D01*
X104623000Y-134937000D01*
X104623000Y-134917000D01*
X103429845Y-134917000D01*
X103308524Y-135146890D01*
X103478355Y-135556924D01*
X103868642Y-135985183D01*
X103998478Y-136046157D01*
X103679375Y-136259375D01*
X103351161Y-136750582D01*
X103235908Y-137330000D01*
X103351161Y-137909418D01*
X103679375Y-138400625D01*
X104170582Y-138728839D01*
X104603744Y-138815000D01*
X104896256Y-138815000D01*
X105329418Y-138728839D01*
X105820625Y-138400625D01*
X105969443Y-138177904D01*
X106034314Y-138165000D01*
X106034318Y-138165000D01*
X106277882Y-138116552D01*
X106554082Y-137932001D01*
X106600668Y-137862280D01*
X108835203Y-135627745D01*
X110241861Y-135627745D01*
X110315995Y-135873864D01*
X110853223Y-136066965D01*
X111423454Y-136039778D01*
X111824005Y-135873864D01*
X111898139Y-135627745D01*
X111070000Y-134799605D01*
X110241861Y-135627745D01*
X108835203Y-135627745D01*
X109032283Y-135430666D01*
X109102001Y-135384082D01*
X109286552Y-135107882D01*
X109335000Y-134864318D01*
X109335000Y-134864317D01*
X109351358Y-134782081D01*
X109335000Y-134699844D01*
X109335000Y-134403223D01*
X109623035Y-134403223D01*
X109650222Y-134973454D01*
X109816136Y-135374005D01*
X110062255Y-135448139D01*
X110890395Y-134620000D01*
X111249605Y-134620000D01*
X112077745Y-135448139D01*
X112125307Y-135433813D01*
X112171843Y-135667765D01*
X112312191Y-135877809D01*
X112522235Y-136018157D01*
X112770000Y-136067440D01*
X112925001Y-136067440D01*
X112925000Y-138739413D01*
X112812235Y-138761843D01*
X112602191Y-138902191D01*
X112461843Y-139112235D01*
X112412560Y-139360000D01*
X112412560Y-141360000D01*
X112461843Y-141607765D01*
X112602191Y-141817809D01*
X112812235Y-141958157D01*
X113060000Y-142007440D01*
X114560000Y-142007440D01*
X114807765Y-141958157D01*
X114959047Y-141857073D01*
X115000301Y-141898327D01*
X115233690Y-141995000D01*
X115824250Y-141995000D01*
X115983000Y-141836250D01*
X115983000Y-140487000D01*
X115963000Y-140487000D01*
X115963000Y-140233000D01*
X115983000Y-140233000D01*
X115983000Y-138883750D01*
X116237000Y-138883750D01*
X116237000Y-140233000D01*
X116257000Y-140233000D01*
X116257000Y-140487000D01*
X116237000Y-140487000D01*
X116237000Y-141836250D01*
X116395750Y-141995000D01*
X116986310Y-141995000D01*
X117219699Y-141898327D01*
X117260953Y-141857073D01*
X117412235Y-141958157D01*
X117660000Y-142007440D01*
X119160000Y-142007440D01*
X119407765Y-141958157D01*
X119617809Y-141817809D01*
X119758157Y-141607765D01*
X119799483Y-141400000D01*
X137652560Y-141400000D01*
X137652560Y-142600000D01*
X137701843Y-142847765D01*
X137842191Y-143057809D01*
X138052235Y-143198157D01*
X138300000Y-143247440D01*
X139500000Y-143247440D01*
X139747765Y-143198157D01*
X139957809Y-143057809D01*
X140000000Y-142994666D01*
X140042191Y-143057809D01*
X140252235Y-143198157D01*
X140500000Y-143247440D01*
X141700000Y-143247440D01*
X141947765Y-143198157D01*
X142157809Y-143057809D01*
X142298157Y-142847765D01*
X142300696Y-142835000D01*
X143089358Y-142835000D01*
X143101843Y-142897765D01*
X143242191Y-143107809D01*
X143452235Y-143248157D01*
X143700000Y-143297440D01*
X144400000Y-143297440D01*
X144647765Y-143248157D01*
X144857809Y-143107809D01*
X144998157Y-142897765D01*
X145003721Y-142869791D01*
X145061673Y-143009699D01*
X145240302Y-143188327D01*
X145473691Y-143285000D01*
X145664250Y-143285000D01*
X145823000Y-143126250D01*
X145823000Y-142127000D01*
X146077000Y-142127000D01*
X146077000Y-143126250D01*
X146235750Y-143285000D01*
X146426309Y-143285000D01*
X146659698Y-143188327D01*
X146838327Y-143009699D01*
X146935000Y-142776310D01*
X146935000Y-142285750D01*
X146776250Y-142127000D01*
X146077000Y-142127000D01*
X145823000Y-142127000D01*
X145803000Y-142127000D01*
X145803000Y-141873000D01*
X145823000Y-141873000D01*
X145823000Y-140873750D01*
X146077000Y-140873750D01*
X146077000Y-141873000D01*
X146776250Y-141873000D01*
X146935000Y-141714250D01*
X146935000Y-141223690D01*
X146838327Y-140990301D01*
X146659698Y-140811673D01*
X146426309Y-140715000D01*
X146235750Y-140715000D01*
X146077000Y-140873750D01*
X145823000Y-140873750D01*
X145664250Y-140715000D01*
X145473691Y-140715000D01*
X145240302Y-140811673D01*
X145061673Y-140990301D01*
X145003721Y-141130209D01*
X144998157Y-141102235D01*
X144857809Y-140892191D01*
X144647765Y-140751843D01*
X144400000Y-140702560D01*
X143700000Y-140702560D01*
X143452235Y-140751843D01*
X143242191Y-140892191D01*
X143101843Y-141102235D01*
X143089358Y-141165000D01*
X142300696Y-141165000D01*
X142298157Y-141152235D01*
X142157809Y-140942191D01*
X141947765Y-140801843D01*
X141700000Y-140752560D01*
X140500000Y-140752560D01*
X140252235Y-140801843D01*
X140042191Y-140942191D01*
X140000000Y-141005334D01*
X139957809Y-140942191D01*
X139747765Y-140801843D01*
X139735000Y-140799304D01*
X139735000Y-134878711D01*
X139777431Y-134836280D01*
X139935000Y-134455874D01*
X139935000Y-134044126D01*
X139777431Y-133663720D01*
X139486280Y-133372569D01*
X139311083Y-133300000D01*
X144752560Y-133300000D01*
X144752560Y-134900000D01*
X144801843Y-135147765D01*
X144942191Y-135357809D01*
X145152235Y-135498157D01*
X145400000Y-135547440D01*
X147000000Y-135547440D01*
X147247765Y-135498157D01*
X147457809Y-135357809D01*
X147598157Y-135147765D01*
X147647440Y-134900000D01*
X147647440Y-133300000D01*
X147598157Y-133052235D01*
X147457809Y-132842191D01*
X147247765Y-132701843D01*
X147013813Y-132655307D01*
X147028139Y-132607745D01*
X146200000Y-131779605D01*
X145371861Y-132607745D01*
X145386187Y-132655307D01*
X145152235Y-132701843D01*
X144942191Y-132842191D01*
X144801843Y-133052235D01*
X144752560Y-133300000D01*
X139311083Y-133300000D01*
X139105874Y-133215000D01*
X138694126Y-133215000D01*
X138313720Y-133372569D01*
X138022569Y-133663720D01*
X137865000Y-134044126D01*
X137865000Y-134455874D01*
X138022569Y-134836280D01*
X138065001Y-134878712D01*
X138065000Y-140799304D01*
X138052235Y-140801843D01*
X137842191Y-140942191D01*
X137701843Y-141152235D01*
X137652560Y-141400000D01*
X119799483Y-141400000D01*
X119807440Y-141360000D01*
X119807440Y-141245000D01*
X119902839Y-141245000D01*
X119990000Y-141262337D01*
X120077161Y-141245000D01*
X120077165Y-141245000D01*
X120335310Y-141193652D01*
X120600269Y-141016611D01*
X120936280Y-140877431D01*
X121227431Y-140586280D01*
X121385000Y-140205874D01*
X121385000Y-139794126D01*
X121227431Y-139413720D01*
X120936280Y-139122569D01*
X120555874Y-138965000D01*
X120144126Y-138965000D01*
X119763720Y-139122569D01*
X119760794Y-139125495D01*
X119758157Y-139112235D01*
X119617809Y-138902191D01*
X119407765Y-138761843D01*
X119373240Y-138754976D01*
X119435000Y-138605874D01*
X119435000Y-138194126D01*
X119277431Y-137813720D01*
X118986280Y-137522569D01*
X118605874Y-137365000D01*
X118194126Y-137365000D01*
X117813720Y-137522569D01*
X117522569Y-137813720D01*
X117365000Y-138194126D01*
X117365000Y-138605874D01*
X117428282Y-138758651D01*
X117412235Y-138761843D01*
X117260953Y-138862927D01*
X117219699Y-138821673D01*
X116986310Y-138725000D01*
X116395750Y-138725000D01*
X116237000Y-138883750D01*
X115983000Y-138883750D01*
X115824250Y-138725000D01*
X115233690Y-138725000D01*
X115000301Y-138821673D01*
X114959047Y-138862927D01*
X114807765Y-138761843D01*
X114695000Y-138739413D01*
X114695000Y-135966550D01*
X114827809Y-135877809D01*
X114968157Y-135667765D01*
X114976117Y-135627745D01*
X116591861Y-135627745D01*
X116665995Y-135873864D01*
X117203223Y-136066965D01*
X117773454Y-136039778D01*
X118174005Y-135873864D01*
X118248139Y-135627745D01*
X117420000Y-134799605D01*
X116591861Y-135627745D01*
X114976117Y-135627745D01*
X115017440Y-135420000D01*
X115017440Y-134403223D01*
X115973035Y-134403223D01*
X116000222Y-134973454D01*
X116166136Y-135374005D01*
X116412255Y-135448139D01*
X117240395Y-134620000D01*
X117599605Y-134620000D01*
X118427745Y-135448139D01*
X118475307Y-135433813D01*
X118521843Y-135667765D01*
X118662191Y-135877809D01*
X118872235Y-136018157D01*
X119120000Y-136067440D01*
X120720000Y-136067440D01*
X120967765Y-136018157D01*
X121177809Y-135877809D01*
X121265000Y-135747319D01*
X121265000Y-135805874D01*
X121422569Y-136186280D01*
X121713720Y-136477431D01*
X122069761Y-136624908D01*
X122111951Y-136688049D01*
X122404690Y-136883652D01*
X122662835Y-136935000D01*
X122662839Y-136935000D01*
X122749999Y-136952337D01*
X122837159Y-136935000D01*
X123007715Y-136935000D01*
X123102235Y-136998157D01*
X123111500Y-137000000D01*
X123102235Y-137001843D01*
X122892191Y-137142191D01*
X122751843Y-137352235D01*
X122702560Y-137600000D01*
X122702560Y-138300000D01*
X122751843Y-138547765D01*
X122892191Y-138757809D01*
X123025883Y-138847140D01*
X122965000Y-138994126D01*
X122965000Y-139405874D01*
X123122569Y-139786280D01*
X123413720Y-140077431D01*
X123794126Y-140235000D01*
X124205874Y-140235000D01*
X124586280Y-140077431D01*
X124877431Y-139786280D01*
X125035000Y-139405874D01*
X125035000Y-139198377D01*
X125244126Y-139285000D01*
X125655874Y-139285000D01*
X126036280Y-139127431D01*
X126327431Y-138836280D01*
X126485000Y-138455874D01*
X126485000Y-138044126D01*
X126327431Y-137663720D01*
X126036280Y-137372569D01*
X125655874Y-137215000D01*
X125642952Y-137215000D01*
X125495310Y-137116348D01*
X125237165Y-137065000D01*
X125237161Y-137065000D01*
X125150000Y-137047663D01*
X125062839Y-137065000D01*
X124992285Y-137065000D01*
X124897765Y-137001843D01*
X124888500Y-137000000D01*
X124897765Y-136998157D01*
X125107809Y-136857809D01*
X125213254Y-136700000D01*
X127352560Y-136700000D01*
X127352560Y-139300000D01*
X127401843Y-139547765D01*
X127542191Y-139757809D01*
X127752235Y-139898157D01*
X128000000Y-139947440D01*
X130000000Y-139947440D01*
X130247765Y-139898157D01*
X130457809Y-139757809D01*
X130565099Y-139597240D01*
X131031645Y-139859144D01*
X131159566Y-139890124D01*
X131413000Y-139770777D01*
X131413000Y-138127000D01*
X131667000Y-138127000D01*
X131667000Y-139770777D01*
X131920434Y-139890124D01*
X132048355Y-139859144D01*
X132606317Y-139545922D01*
X133001942Y-139043020D01*
X133175000Y-138427000D01*
X133175000Y-138127000D01*
X131667000Y-138127000D01*
X131413000Y-138127000D01*
X131393000Y-138127000D01*
X131393000Y-137873000D01*
X131413000Y-137873000D01*
X131413000Y-136229223D01*
X131667000Y-136229223D01*
X131667000Y-137873000D01*
X133175000Y-137873000D01*
X133175000Y-137573000D01*
X133001942Y-136956980D01*
X132606317Y-136454078D01*
X132048355Y-136140856D01*
X131920434Y-136109876D01*
X131667000Y-136229223D01*
X131413000Y-136229223D01*
X131159566Y-136109876D01*
X131031645Y-136140856D01*
X130565099Y-136402760D01*
X130457809Y-136242191D01*
X130247765Y-136101843D01*
X130000000Y-136052560D01*
X128000000Y-136052560D01*
X127752235Y-136101843D01*
X127542191Y-136242191D01*
X127401843Y-136452235D01*
X127352560Y-136700000D01*
X125213254Y-136700000D01*
X125248157Y-136647765D01*
X125297440Y-136400000D01*
X125297440Y-135700000D01*
X125248157Y-135452235D01*
X125193410Y-135370301D01*
X125277431Y-135286280D01*
X125435000Y-134905874D01*
X125435000Y-134494126D01*
X125277431Y-134113720D01*
X124986280Y-133822569D01*
X124605874Y-133665000D01*
X124194126Y-133665000D01*
X123813720Y-133822569D01*
X123522569Y-134113720D01*
X123384594Y-134446822D01*
X123361952Y-134461951D01*
X123312578Y-134535844D01*
X123312576Y-134535846D01*
X123166348Y-134754691D01*
X123125212Y-134961501D01*
X122886280Y-134722569D01*
X122505874Y-134565000D01*
X122094126Y-134565000D01*
X121713720Y-134722569D01*
X121422569Y-135013720D01*
X121367440Y-135146813D01*
X121367440Y-133820000D01*
X121318157Y-133572235D01*
X121177809Y-133362191D01*
X120967765Y-133221843D01*
X120720000Y-133172560D01*
X119120000Y-133172560D01*
X118872235Y-133221843D01*
X118662191Y-133362191D01*
X118521843Y-133572235D01*
X118475307Y-133806187D01*
X118427745Y-133791861D01*
X117599605Y-134620000D01*
X117240395Y-134620000D01*
X116412255Y-133791861D01*
X116166136Y-133865995D01*
X115973035Y-134403223D01*
X115017440Y-134403223D01*
X115017440Y-133820000D01*
X114976118Y-133612255D01*
X116591861Y-133612255D01*
X117420000Y-134440395D01*
X118248139Y-133612255D01*
X118174005Y-133366136D01*
X117636777Y-133173035D01*
X117066546Y-133200222D01*
X116665995Y-133366136D01*
X116591861Y-133612255D01*
X114976118Y-133612255D01*
X114968157Y-133572235D01*
X114827809Y-133362191D01*
X114617765Y-133221843D01*
X114370000Y-133172560D01*
X112770000Y-133172560D01*
X112522235Y-133221843D01*
X112312191Y-133362191D01*
X112171843Y-133572235D01*
X112125307Y-133806187D01*
X112077745Y-133791861D01*
X111249605Y-134620000D01*
X110890395Y-134620000D01*
X110062255Y-133791861D01*
X109816136Y-133865995D01*
X109623035Y-134403223D01*
X109335000Y-134403223D01*
X109335000Y-133612255D01*
X110241861Y-133612255D01*
X111070000Y-134440395D01*
X111898139Y-133612255D01*
X111824005Y-133366136D01*
X111286777Y-133173035D01*
X110716546Y-133200222D01*
X110315995Y-133366136D01*
X110241861Y-133612255D01*
X109335000Y-133612255D01*
X109335000Y-131383223D01*
X144753035Y-131383223D01*
X144780222Y-131953454D01*
X144946136Y-132354005D01*
X145192255Y-132428139D01*
X146020395Y-131600000D01*
X146379605Y-131600000D01*
X147207745Y-132428139D01*
X147453864Y-132354005D01*
X147646965Y-131816777D01*
X147619778Y-131246546D01*
X147453864Y-130845995D01*
X147207745Y-130771861D01*
X146379605Y-131600000D01*
X146020395Y-131600000D01*
X145192255Y-130771861D01*
X144946136Y-130845995D01*
X144753035Y-131383223D01*
X109335000Y-131383223D01*
X109335000Y-130845867D01*
X109588612Y-130592255D01*
X145371861Y-130592255D01*
X146200000Y-131420395D01*
X147028139Y-130592255D01*
X146954005Y-130346136D01*
X146416777Y-130153035D01*
X145846546Y-130180222D01*
X145445995Y-130346136D01*
X145371861Y-130592255D01*
X109588612Y-130592255D01*
X110532286Y-129648583D01*
X110602001Y-129602001D01*
X110786552Y-129325801D01*
X110835000Y-129082237D01*
X110835000Y-129082234D01*
X110851357Y-129000001D01*
X110835000Y-128917768D01*
X110835000Y-125907000D01*
X115580000Y-125907000D01*
X115580000Y-126707000D01*
X115711192Y-127112544D01*
X115987592Y-127437013D01*
X116370999Y-127624408D01*
X116538000Y-127497502D01*
X116538000Y-125907000D01*
X115580000Y-125907000D01*
X110835000Y-125907000D01*
X110835000Y-118595867D01*
X111476585Y-117954283D01*
X111557953Y-118363346D01*
X111699376Y-118575000D01*
X111557953Y-118786654D01*
X111473744Y-119210000D01*
X111557953Y-119633346D01*
X111699376Y-119845000D01*
X111557953Y-120056654D01*
X111473744Y-120480000D01*
X111557953Y-120903346D01*
X111699376Y-121115000D01*
X111557953Y-121326654D01*
X111473744Y-121750000D01*
X111557953Y-122173346D01*
X111699376Y-122385000D01*
X111557953Y-122596654D01*
X111473744Y-123020000D01*
X111557953Y-123443346D01*
X111699376Y-123655000D01*
X111557953Y-123866654D01*
X111473744Y-124290000D01*
X111557953Y-124713346D01*
X111797759Y-125072241D01*
X112156654Y-125312047D01*
X112473139Y-125375000D01*
X114286861Y-125375000D01*
X114603346Y-125312047D01*
X114962241Y-125072241D01*
X115108733Y-124853000D01*
X115580000Y-124853000D01*
X115580000Y-125653000D01*
X116538000Y-125653000D01*
X116538000Y-124062498D01*
X116792000Y-124062498D01*
X116792000Y-125653000D01*
X116812000Y-125653000D01*
X116812000Y-125907000D01*
X116792000Y-125907000D01*
X116792000Y-127497502D01*
X116959001Y-127624408D01*
X117297507Y-127458959D01*
X117511654Y-127602047D01*
X117935000Y-127686256D01*
X118358345Y-127602047D01*
X118570000Y-127460624D01*
X118781654Y-127602047D01*
X119205000Y-127686256D01*
X119628345Y-127602047D01*
X119840000Y-127460624D01*
X120051654Y-127602047D01*
X120475000Y-127686256D01*
X120898345Y-127602047D01*
X121110000Y-127460624D01*
X121321654Y-127602047D01*
X121745000Y-127686256D01*
X122168345Y-127602047D01*
X122380000Y-127460624D01*
X122591654Y-127602047D01*
X123015000Y-127686256D01*
X123438345Y-127602047D01*
X123650000Y-127460624D01*
X123861654Y-127602047D01*
X124285000Y-127686256D01*
X124708345Y-127602047D01*
X124920000Y-127460624D01*
X125131654Y-127602047D01*
X125555000Y-127686256D01*
X125978345Y-127602047D01*
X126190000Y-127460624D01*
X126401654Y-127602047D01*
X126825000Y-127686256D01*
X127248345Y-127602047D01*
X127460000Y-127460624D01*
X127671654Y-127602047D01*
X128095000Y-127686256D01*
X128518345Y-127602047D01*
X128877241Y-127362241D01*
X129117047Y-127003346D01*
X129180000Y-126686861D01*
X129180000Y-126565000D01*
X129204843Y-126565000D01*
X129590253Y-126950410D01*
X129634047Y-127015953D01*
X129699589Y-127059747D01*
X129699591Y-127059749D01*
X129893708Y-127189454D01*
X130122684Y-127235000D01*
X130122687Y-127235000D01*
X130199999Y-127250378D01*
X130277311Y-127235000D01*
X135293541Y-127235000D01*
X135342191Y-127307809D01*
X135552235Y-127448157D01*
X135800000Y-127497440D01*
X136700000Y-127497440D01*
X136947765Y-127448157D01*
X137157809Y-127307809D01*
X137298157Y-127097765D01*
X137347440Y-126850000D01*
X137347440Y-126361316D01*
X137552235Y-126498157D01*
X137800000Y-126547440D01*
X138700000Y-126547440D01*
X138947765Y-126498157D01*
X139157809Y-126357809D01*
X139206459Y-126285000D01*
X140207715Y-126285000D01*
X140302235Y-126348157D01*
X140550000Y-126397440D01*
X141450000Y-126397440D01*
X141697765Y-126348157D01*
X141717456Y-126335000D01*
X144704133Y-126335000D01*
X150541417Y-132172286D01*
X150587999Y-132242001D01*
X150864199Y-132426552D01*
X151107763Y-132475000D01*
X151107766Y-132475000D01*
X151189999Y-132491357D01*
X151272232Y-132475000D01*
X152491532Y-132475000D01*
X152721231Y-132818769D01*
X152857768Y-132910000D01*
X152721231Y-133001231D01*
X152359864Y-133542055D01*
X152232969Y-134180000D01*
X152359864Y-134817945D01*
X152721231Y-135358769D01*
X153262055Y-135720136D01*
X153738969Y-135815000D01*
X154661031Y-135815000D01*
X155137945Y-135720136D01*
X155678769Y-135358769D01*
X156040136Y-134817945D01*
X156167031Y-134180000D01*
X156040136Y-133542055D01*
X155678769Y-133001231D01*
X155542232Y-132910000D01*
X155678769Y-132818769D01*
X156040136Y-132277945D01*
X156167031Y-131640000D01*
X156040136Y-131002055D01*
X155810670Y-130658635D01*
X155859699Y-130638327D01*
X156038327Y-130459698D01*
X156135000Y-130226309D01*
X156135000Y-129385750D01*
X155976250Y-129227000D01*
X154327000Y-129227000D01*
X154327000Y-129247000D01*
X154073000Y-129247000D01*
X154073000Y-129227000D01*
X152423750Y-129227000D01*
X152265000Y-129385750D01*
X152265000Y-130226309D01*
X152361673Y-130459698D01*
X152540301Y-130638327D01*
X152589330Y-130658635D01*
X152491532Y-130805000D01*
X151535869Y-130805000D01*
X148704560Y-127973691D01*
X152265000Y-127973691D01*
X152265000Y-128814250D01*
X152423750Y-128973000D01*
X154073000Y-128973000D01*
X154073000Y-127623750D01*
X154327000Y-127623750D01*
X154327000Y-128973000D01*
X155976250Y-128973000D01*
X156135000Y-128814250D01*
X156135000Y-127973691D01*
X156038327Y-127740302D01*
X155859699Y-127561673D01*
X155626310Y-127465000D01*
X154485750Y-127465000D01*
X154327000Y-127623750D01*
X154073000Y-127623750D01*
X153914250Y-127465000D01*
X152773690Y-127465000D01*
X152540301Y-127561673D01*
X152361673Y-127740302D01*
X152265000Y-127973691D01*
X148704560Y-127973691D01*
X145698587Y-124967720D01*
X145652001Y-124897999D01*
X145375801Y-124713448D01*
X145132237Y-124665000D01*
X145132233Y-124665000D01*
X145050000Y-124648643D01*
X144967767Y-124665000D01*
X141936413Y-124665000D01*
X142048157Y-124497765D01*
X142097440Y-124250000D01*
X142097440Y-123750000D01*
X142048157Y-123502235D01*
X141907809Y-123292191D01*
X141697765Y-123151843D01*
X141450000Y-123102560D01*
X140550000Y-123102560D01*
X140302235Y-123151843D01*
X140282544Y-123165000D01*
X140178711Y-123165000D01*
X140136280Y-123122569D01*
X139755874Y-122965000D01*
X139344126Y-122965000D01*
X138963720Y-123122569D01*
X138672569Y-123413720D01*
X138515000Y-123794126D01*
X138515000Y-124205874D01*
X138617180Y-124452560D01*
X137800000Y-124452560D01*
X137552235Y-124501843D01*
X137347440Y-124638684D01*
X137347440Y-124150000D01*
X137302207Y-123922595D01*
X137984473Y-123240329D01*
X138047929Y-123197929D01*
X138215904Y-122946537D01*
X138260000Y-122724852D01*
X138260000Y-122724847D01*
X138274888Y-122650000D01*
X138260000Y-122575153D01*
X138260000Y-121124846D01*
X138274888Y-121049999D01*
X138260000Y-120975152D01*
X138260000Y-120975148D01*
X138215904Y-120753463D01*
X138047929Y-120502071D01*
X137984473Y-120459671D01*
X137347440Y-119822639D01*
X137347440Y-119750000D01*
X137298157Y-119502235D01*
X137157809Y-119292191D01*
X137109632Y-119260000D01*
X137185199Y-119260000D01*
X139409671Y-121484473D01*
X139452071Y-121547929D01*
X139703463Y-121715904D01*
X139925148Y-121760000D01*
X139925153Y-121760000D01*
X140000000Y-121774888D01*
X140074847Y-121760000D01*
X147725153Y-121760000D01*
X147800000Y-121774888D01*
X147874847Y-121760000D01*
X147874852Y-121760000D01*
X148096537Y-121715904D01*
X148347929Y-121547929D01*
X148390331Y-121484470D01*
X149726949Y-120147852D01*
X149802235Y-120198157D01*
X150050000Y-120247440D01*
X151250000Y-120247440D01*
X151497765Y-120198157D01*
X151707809Y-120057809D01*
X151750000Y-119994666D01*
X151792191Y-120057809D01*
X152002235Y-120198157D01*
X152250000Y-120247440D01*
X153450000Y-120247440D01*
X153697765Y-120198157D01*
X153907809Y-120057809D01*
X154048157Y-119847765D01*
X154050696Y-119835000D01*
X154589358Y-119835000D01*
X154601843Y-119897765D01*
X154742191Y-120107809D01*
X154952235Y-120248157D01*
X155200000Y-120297440D01*
X155900000Y-120297440D01*
X156147765Y-120248157D01*
X156357809Y-120107809D01*
X156498157Y-119897765D01*
X156503721Y-119869791D01*
X156561673Y-120009699D01*
X156740302Y-120188327D01*
X156973691Y-120285000D01*
X157164250Y-120285000D01*
X157323000Y-120126250D01*
X157323000Y-119127000D01*
X157577000Y-119127000D01*
X157577000Y-120126250D01*
X157735750Y-120285000D01*
X157926309Y-120285000D01*
X158159698Y-120188327D01*
X158338327Y-120009699D01*
X158435000Y-119776310D01*
X158435000Y-119285750D01*
X158276250Y-119127000D01*
X157577000Y-119127000D01*
X157323000Y-119127000D01*
X157303000Y-119127000D01*
X157303000Y-118873000D01*
X157323000Y-118873000D01*
X157323000Y-117873750D01*
X157577000Y-117873750D01*
X157577000Y-118873000D01*
X158276250Y-118873000D01*
X158435000Y-118714250D01*
X158435000Y-118223690D01*
X158338327Y-117990301D01*
X158159698Y-117811673D01*
X157926309Y-117715000D01*
X157735750Y-117715000D01*
X157577000Y-117873750D01*
X157323000Y-117873750D01*
X157164250Y-117715000D01*
X156973691Y-117715000D01*
X156740302Y-117811673D01*
X156561673Y-117990301D01*
X156503721Y-118130209D01*
X156498157Y-118102235D01*
X156357809Y-117892191D01*
X156147765Y-117751843D01*
X155900000Y-117702560D01*
X155200000Y-117702560D01*
X154952235Y-117751843D01*
X154742191Y-117892191D01*
X154601843Y-118102235D01*
X154589358Y-118165000D01*
X154050696Y-118165000D01*
X154048157Y-118152235D01*
X153907809Y-117942191D01*
X153697765Y-117801843D01*
X153450000Y-117752560D01*
X152250000Y-117752560D01*
X152002235Y-117801843D01*
X151792191Y-117942191D01*
X151750000Y-118005334D01*
X151707809Y-117942191D01*
X151497765Y-117801843D01*
X151250000Y-117752560D01*
X150050000Y-117752560D01*
X149802235Y-117801843D01*
X149592191Y-117942191D01*
X149451843Y-118152235D01*
X149413682Y-118344086D01*
X149252071Y-118452071D01*
X149209671Y-118515527D01*
X147485199Y-120240000D01*
X141214514Y-120240000D01*
X141486280Y-120127431D01*
X141578711Y-120035000D01*
X141707715Y-120035000D01*
X141802235Y-120098157D01*
X142050000Y-120147440D01*
X142950000Y-120147440D01*
X143197765Y-120098157D01*
X143407809Y-119957809D01*
X143548157Y-119747765D01*
X143590726Y-119533750D01*
X144665000Y-119533750D01*
X144665000Y-119626309D01*
X144761673Y-119859698D01*
X144940301Y-120038327D01*
X145173690Y-120135000D01*
X145464250Y-120135000D01*
X145623000Y-119976250D01*
X145623000Y-119375000D01*
X145877000Y-119375000D01*
X145877000Y-119976250D01*
X146035750Y-120135000D01*
X146326310Y-120135000D01*
X146559699Y-120038327D01*
X146738327Y-119859698D01*
X146835000Y-119626309D01*
X146835000Y-119533750D01*
X146676250Y-119375000D01*
X145877000Y-119375000D01*
X145623000Y-119375000D01*
X144823750Y-119375000D01*
X144665000Y-119533750D01*
X143590726Y-119533750D01*
X143597440Y-119500000D01*
X143597440Y-119000000D01*
X143548157Y-118752235D01*
X143407809Y-118542191D01*
X143344666Y-118500000D01*
X143407809Y-118457809D01*
X143548157Y-118247765D01*
X143597440Y-118000000D01*
X143597440Y-117500000D01*
X144652560Y-117500000D01*
X144652560Y-118000000D01*
X144701843Y-118247765D01*
X144842191Y-118457809D01*
X144903320Y-118498654D01*
X144761673Y-118640302D01*
X144665000Y-118873691D01*
X144665000Y-118966250D01*
X144823750Y-119125000D01*
X145623000Y-119125000D01*
X145623000Y-119103000D01*
X145877000Y-119103000D01*
X145877000Y-119125000D01*
X146676250Y-119125000D01*
X146835000Y-118966250D01*
X146835000Y-118873691D01*
X146738327Y-118640302D01*
X146596680Y-118498654D01*
X146657809Y-118457809D01*
X146798157Y-118247765D01*
X146847440Y-118000000D01*
X146847440Y-117500000D01*
X146798157Y-117252235D01*
X146657809Y-117042191D01*
X146585000Y-116993541D01*
X146585000Y-115015467D01*
X148370095Y-113230373D01*
X148512002Y-113258600D01*
X150127998Y-113258600D01*
X150565125Y-113171650D01*
X151060830Y-112840430D01*
X151392050Y-112344725D01*
X151508359Y-111760000D01*
X151392050Y-111175275D01*
X151060830Y-110679570D01*
X150565125Y-110348350D01*
X150127998Y-110261400D01*
X148512002Y-110261400D01*
X148074875Y-110348350D01*
X147579170Y-110679570D01*
X147247950Y-111175275D01*
X147131641Y-111760000D01*
X147189227Y-112049505D01*
X145217718Y-114021015D01*
X145148000Y-114067599D01*
X145101416Y-114137317D01*
X144963448Y-114343800D01*
X144898643Y-114669600D01*
X144915001Y-114751838D01*
X144915000Y-116993541D01*
X144842191Y-117042191D01*
X144701843Y-117252235D01*
X144652560Y-117500000D01*
X143597440Y-117500000D01*
X143548157Y-117252235D01*
X143407809Y-117042191D01*
X143335000Y-116993541D01*
X143335000Y-111861832D01*
X143351357Y-111779599D01*
X143335000Y-111697364D01*
X143335000Y-111697363D01*
X143286552Y-111453799D01*
X143179583Y-111293708D01*
X143148584Y-111247315D01*
X143148583Y-111247314D01*
X143102001Y-111177599D01*
X143032286Y-111131017D01*
X138950773Y-107049505D01*
X139008359Y-106760000D01*
X147131641Y-106760000D01*
X147247950Y-107344725D01*
X147579170Y-107840430D01*
X148074875Y-108171650D01*
X148512002Y-108258600D01*
X150127998Y-108258600D01*
X150565125Y-108171650D01*
X151060830Y-107840430D01*
X151392050Y-107344725D01*
X151508359Y-106760000D01*
X151392050Y-106175275D01*
X151060830Y-105679570D01*
X150565125Y-105348350D01*
X150127998Y-105261400D01*
X148512002Y-105261400D01*
X148074875Y-105348350D01*
X147579170Y-105679570D01*
X147247950Y-106175275D01*
X147131641Y-106760000D01*
X139008359Y-106760000D01*
X138892050Y-106175275D01*
X138560830Y-105679570D01*
X138065125Y-105348350D01*
X137627998Y-105261400D01*
X136012002Y-105261400D01*
X135574875Y-105348350D01*
X135079170Y-105679570D01*
X134747950Y-106175275D01*
X134631641Y-106760000D01*
X134747950Y-107344725D01*
X135079170Y-107840430D01*
X135574875Y-108171650D01*
X136012002Y-108258600D01*
X137627998Y-108258600D01*
X137769905Y-108230373D01*
X141665000Y-112125469D01*
X141665001Y-116993541D01*
X141592191Y-117042191D01*
X141451843Y-117252235D01*
X141402560Y-117500000D01*
X141402560Y-118000000D01*
X141451843Y-118247765D01*
X141592191Y-118457809D01*
X141602953Y-118465000D01*
X141578711Y-118465000D01*
X141486280Y-118372569D01*
X141105874Y-118215000D01*
X140694126Y-118215000D01*
X140313720Y-118372569D01*
X140022569Y-118663720D01*
X139865000Y-119044126D01*
X139865000Y-119455874D01*
X140022569Y-119836280D01*
X140313720Y-120127431D01*
X140585486Y-120240000D01*
X140314802Y-120240000D01*
X138090331Y-118015530D01*
X138047929Y-117952071D01*
X137796537Y-117784096D01*
X137574852Y-117740000D01*
X137574847Y-117740000D01*
X137500000Y-117725112D01*
X137425153Y-117740000D01*
X134574848Y-117740000D01*
X134500000Y-117725112D01*
X134425152Y-117740000D01*
X134425148Y-117740000D01*
X134203463Y-117784096D01*
X133952071Y-117952071D01*
X133909671Y-118015527D01*
X133475199Y-118450000D01*
X133144147Y-118450000D01*
X133202047Y-118363346D01*
X133286256Y-117940000D01*
X133202047Y-117516654D01*
X133060624Y-117305000D01*
X133202047Y-117093346D01*
X133286256Y-116670000D01*
X133202047Y-116246654D01*
X133060624Y-116035000D01*
X133202047Y-115823346D01*
X133286256Y-115400000D01*
X133202047Y-114976654D01*
X133060624Y-114765000D01*
X133202047Y-114553346D01*
X133286256Y-114130000D01*
X133202047Y-113706654D01*
X133060624Y-113495000D01*
X133202047Y-113283346D01*
X133286256Y-112860000D01*
X133202047Y-112436654D01*
X133060624Y-112225000D01*
X133202047Y-112013346D01*
X133252440Y-111760000D01*
X134631641Y-111760000D01*
X134747950Y-112344725D01*
X135079170Y-112840430D01*
X135574875Y-113171650D01*
X136012002Y-113258600D01*
X137627998Y-113258600D01*
X138065125Y-113171650D01*
X138560830Y-112840430D01*
X138892050Y-112344725D01*
X139008359Y-111760000D01*
X138892050Y-111175275D01*
X138560830Y-110679570D01*
X138065125Y-110348350D01*
X137627998Y-110261400D01*
X136012002Y-110261400D01*
X135574875Y-110348350D01*
X135079170Y-110679570D01*
X134747950Y-111175275D01*
X134631641Y-111760000D01*
X133252440Y-111760000D01*
X133286256Y-111590000D01*
X133202047Y-111166654D01*
X133060624Y-110955000D01*
X133202047Y-110743346D01*
X133286256Y-110320000D01*
X133202047Y-109896654D01*
X133060624Y-109685000D01*
X133202047Y-109473346D01*
X133286256Y-109050000D01*
X133202047Y-108626654D01*
X133058959Y-108412507D01*
X133224408Y-108074001D01*
X133097502Y-107907000D01*
X131507000Y-107907000D01*
X131507000Y-107927000D01*
X131253000Y-107927000D01*
X131253000Y-107907000D01*
X129662498Y-107907000D01*
X129535592Y-108074001D01*
X129701041Y-108412507D01*
X129557953Y-108626654D01*
X129473744Y-109050000D01*
X129557953Y-109473346D01*
X129699376Y-109685000D01*
X129557953Y-109896654D01*
X129473744Y-110320000D01*
X129557953Y-110743346D01*
X129605831Y-110815000D01*
X129328711Y-110815000D01*
X129236280Y-110722569D01*
X128855874Y-110565000D01*
X128444126Y-110565000D01*
X128063720Y-110722569D01*
X127772569Y-111013720D01*
X127615000Y-111394126D01*
X127615000Y-111805874D01*
X127692163Y-111992163D01*
X127505874Y-111915000D01*
X127094126Y-111915000D01*
X126713720Y-112072569D01*
X126422569Y-112363720D01*
X126265000Y-112744126D01*
X126265000Y-113155874D01*
X126422569Y-113536280D01*
X126713720Y-113827431D01*
X127094126Y-113985000D01*
X127505874Y-113985000D01*
X127886280Y-113827431D01*
X127978711Y-113735000D01*
X129552315Y-113735000D01*
X129473744Y-114130000D01*
X129557953Y-114553346D01*
X129699376Y-114765000D01*
X129557953Y-114976654D01*
X129473744Y-115400000D01*
X129557953Y-115823346D01*
X129699376Y-116035000D01*
X129557953Y-116246654D01*
X129473744Y-116670000D01*
X129557953Y-117093346D01*
X129699376Y-117305000D01*
X129557953Y-117516654D01*
X129473744Y-117940000D01*
X129557953Y-118363346D01*
X129699376Y-118575000D01*
X129557953Y-118786654D01*
X129473744Y-119210000D01*
X129557953Y-119633346D01*
X129699376Y-119845000D01*
X129557953Y-120056654D01*
X129473744Y-120480000D01*
X129557953Y-120903346D01*
X129699376Y-121115000D01*
X129557953Y-121326654D01*
X129473744Y-121750000D01*
X129557953Y-122173346D01*
X129699376Y-122385000D01*
X129557953Y-122596654D01*
X129509636Y-122839559D01*
X129505953Y-122834047D01*
X129246292Y-122660546D01*
X129017316Y-122615000D01*
X129017312Y-122615000D01*
X128940000Y-122599622D01*
X128862688Y-122615000D01*
X127528711Y-122615000D01*
X127436280Y-122522569D01*
X127055874Y-122365000D01*
X126644126Y-122365000D01*
X126263720Y-122522569D01*
X125972569Y-122813720D01*
X125815000Y-123194126D01*
X125815000Y-123605874D01*
X125959263Y-123954157D01*
X125555000Y-123873744D01*
X125131655Y-123957953D01*
X124920001Y-124099376D01*
X124708346Y-123957953D01*
X124285000Y-123873744D01*
X123861655Y-123957953D01*
X123650001Y-124099376D01*
X123438346Y-123957953D01*
X123015000Y-123873744D01*
X122591655Y-123957953D01*
X122380001Y-124099376D01*
X122168346Y-123957953D01*
X121745000Y-123873744D01*
X121321655Y-123957953D01*
X121110001Y-124099376D01*
X120898346Y-123957953D01*
X120475000Y-123873744D01*
X120051655Y-123957953D01*
X119840001Y-124099376D01*
X119628346Y-123957953D01*
X119205000Y-123873744D01*
X118781655Y-123957953D01*
X118570001Y-124099376D01*
X118358346Y-123957953D01*
X117935000Y-123873744D01*
X117511655Y-123957953D01*
X117297508Y-124101042D01*
X116959001Y-123935592D01*
X116792000Y-124062498D01*
X116538000Y-124062498D01*
X116370999Y-123935592D01*
X115987592Y-124122987D01*
X115711192Y-124447456D01*
X115580000Y-124853000D01*
X115108733Y-124853000D01*
X115202047Y-124713346D01*
X115286256Y-124290000D01*
X115202047Y-123866654D01*
X115060624Y-123655000D01*
X115202047Y-123443346D01*
X115286256Y-123020000D01*
X115202047Y-122596654D01*
X115060624Y-122385000D01*
X115202047Y-122173346D01*
X115286256Y-121750000D01*
X115202047Y-121326654D01*
X115060624Y-121115000D01*
X115202047Y-120903346D01*
X115286256Y-120480000D01*
X115202047Y-120056654D01*
X115060624Y-119845000D01*
X115202047Y-119633346D01*
X115286256Y-119210000D01*
X115202047Y-118786654D01*
X115060624Y-118575000D01*
X115202047Y-118363346D01*
X115286256Y-117940000D01*
X115202047Y-117516654D01*
X115060624Y-117305000D01*
X115202047Y-117093346D01*
X115286256Y-116670000D01*
X115202047Y-116246654D01*
X115060624Y-116035000D01*
X115202047Y-115823346D01*
X115213503Y-115765750D01*
X118445000Y-115765750D01*
X118445000Y-118606310D01*
X118541673Y-118839699D01*
X118720302Y-119018327D01*
X118953691Y-119115000D01*
X121794250Y-119115000D01*
X121953000Y-118956250D01*
X121953000Y-115607000D01*
X122207000Y-115607000D01*
X122207000Y-118956250D01*
X122365750Y-119115000D01*
X125206309Y-119115000D01*
X125439698Y-119018327D01*
X125618327Y-118839699D01*
X125715000Y-118606310D01*
X125715000Y-115765750D01*
X125556250Y-115607000D01*
X122207000Y-115607000D01*
X121953000Y-115607000D01*
X118603750Y-115607000D01*
X118445000Y-115765750D01*
X115213503Y-115765750D01*
X115286256Y-115400000D01*
X115202047Y-114976654D01*
X115060624Y-114765000D01*
X115202047Y-114553346D01*
X115286256Y-114130000D01*
X115202047Y-113706654D01*
X115060624Y-113495000D01*
X115202047Y-113283346D01*
X115286256Y-112860000D01*
X115202047Y-112436654D01*
X115146613Y-112353690D01*
X118445000Y-112353690D01*
X118445000Y-115194250D01*
X118603750Y-115353000D01*
X121953000Y-115353000D01*
X121953000Y-112003750D01*
X122207000Y-112003750D01*
X122207000Y-115353000D01*
X125556250Y-115353000D01*
X125715000Y-115194250D01*
X125715000Y-112353690D01*
X125618327Y-112120301D01*
X125439698Y-111941673D01*
X125206309Y-111845000D01*
X122365750Y-111845000D01*
X122207000Y-112003750D01*
X121953000Y-112003750D01*
X121794250Y-111845000D01*
X118953691Y-111845000D01*
X118720302Y-111941673D01*
X118541673Y-112120301D01*
X118445000Y-112353690D01*
X115146613Y-112353690D01*
X115060624Y-112225000D01*
X115202047Y-112013346D01*
X115286256Y-111590000D01*
X115202047Y-111166654D01*
X115060624Y-110955000D01*
X115202047Y-110743346D01*
X115286256Y-110320000D01*
X115202047Y-109896654D01*
X115060624Y-109685000D01*
X115202047Y-109473346D01*
X115286256Y-109050000D01*
X115202047Y-108626654D01*
X115058959Y-108412507D01*
X115224408Y-108074001D01*
X115097502Y-107907000D01*
X113507000Y-107907000D01*
X113507000Y-107927000D01*
X113253000Y-107927000D01*
X113253000Y-107907000D01*
X111662498Y-107907000D01*
X111535592Y-108074001D01*
X111628945Y-108265000D01*
X111098377Y-108265000D01*
X111185000Y-108055874D01*
X111185000Y-107644126D01*
X111119502Y-107485999D01*
X111535592Y-107485999D01*
X111662498Y-107653000D01*
X113253000Y-107653000D01*
X113253000Y-106695000D01*
X113507000Y-106695000D01*
X113507000Y-107653000D01*
X115097502Y-107653000D01*
X115224408Y-107485999D01*
X129535592Y-107485999D01*
X129662498Y-107653000D01*
X131253000Y-107653000D01*
X131253000Y-106695000D01*
X131507000Y-106695000D01*
X131507000Y-107653000D01*
X133097502Y-107653000D01*
X133224408Y-107485999D01*
X133037013Y-107102592D01*
X132712544Y-106826192D01*
X132307000Y-106695000D01*
X131507000Y-106695000D01*
X131253000Y-106695000D01*
X130453000Y-106695000D01*
X130047456Y-106826192D01*
X129722987Y-107102592D01*
X129535592Y-107485999D01*
X115224408Y-107485999D01*
X115037013Y-107102592D01*
X114712544Y-106826192D01*
X114307000Y-106695000D01*
X113507000Y-106695000D01*
X113253000Y-106695000D01*
X112453000Y-106695000D01*
X112047456Y-106826192D01*
X111722987Y-107102592D01*
X111535592Y-107485999D01*
X111119502Y-107485999D01*
X111031283Y-107273019D01*
X111048157Y-107247765D01*
X111097440Y-107000000D01*
X111097440Y-106500000D01*
X111048157Y-106252235D01*
X110907809Y-106042191D01*
X110844666Y-106000000D01*
X110907809Y-105957809D01*
X111048157Y-105747765D01*
X111097440Y-105500000D01*
X111097440Y-105000000D01*
X111048157Y-104752235D01*
X110907809Y-104542191D01*
X110697765Y-104401843D01*
X110569601Y-104376350D01*
X110532282Y-104351415D01*
X110035000Y-103854133D01*
X110035000Y-103794126D01*
X109877431Y-103413720D01*
X109586280Y-103122569D01*
X109205874Y-102965000D01*
X108794126Y-102965000D01*
X108413720Y-103122569D01*
X108122569Y-103413720D01*
X107965000Y-103794126D01*
X107965000Y-104205874D01*
X108122569Y-104586280D01*
X108413720Y-104877431D01*
X108794126Y-105035000D01*
X108854133Y-105035000D01*
X108902560Y-105083427D01*
X108902560Y-105500000D01*
X108951843Y-105747765D01*
X109092191Y-105957809D01*
X109155334Y-106000000D01*
X109092191Y-106042191D01*
X108951843Y-106252235D01*
X108902560Y-106500000D01*
X108902560Y-107000000D01*
X108951843Y-107247765D01*
X109092191Y-107457809D01*
X109170501Y-107510134D01*
X109115000Y-107644126D01*
X109115000Y-108055874D01*
X109214644Y-108296436D01*
X109143708Y-108310546D01*
X108931170Y-108452560D01*
X108625000Y-108452560D01*
X108377235Y-108501843D01*
X108167191Y-108642191D01*
X108118541Y-108715000D01*
X106823277Y-108715000D01*
X106707809Y-108542191D01*
X106497765Y-108401843D01*
X106250000Y-108352560D01*
X103750000Y-108352560D01*
X103502235Y-108401843D01*
X103292191Y-108542191D01*
X103154350Y-108748484D01*
X103093708Y-108760546D01*
X102899591Y-108890251D01*
X102899589Y-108890253D01*
X102834047Y-108934047D01*
X102790253Y-108999590D01*
X102674842Y-109115000D01*
X102544126Y-109115000D01*
X102163720Y-109272569D01*
X101872569Y-109563720D01*
X101715000Y-109944126D01*
X100710000Y-109944126D01*
X100710000Y-104625050D01*
X103115000Y-104625050D01*
X103115000Y-105374950D01*
X103401974Y-106067767D01*
X103932233Y-106598026D01*
X104625050Y-106885000D01*
X105374950Y-106885000D01*
X106067767Y-106598026D01*
X106598026Y-106067767D01*
X106885000Y-105374950D01*
X106885000Y-104625050D01*
X106598026Y-103932233D01*
X106067767Y-103401974D01*
X105374950Y-103115000D01*
X104625050Y-103115000D01*
X103932233Y-103401974D01*
X103401974Y-103932233D01*
X103115000Y-104625050D01*
X100710000Y-104625050D01*
X100710000Y-100710000D01*
X113273000Y-100710000D01*
X113273000Y-106300000D01*
G04 #@! TD*
M02*
