M48
;DRILL file {KiCad 5.0.1} date Tue 13 Nov 2018 22:18:40 GMT
;FORMAT={2:4/ absolute / inch / suppress leading zeros}
FMAT,2
INCH,TZ
T1C0.0157
T2C0.0197
T3C0.0217
T4C0.0315
T5C0.0320
T6C0.0394
T7C0.0472
T8C0.0984
%
G90
G05
M72
T1
X40453Y-43366
X41339Y-43583
X42913Y-40945
X43366Y-42461
X43642Y-43425
X46614Y-54488
X47382Y-55118
X48150Y-53386
X48819Y-54803
X48976Y-53031
X49390Y-54429
X49941Y-48583
X50118Y-44469
X50650Y-43937
X50669Y-56752
X50669Y-57933
X52756Y-48425
X53051Y-47835
X53996Y-57776
X54685Y-52854
X54941Y-48819
X55472Y-46949
T4
X57559Y-51811
X57559Y-52795
X43728Y-53000
X44713Y-53000
X46228Y-53000
X47213Y-53000
T5
X53866Y-42031
X53866Y-44000
X58787Y-42031
X58787Y-44000
T6
X40945Y-47638
X40945Y-48638
X40945Y-49638
X41945Y-47638
X41945Y-48638
X41945Y-49638
X41240Y-52067
X41240Y-53067
X41240Y-54067
T7
X50787Y-54331
X51787Y-54331
X60709Y-50827
X60709Y-51827
X60709Y-52827
T8
X41339Y-57087
X61024Y-57087
X61024Y-41339
X41339Y-41339
T2
X49803Y-58533G85X49803Y-58278
G05
X52559Y-58533G85X52559Y-58278
G05
T3
X50138Y-57343G85X50256Y-57343
G05
X52106Y-57343G85X52224Y-57343
G05
T0
M30
