G04 #@! TF.GenerationSoftware,KiCad,Pcbnew,5.0.1*
G04 #@! TF.CreationDate,2018-11-13T22:18:36+00:00*
G04 #@! TF.ProjectId,ESP32-WS2812-Controller,45535033322D5753323831322D436F6E,rev?*
G04 #@! TF.SameCoordinates,Original*
G04 #@! TF.FileFunction,Legend,Top*
G04 #@! TF.FilePolarity,Positive*
%FSLAX46Y46*%
G04 Gerber Fmt 4.6, Leading zero omitted, Abs format (unit mm)*
G04 Created by KiCad (PCBNEW 5.0.1) date Tue 13 Nov 2018 22:18:36 GMT*
%MOMM*%
%LPD*%
G01*
G04 APERTURE LIST*
%ADD10C,0.200000*%
%ADD11C,0.120000*%
%ADD12C,0.500000*%
%ADD13C,0.150000*%
G04 APERTURE END LIST*
D10*
X128809523Y-130452380D02*
X128333333Y-130452380D01*
X128285714Y-130928571D01*
X128333333Y-130880952D01*
X128428571Y-130833333D01*
X128666666Y-130833333D01*
X128761904Y-130880952D01*
X128809523Y-130928571D01*
X128857142Y-131023809D01*
X128857142Y-131261904D01*
X128809523Y-131357142D01*
X128761904Y-131404761D01*
X128666666Y-131452380D01*
X128428571Y-131452380D01*
X128333333Y-131404761D01*
X128285714Y-131357142D01*
X129142857Y-130452380D02*
X129476190Y-131452380D01*
X129809523Y-130452380D01*
X129000000Y-136500000D02*
X129000000Y-131750000D01*
X134000000Y-139000000D02*
X135500000Y-139000000D01*
X134500000Y-140000000D02*
X135000000Y-140000000D01*
X134250000Y-139500000D02*
X135250000Y-139500000D01*
X134750000Y-138000000D02*
X134750000Y-139000000D01*
X132750000Y-138000000D02*
X134750000Y-138000000D01*
X154000000Y-124500000D02*
X154500000Y-124500000D01*
X153750000Y-125000000D02*
X154750000Y-125000000D01*
X153500000Y-125500000D02*
X155000000Y-125500000D01*
X154250000Y-127750000D02*
X154250000Y-125500000D01*
X103750000Y-116250000D02*
X104250000Y-116250000D01*
X103500000Y-116750000D02*
X104500000Y-116750000D01*
X103250000Y-117250000D02*
X104750000Y-117250000D01*
X104000000Y-120000000D02*
X104000000Y-117250000D01*
X107250000Y-137352380D02*
X107250000Y-136352380D01*
X107583333Y-137066666D01*
X107916666Y-136352380D01*
X107916666Y-137352380D01*
X108392857Y-137352380D02*
X108392857Y-136685714D01*
X108392857Y-136352380D02*
X108345238Y-136400000D01*
X108392857Y-136447619D01*
X108440476Y-136400000D01*
X108392857Y-136352380D01*
X108392857Y-136447619D01*
X109297619Y-137304761D02*
X109202380Y-137352380D01*
X109011904Y-137352380D01*
X108916666Y-137304761D01*
X108869047Y-137257142D01*
X108821428Y-137161904D01*
X108821428Y-136876190D01*
X108869047Y-136780952D01*
X108916666Y-136733333D01*
X109011904Y-136685714D01*
X109202380Y-136685714D01*
X109297619Y-136733333D01*
X106607142Y-139052380D02*
X106607142Y-138052380D01*
X107083333Y-138385714D02*
X107083333Y-139052380D01*
X107083333Y-138480952D02*
X107130952Y-138433333D01*
X107226190Y-138385714D01*
X107369047Y-138385714D01*
X107464285Y-138433333D01*
X107511904Y-138528571D01*
X107511904Y-139052380D01*
X107988095Y-138385714D02*
X107988095Y-139385714D01*
X107988095Y-138433333D02*
X108083333Y-138385714D01*
X108273809Y-138385714D01*
X108369047Y-138433333D01*
X108416666Y-138480952D01*
X108464285Y-138576190D01*
X108464285Y-138861904D01*
X108416666Y-138957142D01*
X108369047Y-139004761D01*
X108273809Y-139052380D01*
X108083333Y-139052380D01*
X107988095Y-139004761D01*
X109321428Y-138385714D02*
X109321428Y-139052380D01*
X108892857Y-138385714D02*
X108892857Y-138909523D01*
X108940476Y-139004761D01*
X109035714Y-139052380D01*
X109178571Y-139052380D01*
X109273809Y-139004761D01*
X109321428Y-138957142D01*
X109654761Y-138385714D02*
X110035714Y-138385714D01*
X109797619Y-138052380D02*
X109797619Y-138909523D01*
X109845238Y-139004761D01*
X109940476Y-139052380D01*
X110035714Y-139052380D01*
X107238095Y-134250000D02*
X107142857Y-134202380D01*
X107000000Y-134202380D01*
X106857142Y-134250000D01*
X106761904Y-134345238D01*
X106714285Y-134440476D01*
X106666666Y-134630952D01*
X106666666Y-134773809D01*
X106714285Y-134964285D01*
X106761904Y-135059523D01*
X106857142Y-135154761D01*
X107000000Y-135202380D01*
X107095238Y-135202380D01*
X107238095Y-135154761D01*
X107285714Y-135107142D01*
X107285714Y-134773809D01*
X107095238Y-134773809D01*
X107714285Y-135202380D02*
X107714285Y-134202380D01*
X108285714Y-135202380D01*
X108285714Y-134202380D01*
X108761904Y-135202380D02*
X108761904Y-134202380D01*
X109000000Y-134202380D01*
X109142857Y-134250000D01*
X109238095Y-134345238D01*
X109285714Y-134440476D01*
X109333333Y-134630952D01*
X109333333Y-134773809D01*
X109285714Y-134964285D01*
X109238095Y-135059523D01*
X109142857Y-135154761D01*
X109000000Y-135202380D01*
X108761904Y-135202380D01*
X106773809Y-131452380D02*
X107392857Y-131452380D01*
X107059523Y-131833333D01*
X107202380Y-131833333D01*
X107297619Y-131880952D01*
X107345238Y-131928571D01*
X107392857Y-132023809D01*
X107392857Y-132261904D01*
X107345238Y-132357142D01*
X107297619Y-132404761D01*
X107202380Y-132452380D01*
X106916666Y-132452380D01*
X106821428Y-132404761D01*
X106773809Y-132357142D01*
X107821428Y-132357142D02*
X107869047Y-132404761D01*
X107821428Y-132452380D01*
X107773809Y-132404761D01*
X107821428Y-132357142D01*
X107821428Y-132452380D01*
X108202380Y-131452380D02*
X108821428Y-131452380D01*
X108488095Y-131833333D01*
X108630952Y-131833333D01*
X108726190Y-131880952D01*
X108773809Y-131928571D01*
X108821428Y-132023809D01*
X108821428Y-132261904D01*
X108773809Y-132357142D01*
X108726190Y-132404761D01*
X108630952Y-132452380D01*
X108345238Y-132452380D01*
X108250000Y-132404761D01*
X108202380Y-132357142D01*
X109107142Y-131452380D02*
X109440476Y-132452380D01*
X109773809Y-131452380D01*
D11*
G04 #@! TO.C,C1*
X145550000Y-135700000D02*
X146850000Y-135700000D01*
X146200000Y-136300000D02*
X146200000Y-135100000D01*
X145846000Y-130289000D02*
X146554000Y-130289000D01*
X145641000Y-130329000D02*
X146759000Y-130329000D01*
X145493000Y-130369000D02*
X146907000Y-130369000D01*
X145371000Y-130409000D02*
X147029000Y-130409000D01*
X145266000Y-130449000D02*
X147134000Y-130449000D01*
X145172000Y-130489000D02*
X147228000Y-130489000D01*
X145088000Y-130529000D02*
X147312000Y-130529000D01*
X145011000Y-130569000D02*
X147389000Y-130569000D01*
X144939000Y-130609000D02*
X147461000Y-130609000D01*
X147180000Y-130649000D02*
X147527000Y-130649000D01*
X144873000Y-130649000D02*
X145220000Y-130649000D01*
X147180000Y-130689000D02*
X147590000Y-130689000D01*
X144810000Y-130689000D02*
X145220000Y-130689000D01*
X147180000Y-130729000D02*
X147648000Y-130729000D01*
X144752000Y-130729000D02*
X145220000Y-130729000D01*
X147180000Y-130769000D02*
X147704000Y-130769000D01*
X144696000Y-130769000D02*
X145220000Y-130769000D01*
X147180000Y-130809000D02*
X147756000Y-130809000D01*
X144644000Y-130809000D02*
X145220000Y-130809000D01*
X147180000Y-130849000D02*
X147806000Y-130849000D01*
X144594000Y-130849000D02*
X145220000Y-130849000D01*
X147180000Y-130889000D02*
X147854000Y-130889000D01*
X144546000Y-130889000D02*
X145220000Y-130889000D01*
X147180000Y-130929000D02*
X147899000Y-130929000D01*
X144501000Y-130929000D02*
X145220000Y-130929000D01*
X147180000Y-130969000D02*
X147942000Y-130969000D01*
X144458000Y-130969000D02*
X145220000Y-130969000D01*
X147180000Y-131009000D02*
X147983000Y-131009000D01*
X144417000Y-131009000D02*
X145220000Y-131009000D01*
X147180000Y-131049000D02*
X148023000Y-131049000D01*
X144377000Y-131049000D02*
X145220000Y-131049000D01*
X147180000Y-131089000D02*
X148061000Y-131089000D01*
X144339000Y-131089000D02*
X145220000Y-131089000D01*
X147180000Y-131129000D02*
X148097000Y-131129000D01*
X144303000Y-131129000D02*
X145220000Y-131129000D01*
X147180000Y-131169000D02*
X148132000Y-131169000D01*
X144268000Y-131169000D02*
X145220000Y-131169000D01*
X147180000Y-131209000D02*
X148165000Y-131209000D01*
X144235000Y-131209000D02*
X145220000Y-131209000D01*
X147180000Y-131249000D02*
X148197000Y-131249000D01*
X144203000Y-131249000D02*
X145220000Y-131249000D01*
X147180000Y-131289000D02*
X148228000Y-131289000D01*
X144172000Y-131289000D02*
X145220000Y-131289000D01*
X147180000Y-131329000D02*
X148258000Y-131329000D01*
X144142000Y-131329000D02*
X145220000Y-131329000D01*
X147180000Y-131369000D02*
X148286000Y-131369000D01*
X144114000Y-131369000D02*
X145220000Y-131369000D01*
X147180000Y-131409000D02*
X148313000Y-131409000D01*
X144087000Y-131409000D02*
X145220000Y-131409000D01*
X147180000Y-131449000D02*
X148340000Y-131449000D01*
X144060000Y-131449000D02*
X145220000Y-131449000D01*
X147180000Y-131489000D02*
X148365000Y-131489000D01*
X144035000Y-131489000D02*
X145220000Y-131489000D01*
X147180000Y-131529000D02*
X148389000Y-131529000D01*
X144011000Y-131529000D02*
X145220000Y-131529000D01*
X147180000Y-131569000D02*
X148412000Y-131569000D01*
X143988000Y-131569000D02*
X145220000Y-131569000D01*
X147180000Y-131609000D02*
X148434000Y-131609000D01*
X143966000Y-131609000D02*
X145220000Y-131609000D01*
X147180000Y-131649000D02*
X148456000Y-131649000D01*
X143944000Y-131649000D02*
X145220000Y-131649000D01*
X147180000Y-131689000D02*
X148476000Y-131689000D01*
X143924000Y-131689000D02*
X145220000Y-131689000D01*
X147180000Y-131729000D02*
X148496000Y-131729000D01*
X143904000Y-131729000D02*
X145220000Y-131729000D01*
X147180000Y-131769000D02*
X148515000Y-131769000D01*
X143885000Y-131769000D02*
X145220000Y-131769000D01*
X147180000Y-131809000D02*
X148533000Y-131809000D01*
X143867000Y-131809000D02*
X145220000Y-131809000D01*
X147180000Y-131849000D02*
X148550000Y-131849000D01*
X143850000Y-131849000D02*
X145220000Y-131849000D01*
X147180000Y-131889000D02*
X148566000Y-131889000D01*
X143834000Y-131889000D02*
X145220000Y-131889000D01*
X147180000Y-131929000D02*
X148582000Y-131929000D01*
X143818000Y-131929000D02*
X145220000Y-131929000D01*
X147180000Y-131969000D02*
X148596000Y-131969000D01*
X143804000Y-131969000D02*
X145220000Y-131969000D01*
X147180000Y-132009000D02*
X148610000Y-132009000D01*
X143790000Y-132009000D02*
X145220000Y-132009000D01*
X147180000Y-132049000D02*
X148624000Y-132049000D01*
X143776000Y-132049000D02*
X145220000Y-132049000D01*
X147180000Y-132089000D02*
X148636000Y-132089000D01*
X143764000Y-132089000D02*
X145220000Y-132089000D01*
X147180000Y-132129000D02*
X148648000Y-132129000D01*
X143752000Y-132129000D02*
X145220000Y-132129000D01*
X147180000Y-132170000D02*
X148660000Y-132170000D01*
X143740000Y-132170000D02*
X145220000Y-132170000D01*
X147180000Y-132210000D02*
X148670000Y-132210000D01*
X143730000Y-132210000D02*
X145220000Y-132210000D01*
X147180000Y-132250000D02*
X148680000Y-132250000D01*
X143720000Y-132250000D02*
X145220000Y-132250000D01*
X147180000Y-132290000D02*
X148689000Y-132290000D01*
X143711000Y-132290000D02*
X145220000Y-132290000D01*
X147180000Y-132330000D02*
X148698000Y-132330000D01*
X143702000Y-132330000D02*
X145220000Y-132330000D01*
X147180000Y-132370000D02*
X148706000Y-132370000D01*
X143694000Y-132370000D02*
X145220000Y-132370000D01*
X147180000Y-132410000D02*
X148713000Y-132410000D01*
X143687000Y-132410000D02*
X145220000Y-132410000D01*
X147180000Y-132450000D02*
X148719000Y-132450000D01*
X143681000Y-132450000D02*
X145220000Y-132450000D01*
X147180000Y-132490000D02*
X148725000Y-132490000D01*
X143675000Y-132490000D02*
X145220000Y-132490000D01*
X147180000Y-132530000D02*
X148731000Y-132530000D01*
X143669000Y-132530000D02*
X145220000Y-132530000D01*
X147180000Y-132570000D02*
X148735000Y-132570000D01*
X143665000Y-132570000D02*
X145220000Y-132570000D01*
X143661000Y-132610000D02*
X148739000Y-132610000D01*
X143657000Y-132650000D02*
X148743000Y-132650000D01*
X143654000Y-132690000D02*
X148746000Y-132690000D01*
X143652000Y-132730000D02*
X148748000Y-132730000D01*
X143651000Y-132770000D02*
X148749000Y-132770000D01*
X143650000Y-132810000D02*
X148750000Y-132810000D01*
X143650000Y-132850000D02*
X148750000Y-132850000D01*
X147379723Y-130544278D02*
G75*
G03X145020000Y-130544420I-1179723J-2305722D01*
G01*
X147379723Y-130544278D02*
G75*
G02X147380000Y-135155580I-1179723J-2305722D01*
G01*
X145020277Y-130544278D02*
G75*
G03X145020000Y-135155580I1179723J-2305722D01*
G01*
G04 #@! TO.C,C2*
X116364278Y-135799723D02*
G75*
G03X120975580Y-135800000I2305722J1179723D01*
G01*
X116364278Y-133440277D02*
G75*
G02X120975580Y-133440000I2305722J-1179723D01*
G01*
X116364278Y-133440277D02*
G75*
G03X116364420Y-135800000I2305722J-1179723D01*
G01*
X118670000Y-137170000D02*
X118670000Y-132070000D01*
X118630000Y-137170000D02*
X118630000Y-132070000D01*
X118590000Y-137169000D02*
X118590000Y-132071000D01*
X118550000Y-137168000D02*
X118550000Y-132072000D01*
X118510000Y-137166000D02*
X118510000Y-132074000D01*
X118470000Y-137163000D02*
X118470000Y-132077000D01*
X118430000Y-137159000D02*
X118430000Y-132081000D01*
X118390000Y-137155000D02*
X118390000Y-135600000D01*
X118390000Y-133640000D02*
X118390000Y-132085000D01*
X118350000Y-137151000D02*
X118350000Y-135600000D01*
X118350000Y-133640000D02*
X118350000Y-132089000D01*
X118310000Y-137145000D02*
X118310000Y-135600000D01*
X118310000Y-133640000D02*
X118310000Y-132095000D01*
X118270000Y-137139000D02*
X118270000Y-135600000D01*
X118270000Y-133640000D02*
X118270000Y-132101000D01*
X118230000Y-137133000D02*
X118230000Y-135600000D01*
X118230000Y-133640000D02*
X118230000Y-132107000D01*
X118190000Y-137126000D02*
X118190000Y-135600000D01*
X118190000Y-133640000D02*
X118190000Y-132114000D01*
X118150000Y-137118000D02*
X118150000Y-135600000D01*
X118150000Y-133640000D02*
X118150000Y-132122000D01*
X118110000Y-137109000D02*
X118110000Y-135600000D01*
X118110000Y-133640000D02*
X118110000Y-132131000D01*
X118070000Y-137100000D02*
X118070000Y-135600000D01*
X118070000Y-133640000D02*
X118070000Y-132140000D01*
X118030000Y-137090000D02*
X118030000Y-135600000D01*
X118030000Y-133640000D02*
X118030000Y-132150000D01*
X117990000Y-137080000D02*
X117990000Y-135600000D01*
X117990000Y-133640000D02*
X117990000Y-132160000D01*
X117949000Y-137068000D02*
X117949000Y-135600000D01*
X117949000Y-133640000D02*
X117949000Y-132172000D01*
X117909000Y-137056000D02*
X117909000Y-135600000D01*
X117909000Y-133640000D02*
X117909000Y-132184000D01*
X117869000Y-137044000D02*
X117869000Y-135600000D01*
X117869000Y-133640000D02*
X117869000Y-132196000D01*
X117829000Y-137030000D02*
X117829000Y-135600000D01*
X117829000Y-133640000D02*
X117829000Y-132210000D01*
X117789000Y-137016000D02*
X117789000Y-135600000D01*
X117789000Y-133640000D02*
X117789000Y-132224000D01*
X117749000Y-137002000D02*
X117749000Y-135600000D01*
X117749000Y-133640000D02*
X117749000Y-132238000D01*
X117709000Y-136986000D02*
X117709000Y-135600000D01*
X117709000Y-133640000D02*
X117709000Y-132254000D01*
X117669000Y-136970000D02*
X117669000Y-135600000D01*
X117669000Y-133640000D02*
X117669000Y-132270000D01*
X117629000Y-136953000D02*
X117629000Y-135600000D01*
X117629000Y-133640000D02*
X117629000Y-132287000D01*
X117589000Y-136935000D02*
X117589000Y-135600000D01*
X117589000Y-133640000D02*
X117589000Y-132305000D01*
X117549000Y-136916000D02*
X117549000Y-135600000D01*
X117549000Y-133640000D02*
X117549000Y-132324000D01*
X117509000Y-136896000D02*
X117509000Y-135600000D01*
X117509000Y-133640000D02*
X117509000Y-132344000D01*
X117469000Y-136876000D02*
X117469000Y-135600000D01*
X117469000Y-133640000D02*
X117469000Y-132364000D01*
X117429000Y-136854000D02*
X117429000Y-135600000D01*
X117429000Y-133640000D02*
X117429000Y-132386000D01*
X117389000Y-136832000D02*
X117389000Y-135600000D01*
X117389000Y-133640000D02*
X117389000Y-132408000D01*
X117349000Y-136809000D02*
X117349000Y-135600000D01*
X117349000Y-133640000D02*
X117349000Y-132431000D01*
X117309000Y-136785000D02*
X117309000Y-135600000D01*
X117309000Y-133640000D02*
X117309000Y-132455000D01*
X117269000Y-136760000D02*
X117269000Y-135600000D01*
X117269000Y-133640000D02*
X117269000Y-132480000D01*
X117229000Y-136733000D02*
X117229000Y-135600000D01*
X117229000Y-133640000D02*
X117229000Y-132507000D01*
X117189000Y-136706000D02*
X117189000Y-135600000D01*
X117189000Y-133640000D02*
X117189000Y-132534000D01*
X117149000Y-136678000D02*
X117149000Y-135600000D01*
X117149000Y-133640000D02*
X117149000Y-132562000D01*
X117109000Y-136648000D02*
X117109000Y-135600000D01*
X117109000Y-133640000D02*
X117109000Y-132592000D01*
X117069000Y-136617000D02*
X117069000Y-135600000D01*
X117069000Y-133640000D02*
X117069000Y-132623000D01*
X117029000Y-136585000D02*
X117029000Y-135600000D01*
X117029000Y-133640000D02*
X117029000Y-132655000D01*
X116989000Y-136552000D02*
X116989000Y-135600000D01*
X116989000Y-133640000D02*
X116989000Y-132688000D01*
X116949000Y-136517000D02*
X116949000Y-135600000D01*
X116949000Y-133640000D02*
X116949000Y-132723000D01*
X116909000Y-136481000D02*
X116909000Y-135600000D01*
X116909000Y-133640000D02*
X116909000Y-132759000D01*
X116869000Y-136443000D02*
X116869000Y-135600000D01*
X116869000Y-133640000D02*
X116869000Y-132797000D01*
X116829000Y-136403000D02*
X116829000Y-135600000D01*
X116829000Y-133640000D02*
X116829000Y-132837000D01*
X116789000Y-136362000D02*
X116789000Y-135600000D01*
X116789000Y-133640000D02*
X116789000Y-132878000D01*
X116749000Y-136319000D02*
X116749000Y-135600000D01*
X116749000Y-133640000D02*
X116749000Y-132921000D01*
X116709000Y-136274000D02*
X116709000Y-135600000D01*
X116709000Y-133640000D02*
X116709000Y-132966000D01*
X116669000Y-136226000D02*
X116669000Y-135600000D01*
X116669000Y-133640000D02*
X116669000Y-133014000D01*
X116629000Y-136176000D02*
X116629000Y-135600000D01*
X116629000Y-133640000D02*
X116629000Y-133064000D01*
X116589000Y-136124000D02*
X116589000Y-135600000D01*
X116589000Y-133640000D02*
X116589000Y-133116000D01*
X116549000Y-136068000D02*
X116549000Y-135600000D01*
X116549000Y-133640000D02*
X116549000Y-133172000D01*
X116509000Y-136010000D02*
X116509000Y-135600000D01*
X116509000Y-133640000D02*
X116509000Y-133230000D01*
X116469000Y-135947000D02*
X116469000Y-135600000D01*
X116469000Y-133640000D02*
X116469000Y-133293000D01*
X116429000Y-135881000D02*
X116429000Y-133359000D01*
X116389000Y-135809000D02*
X116389000Y-133431000D01*
X116349000Y-135732000D02*
X116349000Y-133508000D01*
X116309000Y-135648000D02*
X116309000Y-133592000D01*
X116269000Y-135554000D02*
X116269000Y-133686000D01*
X116229000Y-135449000D02*
X116229000Y-133791000D01*
X116189000Y-135327000D02*
X116189000Y-133913000D01*
X116149000Y-135179000D02*
X116149000Y-134061000D01*
X116109000Y-134974000D02*
X116109000Y-134266000D01*
X122120000Y-134620000D02*
X120920000Y-134620000D01*
X121520000Y-135270000D02*
X121520000Y-133970000D01*
G04 #@! TO.C,C3*
X115170000Y-135270000D02*
X115170000Y-133970000D01*
X115770000Y-134620000D02*
X114570000Y-134620000D01*
X109759000Y-134974000D02*
X109759000Y-134266000D01*
X109799000Y-135179000D02*
X109799000Y-134061000D01*
X109839000Y-135327000D02*
X109839000Y-133913000D01*
X109879000Y-135449000D02*
X109879000Y-133791000D01*
X109919000Y-135554000D02*
X109919000Y-133686000D01*
X109959000Y-135648000D02*
X109959000Y-133592000D01*
X109999000Y-135732000D02*
X109999000Y-133508000D01*
X110039000Y-135809000D02*
X110039000Y-133431000D01*
X110079000Y-135881000D02*
X110079000Y-133359000D01*
X110119000Y-133640000D02*
X110119000Y-133293000D01*
X110119000Y-135947000D02*
X110119000Y-135600000D01*
X110159000Y-133640000D02*
X110159000Y-133230000D01*
X110159000Y-136010000D02*
X110159000Y-135600000D01*
X110199000Y-133640000D02*
X110199000Y-133172000D01*
X110199000Y-136068000D02*
X110199000Y-135600000D01*
X110239000Y-133640000D02*
X110239000Y-133116000D01*
X110239000Y-136124000D02*
X110239000Y-135600000D01*
X110279000Y-133640000D02*
X110279000Y-133064000D01*
X110279000Y-136176000D02*
X110279000Y-135600000D01*
X110319000Y-133640000D02*
X110319000Y-133014000D01*
X110319000Y-136226000D02*
X110319000Y-135600000D01*
X110359000Y-133640000D02*
X110359000Y-132966000D01*
X110359000Y-136274000D02*
X110359000Y-135600000D01*
X110399000Y-133640000D02*
X110399000Y-132921000D01*
X110399000Y-136319000D02*
X110399000Y-135600000D01*
X110439000Y-133640000D02*
X110439000Y-132878000D01*
X110439000Y-136362000D02*
X110439000Y-135600000D01*
X110479000Y-133640000D02*
X110479000Y-132837000D01*
X110479000Y-136403000D02*
X110479000Y-135600000D01*
X110519000Y-133640000D02*
X110519000Y-132797000D01*
X110519000Y-136443000D02*
X110519000Y-135600000D01*
X110559000Y-133640000D02*
X110559000Y-132759000D01*
X110559000Y-136481000D02*
X110559000Y-135600000D01*
X110599000Y-133640000D02*
X110599000Y-132723000D01*
X110599000Y-136517000D02*
X110599000Y-135600000D01*
X110639000Y-133640000D02*
X110639000Y-132688000D01*
X110639000Y-136552000D02*
X110639000Y-135600000D01*
X110679000Y-133640000D02*
X110679000Y-132655000D01*
X110679000Y-136585000D02*
X110679000Y-135600000D01*
X110719000Y-133640000D02*
X110719000Y-132623000D01*
X110719000Y-136617000D02*
X110719000Y-135600000D01*
X110759000Y-133640000D02*
X110759000Y-132592000D01*
X110759000Y-136648000D02*
X110759000Y-135600000D01*
X110799000Y-133640000D02*
X110799000Y-132562000D01*
X110799000Y-136678000D02*
X110799000Y-135600000D01*
X110839000Y-133640000D02*
X110839000Y-132534000D01*
X110839000Y-136706000D02*
X110839000Y-135600000D01*
X110879000Y-133640000D02*
X110879000Y-132507000D01*
X110879000Y-136733000D02*
X110879000Y-135600000D01*
X110919000Y-133640000D02*
X110919000Y-132480000D01*
X110919000Y-136760000D02*
X110919000Y-135600000D01*
X110959000Y-133640000D02*
X110959000Y-132455000D01*
X110959000Y-136785000D02*
X110959000Y-135600000D01*
X110999000Y-133640000D02*
X110999000Y-132431000D01*
X110999000Y-136809000D02*
X110999000Y-135600000D01*
X111039000Y-133640000D02*
X111039000Y-132408000D01*
X111039000Y-136832000D02*
X111039000Y-135600000D01*
X111079000Y-133640000D02*
X111079000Y-132386000D01*
X111079000Y-136854000D02*
X111079000Y-135600000D01*
X111119000Y-133640000D02*
X111119000Y-132364000D01*
X111119000Y-136876000D02*
X111119000Y-135600000D01*
X111159000Y-133640000D02*
X111159000Y-132344000D01*
X111159000Y-136896000D02*
X111159000Y-135600000D01*
X111199000Y-133640000D02*
X111199000Y-132324000D01*
X111199000Y-136916000D02*
X111199000Y-135600000D01*
X111239000Y-133640000D02*
X111239000Y-132305000D01*
X111239000Y-136935000D02*
X111239000Y-135600000D01*
X111279000Y-133640000D02*
X111279000Y-132287000D01*
X111279000Y-136953000D02*
X111279000Y-135600000D01*
X111319000Y-133640000D02*
X111319000Y-132270000D01*
X111319000Y-136970000D02*
X111319000Y-135600000D01*
X111359000Y-133640000D02*
X111359000Y-132254000D01*
X111359000Y-136986000D02*
X111359000Y-135600000D01*
X111399000Y-133640000D02*
X111399000Y-132238000D01*
X111399000Y-137002000D02*
X111399000Y-135600000D01*
X111439000Y-133640000D02*
X111439000Y-132224000D01*
X111439000Y-137016000D02*
X111439000Y-135600000D01*
X111479000Y-133640000D02*
X111479000Y-132210000D01*
X111479000Y-137030000D02*
X111479000Y-135600000D01*
X111519000Y-133640000D02*
X111519000Y-132196000D01*
X111519000Y-137044000D02*
X111519000Y-135600000D01*
X111559000Y-133640000D02*
X111559000Y-132184000D01*
X111559000Y-137056000D02*
X111559000Y-135600000D01*
X111599000Y-133640000D02*
X111599000Y-132172000D01*
X111599000Y-137068000D02*
X111599000Y-135600000D01*
X111640000Y-133640000D02*
X111640000Y-132160000D01*
X111640000Y-137080000D02*
X111640000Y-135600000D01*
X111680000Y-133640000D02*
X111680000Y-132150000D01*
X111680000Y-137090000D02*
X111680000Y-135600000D01*
X111720000Y-133640000D02*
X111720000Y-132140000D01*
X111720000Y-137100000D02*
X111720000Y-135600000D01*
X111760000Y-133640000D02*
X111760000Y-132131000D01*
X111760000Y-137109000D02*
X111760000Y-135600000D01*
X111800000Y-133640000D02*
X111800000Y-132122000D01*
X111800000Y-137118000D02*
X111800000Y-135600000D01*
X111840000Y-133640000D02*
X111840000Y-132114000D01*
X111840000Y-137126000D02*
X111840000Y-135600000D01*
X111880000Y-133640000D02*
X111880000Y-132107000D01*
X111880000Y-137133000D02*
X111880000Y-135600000D01*
X111920000Y-133640000D02*
X111920000Y-132101000D01*
X111920000Y-137139000D02*
X111920000Y-135600000D01*
X111960000Y-133640000D02*
X111960000Y-132095000D01*
X111960000Y-137145000D02*
X111960000Y-135600000D01*
X112000000Y-133640000D02*
X112000000Y-132089000D01*
X112000000Y-137151000D02*
X112000000Y-135600000D01*
X112040000Y-133640000D02*
X112040000Y-132085000D01*
X112040000Y-137155000D02*
X112040000Y-135600000D01*
X112080000Y-137159000D02*
X112080000Y-132081000D01*
X112120000Y-137163000D02*
X112120000Y-132077000D01*
X112160000Y-137166000D02*
X112160000Y-132074000D01*
X112200000Y-137168000D02*
X112200000Y-132072000D01*
X112240000Y-137169000D02*
X112240000Y-132071000D01*
X112280000Y-137170000D02*
X112280000Y-132070000D01*
X112320000Y-137170000D02*
X112320000Y-132070000D01*
X110014278Y-133440277D02*
G75*
G03X110014420Y-135800000I2305722J-1179723D01*
G01*
X110014278Y-133440277D02*
G75*
G02X114625580Y-133440000I2305722J-1179723D01*
G01*
X110014278Y-135799723D02*
G75*
G03X114625580Y-135800000I2305722J1179723D01*
G01*
G04 #@! TO.C,C4*
X103520000Y-110000000D02*
X103520000Y-112000000D01*
X106480000Y-112000000D02*
X106480000Y-110000000D01*
G04 #@! TO.C,C5*
X109600000Y-109900000D02*
X109600000Y-110600000D01*
X108400000Y-110600000D02*
X108400000Y-109900000D01*
G04 #@! TO.C,D1*
X141800000Y-142700000D02*
X139000000Y-142700000D01*
X141800000Y-141300000D02*
X139000000Y-141300000D01*
X141800000Y-142700000D02*
X141800000Y-141300000D01*
G04 #@! TO.C,D2*
X141800000Y-147450000D02*
X139000000Y-147450000D01*
X141800000Y-146050000D02*
X139000000Y-146050000D01*
X141800000Y-147450000D02*
X141800000Y-146050000D01*
G04 #@! TO.C,D3*
X153550000Y-119700000D02*
X153550000Y-118300000D01*
X153550000Y-118300000D02*
X150750000Y-118300000D01*
X153550000Y-119700000D02*
X150750000Y-119700000D01*
G04 #@! TO.C,FB1*
X124880000Y-136400000D02*
X124880000Y-137600000D01*
X123120000Y-137600000D02*
X123120000Y-136400000D01*
G04 #@! TO.C,J1*
X125650000Y-151030000D02*
X125650000Y-144620000D01*
X134350000Y-149800000D02*
X125650000Y-149800000D01*
X134350000Y-144620000D02*
X134350000Y-151030000D01*
X125650000Y-144620000D02*
X134350000Y-144620000D01*
X125650000Y-151030000D02*
X134350000Y-151030000D01*
G04 #@! TO.C,J2*
X132340000Y-135600000D02*
X132340000Y-134980000D01*
X130740000Y-135600000D02*
X132340000Y-135600000D01*
X130740000Y-134980000D02*
X130740000Y-135600000D01*
X129800000Y-135600000D02*
X129800000Y-134980000D01*
X128200000Y-135600000D02*
X129800000Y-135600000D01*
X128200000Y-134980000D02*
X128200000Y-135600000D01*
X131290000Y-140980000D02*
X131290000Y-139980000D01*
X129250000Y-140980000D02*
X129250000Y-139980000D01*
X131290000Y-139550000D02*
X131540000Y-139980000D01*
X129250000Y-139550000D02*
X131290000Y-139550000D01*
X129000000Y-139980000D02*
X129250000Y-139550000D01*
X131540000Y-139980000D02*
X131540000Y-140980000D01*
X129000000Y-139980000D02*
X131540000Y-139980000D01*
X129000000Y-140980000D02*
X129000000Y-139980000D01*
X132910000Y-134980000D02*
X127630000Y-134980000D01*
X132910000Y-140980000D02*
X132910000Y-134980000D01*
X127630000Y-140980000D02*
X132910000Y-140980000D01*
X127630000Y-134980000D02*
X127630000Y-140980000D01*
G04 #@! TO.C,J4*
X156600000Y-134980000D02*
X157220000Y-134980000D01*
X156600000Y-133380000D02*
X156600000Y-134980000D01*
X157220000Y-133380000D02*
X156600000Y-133380000D01*
X156600000Y-132440000D02*
X157220000Y-132440000D01*
X156600000Y-130840000D02*
X156600000Y-132440000D01*
X157220000Y-130840000D02*
X156600000Y-130840000D01*
X156600000Y-129900000D02*
X157220000Y-129900000D01*
X156600000Y-128300000D02*
X156600000Y-129900000D01*
X157220000Y-128300000D02*
X156600000Y-128300000D01*
X151220000Y-133930000D02*
X152220000Y-133930000D01*
X151220000Y-129350000D02*
X152220000Y-129350000D01*
X152650000Y-133930000D02*
X152220000Y-134180000D01*
X152650000Y-129350000D02*
X152650000Y-133930000D01*
X152220000Y-129100000D02*
X152650000Y-129350000D01*
X152220000Y-134180000D02*
X151220000Y-134180000D01*
X152220000Y-129100000D02*
X152220000Y-134180000D01*
X151220000Y-129100000D02*
X152220000Y-129100000D01*
X157220000Y-135550000D02*
X157220000Y-127730000D01*
X151220000Y-135550000D02*
X157220000Y-135550000D01*
X151220000Y-127730000D02*
X151220000Y-135550000D01*
X157220000Y-127730000D02*
X151220000Y-127730000D01*
G04 #@! TO.C,Q1*
X138010000Y-127080000D02*
X136550000Y-127080000D01*
X138010000Y-123920000D02*
X135850000Y-123920000D01*
X138010000Y-123920000D02*
X138010000Y-124850000D01*
X138010000Y-127080000D02*
X138010000Y-126150000D01*
G04 #@! TO.C,R1*
X145600000Y-142880000D02*
X144400000Y-142880000D01*
X144400000Y-141120000D02*
X145600000Y-141120000D01*
G04 #@! TO.C,R2*
X144400000Y-145870000D02*
X145600000Y-145870000D01*
X145600000Y-147630000D02*
X144400000Y-147630000D01*
G04 #@! TO.C,R3*
X155900000Y-118120000D02*
X157100000Y-118120000D01*
X157100000Y-119880000D02*
X155900000Y-119880000D01*
G04 #@! TO.C,R4*
X136930000Y-120250000D02*
X136930000Y-121250000D01*
X135570000Y-121250000D02*
X135570000Y-120250000D01*
G04 #@! TO.C,R5*
X146430000Y-118000000D02*
X146430000Y-119000000D01*
X145070000Y-119000000D02*
X145070000Y-118000000D01*
G04 #@! TO.C,R6*
X141680000Y-124250000D02*
X141680000Y-125250000D01*
X140320000Y-125250000D02*
X140320000Y-124250000D01*
G04 #@! TO.C,R7*
X143180000Y-118000000D02*
X143180000Y-119000000D01*
X141820000Y-119000000D02*
X141820000Y-118000000D01*
G04 #@! TO.C,R8*
X110680000Y-105500000D02*
X110680000Y-106500000D01*
X109320000Y-106500000D02*
X109320000Y-105500000D01*
G04 #@! TO.C,SW1*
X136920000Y-115410000D02*
X136920000Y-112690000D01*
X136920000Y-105830000D02*
X136920000Y-103110000D01*
X149220000Y-107690000D02*
X149220000Y-110830000D01*
X149220000Y-103110000D02*
X149220000Y-105830000D01*
X147549050Y-109220000D02*
G75*
G03X147549050Y-109220000I-4579050J0D01*
G01*
X149220000Y-112690000D02*
X149220000Y-115410000D01*
X136920000Y-103110000D02*
X149220000Y-103110000D01*
X136920000Y-110830000D02*
X136920000Y-107690000D01*
X149220000Y-115410000D02*
X136920000Y-115410000D01*
G04 #@! TO.C,U1*
X119520000Y-139410000D02*
X119520000Y-145420000D01*
X112700000Y-141660000D02*
X112700000Y-145420000D01*
X119520000Y-145420000D02*
X118260000Y-145420000D01*
X112700000Y-145420000D02*
X113960000Y-145420000D01*
D12*
G04 #@! TO.C,U2*
X112757981Y-106426000D02*
G75*
G03X112757981Y-106426000I-283981J0D01*
G01*
D13*
X131380000Y-106280000D02*
X113380000Y-106280000D01*
X113380000Y-100280000D02*
X113380000Y-125780000D01*
X131380000Y-100280000D02*
X131380000Y-125780000D01*
X131380000Y-125780000D02*
X113380000Y-125780000D01*
X131380000Y-100280000D02*
X113380000Y-100280000D01*
D11*
G04 #@! TO.C,J3*
X102670000Y-119670000D02*
X104000000Y-119670000D01*
X102670000Y-121000000D02*
X102670000Y-119670000D01*
X105270000Y-119670000D02*
X107870000Y-119670000D01*
X105270000Y-122270000D02*
X105270000Y-119670000D01*
X102670000Y-122270000D02*
X105270000Y-122270000D01*
X107870000Y-119670000D02*
X107870000Y-127410000D01*
X102670000Y-122270000D02*
X102670000Y-127410000D01*
X102670000Y-127410000D02*
X107870000Y-127410000D01*
G04 #@! TO.C,J5*
X103420000Y-130920000D02*
X104750000Y-130920000D01*
X103420000Y-132250000D02*
X103420000Y-130920000D01*
X103420000Y-133520000D02*
X106080000Y-133520000D01*
X106080000Y-133520000D02*
X106080000Y-138660000D01*
X103420000Y-133520000D02*
X103420000Y-138660000D01*
X103420000Y-138660000D02*
X106080000Y-138660000D01*
G04 #@! TO.C,C1*
D13*
X146033333Y-137457142D02*
X145985714Y-137504761D01*
X145842857Y-137552380D01*
X145747619Y-137552380D01*
X145604761Y-137504761D01*
X145509523Y-137409523D01*
X145461904Y-137314285D01*
X145414285Y-137123809D01*
X145414285Y-136980952D01*
X145461904Y-136790476D01*
X145509523Y-136695238D01*
X145604761Y-136600000D01*
X145747619Y-136552380D01*
X145842857Y-136552380D01*
X145985714Y-136600000D01*
X146033333Y-136647619D01*
X146985714Y-137552380D02*
X146414285Y-137552380D01*
X146700000Y-137552380D02*
X146700000Y-136552380D01*
X146604761Y-136695238D01*
X146509523Y-136790476D01*
X146414285Y-136838095D01*
G04 #@! TO.C,C2*
X118483333Y-131167142D02*
X118435714Y-131214761D01*
X118292857Y-131262380D01*
X118197619Y-131262380D01*
X118054761Y-131214761D01*
X117959523Y-131119523D01*
X117911904Y-131024285D01*
X117864285Y-130833809D01*
X117864285Y-130690952D01*
X117911904Y-130500476D01*
X117959523Y-130405238D01*
X118054761Y-130310000D01*
X118197619Y-130262380D01*
X118292857Y-130262380D01*
X118435714Y-130310000D01*
X118483333Y-130357619D01*
X118864285Y-130357619D02*
X118911904Y-130310000D01*
X119007142Y-130262380D01*
X119245238Y-130262380D01*
X119340476Y-130310000D01*
X119388095Y-130357619D01*
X119435714Y-130452857D01*
X119435714Y-130548095D01*
X119388095Y-130690952D01*
X118816666Y-131262380D01*
X119435714Y-131262380D01*
G04 #@! TO.C,C3*
X112153333Y-138787142D02*
X112105714Y-138834761D01*
X111962857Y-138882380D01*
X111867619Y-138882380D01*
X111724761Y-138834761D01*
X111629523Y-138739523D01*
X111581904Y-138644285D01*
X111534285Y-138453809D01*
X111534285Y-138310952D01*
X111581904Y-138120476D01*
X111629523Y-138025238D01*
X111724761Y-137930000D01*
X111867619Y-137882380D01*
X111962857Y-137882380D01*
X112105714Y-137930000D01*
X112153333Y-137977619D01*
X112486666Y-137882380D02*
X113105714Y-137882380D01*
X112772380Y-138263333D01*
X112915238Y-138263333D01*
X113010476Y-138310952D01*
X113058095Y-138358571D01*
X113105714Y-138453809D01*
X113105714Y-138691904D01*
X113058095Y-138787142D01*
X113010476Y-138834761D01*
X112915238Y-138882380D01*
X112629523Y-138882380D01*
X112534285Y-138834761D01*
X112486666Y-138787142D01*
G04 #@! TO.C,C4*
X104833333Y-114357142D02*
X104785714Y-114404761D01*
X104642857Y-114452380D01*
X104547619Y-114452380D01*
X104404761Y-114404761D01*
X104309523Y-114309523D01*
X104261904Y-114214285D01*
X104214285Y-114023809D01*
X104214285Y-113880952D01*
X104261904Y-113690476D01*
X104309523Y-113595238D01*
X104404761Y-113500000D01*
X104547619Y-113452380D01*
X104642857Y-113452380D01*
X104785714Y-113500000D01*
X104833333Y-113547619D01*
X105690476Y-113785714D02*
X105690476Y-114452380D01*
X105452380Y-113404761D02*
X105214285Y-114119047D01*
X105833333Y-114119047D01*
G04 #@! TO.C,C5*
X108833333Y-113357142D02*
X108785714Y-113404761D01*
X108642857Y-113452380D01*
X108547619Y-113452380D01*
X108404761Y-113404761D01*
X108309523Y-113309523D01*
X108261904Y-113214285D01*
X108214285Y-113023809D01*
X108214285Y-112880952D01*
X108261904Y-112690476D01*
X108309523Y-112595238D01*
X108404761Y-112500000D01*
X108547619Y-112452380D01*
X108642857Y-112452380D01*
X108785714Y-112500000D01*
X108833333Y-112547619D01*
X109738095Y-112452380D02*
X109261904Y-112452380D01*
X109214285Y-112928571D01*
X109261904Y-112880952D01*
X109357142Y-112833333D01*
X109595238Y-112833333D01*
X109690476Y-112880952D01*
X109738095Y-112928571D01*
X109785714Y-113023809D01*
X109785714Y-113261904D01*
X109738095Y-113357142D01*
X109690476Y-113404761D01*
X109595238Y-113452380D01*
X109357142Y-113452380D01*
X109261904Y-113404761D01*
X109214285Y-113357142D01*
G04 #@! TO.C,D1*
X139261904Y-143952380D02*
X139261904Y-142952380D01*
X139500000Y-142952380D01*
X139642857Y-143000000D01*
X139738095Y-143095238D01*
X139785714Y-143190476D01*
X139833333Y-143380952D01*
X139833333Y-143523809D01*
X139785714Y-143714285D01*
X139738095Y-143809523D01*
X139642857Y-143904761D01*
X139500000Y-143952380D01*
X139261904Y-143952380D01*
X140785714Y-143952380D02*
X140214285Y-143952380D01*
X140500000Y-143952380D02*
X140500000Y-142952380D01*
X140404761Y-143095238D01*
X140309523Y-143190476D01*
X140214285Y-143238095D01*
G04 #@! TO.C,D2*
X139261904Y-148952380D02*
X139261904Y-147952380D01*
X139500000Y-147952380D01*
X139642857Y-148000000D01*
X139738095Y-148095238D01*
X139785714Y-148190476D01*
X139833333Y-148380952D01*
X139833333Y-148523809D01*
X139785714Y-148714285D01*
X139738095Y-148809523D01*
X139642857Y-148904761D01*
X139500000Y-148952380D01*
X139261904Y-148952380D01*
X140214285Y-148047619D02*
X140261904Y-148000000D01*
X140357142Y-147952380D01*
X140595238Y-147952380D01*
X140690476Y-148000000D01*
X140738095Y-148047619D01*
X140785714Y-148142857D01*
X140785714Y-148238095D01*
X140738095Y-148380952D01*
X140166666Y-148952380D01*
X140785714Y-148952380D01*
G04 #@! TO.C,D3*
X151011904Y-120902380D02*
X151011904Y-119902380D01*
X151250000Y-119902380D01*
X151392857Y-119950000D01*
X151488095Y-120045238D01*
X151535714Y-120140476D01*
X151583333Y-120330952D01*
X151583333Y-120473809D01*
X151535714Y-120664285D01*
X151488095Y-120759523D01*
X151392857Y-120854761D01*
X151250000Y-120902380D01*
X151011904Y-120902380D01*
X151916666Y-119902380D02*
X152535714Y-119902380D01*
X152202380Y-120283333D01*
X152345238Y-120283333D01*
X152440476Y-120330952D01*
X152488095Y-120378571D01*
X152535714Y-120473809D01*
X152535714Y-120711904D01*
X152488095Y-120807142D01*
X152440476Y-120854761D01*
X152345238Y-120902380D01*
X152059523Y-120902380D01*
X151964285Y-120854761D01*
X151916666Y-120807142D01*
G04 #@! TO.C,FB1*
X123166666Y-134528571D02*
X122833333Y-134528571D01*
X122833333Y-135052380D02*
X122833333Y-134052380D01*
X123309523Y-134052380D01*
X124023809Y-134528571D02*
X124166666Y-134576190D01*
X124214285Y-134623809D01*
X124261904Y-134719047D01*
X124261904Y-134861904D01*
X124214285Y-134957142D01*
X124166666Y-135004761D01*
X124071428Y-135052380D01*
X123690476Y-135052380D01*
X123690476Y-134052380D01*
X124023809Y-134052380D01*
X124119047Y-134100000D01*
X124166666Y-134147619D01*
X124214285Y-134242857D01*
X124214285Y-134338095D01*
X124166666Y-134433333D01*
X124119047Y-134480952D01*
X124023809Y-134528571D01*
X123690476Y-134528571D01*
X125214285Y-135052380D02*
X124642857Y-135052380D01*
X124928571Y-135052380D02*
X124928571Y-134052380D01*
X124833333Y-134195238D01*
X124738095Y-134290476D01*
X124642857Y-134338095D01*
G04 #@! TO.C,J1*
X129666666Y-143212380D02*
X129666666Y-143926666D01*
X129619047Y-144069523D01*
X129523809Y-144164761D01*
X129380952Y-144212380D01*
X129285714Y-144212380D01*
X130666666Y-144212380D02*
X130095238Y-144212380D01*
X130380952Y-144212380D02*
X130380952Y-143212380D01*
X130285714Y-143355238D01*
X130190476Y-143450476D01*
X130095238Y-143498095D01*
G04 #@! TO.C,J2*
X129666666Y-132952380D02*
X129666666Y-133666666D01*
X129619047Y-133809523D01*
X129523809Y-133904761D01*
X129380952Y-133952380D01*
X129285714Y-133952380D01*
X130095238Y-133047619D02*
X130142857Y-133000000D01*
X130238095Y-132952380D01*
X130476190Y-132952380D01*
X130571428Y-133000000D01*
X130619047Y-133047619D01*
X130666666Y-133142857D01*
X130666666Y-133238095D01*
X130619047Y-133380952D01*
X130047619Y-133952380D01*
X130666666Y-133952380D01*
G04 #@! TO.C,J4*
X153866666Y-136552380D02*
X153866666Y-137266666D01*
X153819047Y-137409523D01*
X153723809Y-137504761D01*
X153580952Y-137552380D01*
X153485714Y-137552380D01*
X154771428Y-136885714D02*
X154771428Y-137552380D01*
X154533333Y-136504761D02*
X154295238Y-137219047D01*
X154914285Y-137219047D01*
G04 #@! TO.C,Q1*
X137154761Y-123547619D02*
X137059523Y-123500000D01*
X136964285Y-123404761D01*
X136821428Y-123261904D01*
X136726190Y-123214285D01*
X136630952Y-123214285D01*
X136678571Y-123452380D02*
X136583333Y-123404761D01*
X136488095Y-123309523D01*
X136440476Y-123119047D01*
X136440476Y-122785714D01*
X136488095Y-122595238D01*
X136583333Y-122500000D01*
X136678571Y-122452380D01*
X136869047Y-122452380D01*
X136964285Y-122500000D01*
X137059523Y-122595238D01*
X137107142Y-122785714D01*
X137107142Y-123119047D01*
X137059523Y-123309523D01*
X136964285Y-123404761D01*
X136869047Y-123452380D01*
X136678571Y-123452380D01*
X138059523Y-123452380D02*
X137488095Y-123452380D01*
X137773809Y-123452380D02*
X137773809Y-122452380D01*
X137678571Y-122595238D01*
X137583333Y-122690476D01*
X137488095Y-122738095D01*
G04 #@! TO.C,R1*
X144833333Y-144202380D02*
X144500000Y-143726190D01*
X144261904Y-144202380D02*
X144261904Y-143202380D01*
X144642857Y-143202380D01*
X144738095Y-143250000D01*
X144785714Y-143297619D01*
X144833333Y-143392857D01*
X144833333Y-143535714D01*
X144785714Y-143630952D01*
X144738095Y-143678571D01*
X144642857Y-143726190D01*
X144261904Y-143726190D01*
X145785714Y-144202380D02*
X145214285Y-144202380D01*
X145500000Y-144202380D02*
X145500000Y-143202380D01*
X145404761Y-143345238D01*
X145309523Y-143440476D01*
X145214285Y-143488095D01*
G04 #@! TO.C,R2*
X144833333Y-148952380D02*
X144500000Y-148476190D01*
X144261904Y-148952380D02*
X144261904Y-147952380D01*
X144642857Y-147952380D01*
X144738095Y-148000000D01*
X144785714Y-148047619D01*
X144833333Y-148142857D01*
X144833333Y-148285714D01*
X144785714Y-148380952D01*
X144738095Y-148428571D01*
X144642857Y-148476190D01*
X144261904Y-148476190D01*
X145214285Y-148047619D02*
X145261904Y-148000000D01*
X145357142Y-147952380D01*
X145595238Y-147952380D01*
X145690476Y-148000000D01*
X145738095Y-148047619D01*
X145785714Y-148142857D01*
X145785714Y-148238095D01*
X145738095Y-148380952D01*
X145166666Y-148952380D01*
X145785714Y-148952380D01*
G04 #@! TO.C,R3*
X156333333Y-121202380D02*
X156000000Y-120726190D01*
X155761904Y-121202380D02*
X155761904Y-120202380D01*
X156142857Y-120202380D01*
X156238095Y-120250000D01*
X156285714Y-120297619D01*
X156333333Y-120392857D01*
X156333333Y-120535714D01*
X156285714Y-120630952D01*
X156238095Y-120678571D01*
X156142857Y-120726190D01*
X155761904Y-120726190D01*
X156666666Y-120202380D02*
X157285714Y-120202380D01*
X156952380Y-120583333D01*
X157095238Y-120583333D01*
X157190476Y-120630952D01*
X157238095Y-120678571D01*
X157285714Y-120773809D01*
X157285714Y-121011904D01*
X157238095Y-121107142D01*
X157190476Y-121154761D01*
X157095238Y-121202380D01*
X156809523Y-121202380D01*
X156714285Y-121154761D01*
X156666666Y-121107142D01*
G04 #@! TO.C,R4*
X136083333Y-119202380D02*
X135750000Y-118726190D01*
X135511904Y-119202380D02*
X135511904Y-118202380D01*
X135892857Y-118202380D01*
X135988095Y-118250000D01*
X136035714Y-118297619D01*
X136083333Y-118392857D01*
X136083333Y-118535714D01*
X136035714Y-118630952D01*
X135988095Y-118678571D01*
X135892857Y-118726190D01*
X135511904Y-118726190D01*
X136940476Y-118535714D02*
X136940476Y-119202380D01*
X136702380Y-118154761D02*
X136464285Y-118869047D01*
X137083333Y-118869047D01*
G04 #@! TO.C,R5*
X145583333Y-116952380D02*
X145250000Y-116476190D01*
X145011904Y-116952380D02*
X145011904Y-115952380D01*
X145392857Y-115952380D01*
X145488095Y-116000000D01*
X145535714Y-116047619D01*
X145583333Y-116142857D01*
X145583333Y-116285714D01*
X145535714Y-116380952D01*
X145488095Y-116428571D01*
X145392857Y-116476190D01*
X145011904Y-116476190D01*
X146488095Y-115952380D02*
X146011904Y-115952380D01*
X145964285Y-116428571D01*
X146011904Y-116380952D01*
X146107142Y-116333333D01*
X146345238Y-116333333D01*
X146440476Y-116380952D01*
X146488095Y-116428571D01*
X146535714Y-116523809D01*
X146535714Y-116761904D01*
X146488095Y-116857142D01*
X146440476Y-116904761D01*
X146345238Y-116952380D01*
X146107142Y-116952380D01*
X146011904Y-116904761D01*
X145964285Y-116857142D01*
G04 #@! TO.C,R6*
X140833333Y-123202380D02*
X140500000Y-122726190D01*
X140261904Y-123202380D02*
X140261904Y-122202380D01*
X140642857Y-122202380D01*
X140738095Y-122250000D01*
X140785714Y-122297619D01*
X140833333Y-122392857D01*
X140833333Y-122535714D01*
X140785714Y-122630952D01*
X140738095Y-122678571D01*
X140642857Y-122726190D01*
X140261904Y-122726190D01*
X141690476Y-122202380D02*
X141500000Y-122202380D01*
X141404761Y-122250000D01*
X141357142Y-122297619D01*
X141261904Y-122440476D01*
X141214285Y-122630952D01*
X141214285Y-123011904D01*
X141261904Y-123107142D01*
X141309523Y-123154761D01*
X141404761Y-123202380D01*
X141595238Y-123202380D01*
X141690476Y-123154761D01*
X141738095Y-123107142D01*
X141785714Y-123011904D01*
X141785714Y-122773809D01*
X141738095Y-122678571D01*
X141690476Y-122630952D01*
X141595238Y-122583333D01*
X141404761Y-122583333D01*
X141309523Y-122630952D01*
X141261904Y-122678571D01*
X141214285Y-122773809D01*
G04 #@! TO.C,R7*
X142333333Y-116952380D02*
X142000000Y-116476190D01*
X141761904Y-116952380D02*
X141761904Y-115952380D01*
X142142857Y-115952380D01*
X142238095Y-116000000D01*
X142285714Y-116047619D01*
X142333333Y-116142857D01*
X142333333Y-116285714D01*
X142285714Y-116380952D01*
X142238095Y-116428571D01*
X142142857Y-116476190D01*
X141761904Y-116476190D01*
X142666666Y-115952380D02*
X143333333Y-115952380D01*
X142904761Y-116952380D01*
G04 #@! TO.C,R8*
X109833333Y-104452380D02*
X109500000Y-103976190D01*
X109261904Y-104452380D02*
X109261904Y-103452380D01*
X109642857Y-103452380D01*
X109738095Y-103500000D01*
X109785714Y-103547619D01*
X109833333Y-103642857D01*
X109833333Y-103785714D01*
X109785714Y-103880952D01*
X109738095Y-103928571D01*
X109642857Y-103976190D01*
X109261904Y-103976190D01*
X110404761Y-103880952D02*
X110309523Y-103833333D01*
X110261904Y-103785714D01*
X110214285Y-103690476D01*
X110214285Y-103642857D01*
X110261904Y-103547619D01*
X110309523Y-103500000D01*
X110404761Y-103452380D01*
X110595238Y-103452380D01*
X110690476Y-103500000D01*
X110738095Y-103547619D01*
X110785714Y-103642857D01*
X110785714Y-103690476D01*
X110738095Y-103785714D01*
X110690476Y-103833333D01*
X110595238Y-103880952D01*
X110404761Y-103880952D01*
X110309523Y-103928571D01*
X110261904Y-103976190D01*
X110214285Y-104071428D01*
X110214285Y-104261904D01*
X110261904Y-104357142D01*
X110309523Y-104404761D01*
X110404761Y-104452380D01*
X110595238Y-104452380D01*
X110690476Y-104404761D01*
X110738095Y-104357142D01*
X110785714Y-104261904D01*
X110785714Y-104071428D01*
X110738095Y-103976190D01*
X110690476Y-103928571D01*
X110595238Y-103880952D01*
G04 #@! TO.C,SW1*
X141906666Y-102004761D02*
X142049523Y-102052380D01*
X142287619Y-102052380D01*
X142382857Y-102004761D01*
X142430476Y-101957142D01*
X142478095Y-101861904D01*
X142478095Y-101766666D01*
X142430476Y-101671428D01*
X142382857Y-101623809D01*
X142287619Y-101576190D01*
X142097142Y-101528571D01*
X142001904Y-101480952D01*
X141954285Y-101433333D01*
X141906666Y-101338095D01*
X141906666Y-101242857D01*
X141954285Y-101147619D01*
X142001904Y-101100000D01*
X142097142Y-101052380D01*
X142335238Y-101052380D01*
X142478095Y-101100000D01*
X142811428Y-101052380D02*
X143049523Y-102052380D01*
X143240000Y-101338095D01*
X143430476Y-102052380D01*
X143668571Y-101052380D01*
X144573333Y-102052380D02*
X144001904Y-102052380D01*
X144287619Y-102052380D02*
X144287619Y-101052380D01*
X144192380Y-101195238D01*
X144097142Y-101290476D01*
X144001904Y-101338095D01*
G04 #@! TO.C,U1*
X120062380Y-144271904D02*
X120871904Y-144271904D01*
X120967142Y-144224285D01*
X121014761Y-144176666D01*
X121062380Y-144081428D01*
X121062380Y-143890952D01*
X121014761Y-143795714D01*
X120967142Y-143748095D01*
X120871904Y-143700476D01*
X120062380Y-143700476D01*
X121062380Y-142700476D02*
X121062380Y-143271904D01*
X121062380Y-142986190D02*
X120062380Y-142986190D01*
X120205238Y-143081428D01*
X120300476Y-143176666D01*
X120348095Y-143271904D01*
G04 #@! TO.C,U2*
X133175095Y-103465380D02*
X133175095Y-104274904D01*
X133222714Y-104370142D01*
X133270333Y-104417761D01*
X133365571Y-104465380D01*
X133556047Y-104465380D01*
X133651285Y-104417761D01*
X133698904Y-104370142D01*
X133746523Y-104274904D01*
X133746523Y-103465380D01*
X134175095Y-103560619D02*
X134222714Y-103513000D01*
X134317952Y-103465380D01*
X134556047Y-103465380D01*
X134651285Y-103513000D01*
X134698904Y-103560619D01*
X134746523Y-103655857D01*
X134746523Y-103751095D01*
X134698904Y-103893952D01*
X134127476Y-104465380D01*
X134746523Y-104465380D01*
X129166571Y-120490428D02*
X129166571Y-120157095D01*
X129690380Y-120014238D02*
X129690380Y-120490428D01*
X128690380Y-120490428D01*
X128690380Y-120014238D01*
X129642761Y-119633285D02*
X129690380Y-119538047D01*
X129690380Y-119347571D01*
X129642761Y-119252333D01*
X129547523Y-119204714D01*
X129499904Y-119204714D01*
X129404666Y-119252333D01*
X129357047Y-119347571D01*
X129357047Y-119490428D01*
X129309428Y-119585666D01*
X129214190Y-119633285D01*
X129166571Y-119633285D01*
X129071333Y-119585666D01*
X129023714Y-119490428D01*
X129023714Y-119347571D01*
X129071333Y-119252333D01*
X129023714Y-118776142D02*
X130023714Y-118776142D01*
X129071333Y-118776142D02*
X129023714Y-118680904D01*
X129023714Y-118490428D01*
X129071333Y-118395190D01*
X129118952Y-118347571D01*
X129214190Y-118299952D01*
X129499904Y-118299952D01*
X129595142Y-118347571D01*
X129642761Y-118395190D01*
X129690380Y-118490428D01*
X129690380Y-118680904D01*
X129642761Y-118776142D01*
X129690380Y-117871380D02*
X129023714Y-117871380D01*
X129214190Y-117871380D02*
X129118952Y-117823761D01*
X129071333Y-117776142D01*
X129023714Y-117680904D01*
X129023714Y-117585666D01*
X129642761Y-116871380D02*
X129690380Y-116966619D01*
X129690380Y-117157095D01*
X129642761Y-117252333D01*
X129547523Y-117299952D01*
X129166571Y-117299952D01*
X129071333Y-117252333D01*
X129023714Y-117157095D01*
X129023714Y-116966619D01*
X129071333Y-116871380D01*
X129166571Y-116823761D01*
X129261809Y-116823761D01*
X129357047Y-117299952D01*
X129642761Y-116442809D02*
X129690380Y-116347571D01*
X129690380Y-116157095D01*
X129642761Y-116061857D01*
X129547523Y-116014238D01*
X129499904Y-116014238D01*
X129404666Y-116061857D01*
X129357047Y-116157095D01*
X129357047Y-116299952D01*
X129309428Y-116395190D01*
X129214190Y-116442809D01*
X129166571Y-116442809D01*
X129071333Y-116395190D01*
X129023714Y-116299952D01*
X129023714Y-116157095D01*
X129071333Y-116061857D01*
X129642761Y-115633285D02*
X129690380Y-115538047D01*
X129690380Y-115347571D01*
X129642761Y-115252333D01*
X129547523Y-115204714D01*
X129499904Y-115204714D01*
X129404666Y-115252333D01*
X129357047Y-115347571D01*
X129357047Y-115490428D01*
X129309428Y-115585666D01*
X129214190Y-115633285D01*
X129166571Y-115633285D01*
X129071333Y-115585666D01*
X129023714Y-115490428D01*
X129023714Y-115347571D01*
X129071333Y-115252333D01*
X129690380Y-114776142D02*
X129023714Y-114776142D01*
X128690380Y-114776142D02*
X128738000Y-114823761D01*
X128785619Y-114776142D01*
X128738000Y-114728523D01*
X128690380Y-114776142D01*
X128785619Y-114776142D01*
X129023714Y-114442809D02*
X129023714Y-114061857D01*
X129690380Y-114299952D02*
X128833238Y-114299952D01*
X128738000Y-114252333D01*
X128690380Y-114157095D01*
X128690380Y-114061857D01*
X129642761Y-113014238D02*
X129690380Y-112871380D01*
X129690380Y-112633285D01*
X129642761Y-112538047D01*
X129595142Y-112490428D01*
X129499904Y-112442809D01*
X129404666Y-112442809D01*
X129309428Y-112490428D01*
X129261809Y-112538047D01*
X129214190Y-112633285D01*
X129166571Y-112823761D01*
X129118952Y-112919000D01*
X129071333Y-112966619D01*
X128976095Y-113014238D01*
X128880857Y-113014238D01*
X128785619Y-112966619D01*
X128738000Y-112919000D01*
X128690380Y-112823761D01*
X128690380Y-112585666D01*
X128738000Y-112442809D01*
X129023714Y-112109476D02*
X129690380Y-111871380D01*
X129023714Y-111633285D02*
X129690380Y-111871380D01*
X129928476Y-111966619D01*
X129976095Y-112014238D01*
X130023714Y-112109476D01*
X129642761Y-111299952D02*
X129690380Y-111204714D01*
X129690380Y-111014238D01*
X129642761Y-110919000D01*
X129547523Y-110871380D01*
X129499904Y-110871380D01*
X129404666Y-110919000D01*
X129357047Y-111014238D01*
X129357047Y-111157095D01*
X129309428Y-111252333D01*
X129214190Y-111299952D01*
X129166571Y-111299952D01*
X129071333Y-111252333D01*
X129023714Y-111157095D01*
X129023714Y-111014238D01*
X129071333Y-110919000D01*
X129023714Y-110585666D02*
X129023714Y-110204714D01*
X128690380Y-110442809D02*
X129547523Y-110442809D01*
X129642761Y-110395190D01*
X129690380Y-110299952D01*
X129690380Y-110204714D01*
X129642761Y-109490428D02*
X129690380Y-109585666D01*
X129690380Y-109776142D01*
X129642761Y-109871380D01*
X129547523Y-109919000D01*
X129166571Y-109919000D01*
X129071333Y-109871380D01*
X129023714Y-109776142D01*
X129023714Y-109585666D01*
X129071333Y-109490428D01*
X129166571Y-109442809D01*
X129261809Y-109442809D01*
X129357047Y-109919000D01*
X129690380Y-109014238D02*
X129023714Y-109014238D01*
X129118952Y-109014238D02*
X129071333Y-108966619D01*
X129023714Y-108871380D01*
X129023714Y-108728523D01*
X129071333Y-108633285D01*
X129166571Y-108585666D01*
X129690380Y-108585666D01*
X129166571Y-108585666D02*
X129071333Y-108538047D01*
X129023714Y-108442809D01*
X129023714Y-108299952D01*
X129071333Y-108204714D01*
X129166571Y-108157095D01*
X129690380Y-108157095D01*
X129642761Y-107728523D02*
X129690380Y-107633285D01*
X129690380Y-107442809D01*
X129642761Y-107347571D01*
X129547523Y-107299952D01*
X129499904Y-107299952D01*
X129404666Y-107347571D01*
X129357047Y-107442809D01*
X129357047Y-107585666D01*
X129309428Y-107680904D01*
X129214190Y-107728523D01*
X129166571Y-107728523D01*
X129071333Y-107680904D01*
X129023714Y-107585666D01*
X129023714Y-107442809D01*
X129071333Y-107347571D01*
X127515571Y-118228380D02*
X127515571Y-117895047D01*
X128039380Y-117752190D02*
X128039380Y-118228380D01*
X127039380Y-118228380D01*
X127039380Y-117752190D01*
X127991761Y-117371238D02*
X128039380Y-117228380D01*
X128039380Y-116990285D01*
X127991761Y-116895047D01*
X127944142Y-116847428D01*
X127848904Y-116799809D01*
X127753666Y-116799809D01*
X127658428Y-116847428D01*
X127610809Y-116895047D01*
X127563190Y-116990285D01*
X127515571Y-117180761D01*
X127467952Y-117276000D01*
X127420333Y-117323619D01*
X127325095Y-117371238D01*
X127229857Y-117371238D01*
X127134619Y-117323619D01*
X127087000Y-117276000D01*
X127039380Y-117180761D01*
X127039380Y-116942666D01*
X127087000Y-116799809D01*
X128039380Y-116371238D02*
X127039380Y-116371238D01*
X127039380Y-115990285D01*
X127087000Y-115895047D01*
X127134619Y-115847428D01*
X127229857Y-115799809D01*
X127372714Y-115799809D01*
X127467952Y-115847428D01*
X127515571Y-115895047D01*
X127563190Y-115990285D01*
X127563190Y-116371238D01*
X127039380Y-115466476D02*
X127039380Y-114847428D01*
X127420333Y-115180761D01*
X127420333Y-115037904D01*
X127467952Y-114942666D01*
X127515571Y-114895047D01*
X127610809Y-114847428D01*
X127848904Y-114847428D01*
X127944142Y-114895047D01*
X127991761Y-114942666D01*
X128039380Y-115037904D01*
X128039380Y-115323619D01*
X127991761Y-115418857D01*
X127944142Y-115466476D01*
X127134619Y-114466476D02*
X127087000Y-114418857D01*
X127039380Y-114323619D01*
X127039380Y-114085523D01*
X127087000Y-113990285D01*
X127134619Y-113942666D01*
X127229857Y-113895047D01*
X127325095Y-113895047D01*
X127467952Y-113942666D01*
X128039380Y-114514095D01*
X128039380Y-113895047D01*
X127658428Y-113466476D02*
X127658428Y-112704571D01*
X127039380Y-112323619D02*
X128039380Y-112085523D01*
X127325095Y-111895047D01*
X128039380Y-111704571D01*
X127039380Y-111466476D01*
X128039380Y-110514095D02*
X127563190Y-110847428D01*
X128039380Y-111085523D02*
X127039380Y-111085523D01*
X127039380Y-110704571D01*
X127087000Y-110609333D01*
X127134619Y-110561714D01*
X127229857Y-110514095D01*
X127372714Y-110514095D01*
X127467952Y-110561714D01*
X127515571Y-110609333D01*
X127563190Y-110704571D01*
X127563190Y-111085523D01*
X127039380Y-109895047D02*
X127039380Y-109704571D01*
X127087000Y-109609333D01*
X127182238Y-109514095D01*
X127372714Y-109466476D01*
X127706047Y-109466476D01*
X127896523Y-109514095D01*
X127991761Y-109609333D01*
X128039380Y-109704571D01*
X128039380Y-109895047D01*
X127991761Y-109990285D01*
X127896523Y-110085523D01*
X127706047Y-110133142D01*
X127372714Y-110133142D01*
X127182238Y-110085523D01*
X127087000Y-109990285D01*
X127039380Y-109895047D01*
X127039380Y-108847428D02*
X127039380Y-108656952D01*
X127087000Y-108561714D01*
X127182238Y-108466476D01*
X127372714Y-108418857D01*
X127706047Y-108418857D01*
X127896523Y-108466476D01*
X127991761Y-108561714D01*
X128039380Y-108656952D01*
X128039380Y-108847428D01*
X127991761Y-108942666D01*
X127896523Y-109037904D01*
X127706047Y-109085523D01*
X127372714Y-109085523D01*
X127182238Y-109037904D01*
X127087000Y-108942666D01*
X127039380Y-108847428D01*
X128039380Y-107990285D02*
X127039380Y-107990285D01*
X127753666Y-107656952D01*
X127039380Y-107323619D01*
X128039380Y-107323619D01*
G04 #@! TO.C,H1*
X104238095Y-101952380D02*
X104238095Y-100952380D01*
X104238095Y-101428571D02*
X104809523Y-101428571D01*
X104809523Y-101952380D02*
X104809523Y-100952380D01*
X105809523Y-101952380D02*
X105238095Y-101952380D01*
X105523809Y-101952380D02*
X105523809Y-100952380D01*
X105428571Y-101095238D01*
X105333333Y-101190476D01*
X105238095Y-101238095D01*
G04 #@! TO.C,H2*
X104238095Y-141952380D02*
X104238095Y-140952380D01*
X104238095Y-141428571D02*
X104809523Y-141428571D01*
X104809523Y-141952380D02*
X104809523Y-140952380D01*
X105238095Y-141047619D02*
X105285714Y-141000000D01*
X105380952Y-140952380D01*
X105619047Y-140952380D01*
X105714285Y-141000000D01*
X105761904Y-141047619D01*
X105809523Y-141142857D01*
X105809523Y-141238095D01*
X105761904Y-141380952D01*
X105190476Y-141952380D01*
X105809523Y-141952380D01*
G04 #@! TO.C,H3*
X154238095Y-101952380D02*
X154238095Y-100952380D01*
X154238095Y-101428571D02*
X154809523Y-101428571D01*
X154809523Y-101952380D02*
X154809523Y-100952380D01*
X155190476Y-100952380D02*
X155809523Y-100952380D01*
X155476190Y-101333333D01*
X155619047Y-101333333D01*
X155714285Y-101380952D01*
X155761904Y-101428571D01*
X155809523Y-101523809D01*
X155809523Y-101761904D01*
X155761904Y-101857142D01*
X155714285Y-101904761D01*
X155619047Y-101952380D01*
X155333333Y-101952380D01*
X155238095Y-101904761D01*
X155190476Y-101857142D01*
G04 #@! TO.C,H4*
X154238095Y-141952380D02*
X154238095Y-140952380D01*
X154238095Y-141428571D02*
X154809523Y-141428571D01*
X154809523Y-141952380D02*
X154809523Y-140952380D01*
X155714285Y-141285714D02*
X155714285Y-141952380D01*
X155476190Y-140904761D02*
X155238095Y-141619047D01*
X155857142Y-141619047D01*
G04 #@! TO.C,J3*
X104936666Y-118122380D02*
X104936666Y-118836666D01*
X104889047Y-118979523D01*
X104793809Y-119074761D01*
X104650952Y-119122380D01*
X104555714Y-119122380D01*
X105317619Y-118122380D02*
X105936666Y-118122380D01*
X105603333Y-118503333D01*
X105746190Y-118503333D01*
X105841428Y-118550952D01*
X105889047Y-118598571D01*
X105936666Y-118693809D01*
X105936666Y-118931904D01*
X105889047Y-119027142D01*
X105841428Y-119074761D01*
X105746190Y-119122380D01*
X105460476Y-119122380D01*
X105365238Y-119074761D01*
X105317619Y-119027142D01*
G04 #@! TO.C,J5*
X104416666Y-129372380D02*
X104416666Y-130086666D01*
X104369047Y-130229523D01*
X104273809Y-130324761D01*
X104130952Y-130372380D01*
X104035714Y-130372380D01*
X105369047Y-129372380D02*
X104892857Y-129372380D01*
X104845238Y-129848571D01*
X104892857Y-129800952D01*
X104988095Y-129753333D01*
X105226190Y-129753333D01*
X105321428Y-129800952D01*
X105369047Y-129848571D01*
X105416666Y-129943809D01*
X105416666Y-130181904D01*
X105369047Y-130277142D01*
X105321428Y-130324761D01*
X105226190Y-130372380D01*
X104988095Y-130372380D01*
X104892857Y-130324761D01*
X104845238Y-130277142D01*
G04 #@! TD*
M02*
