G04 #@! TF.GenerationSoftware,KiCad,Pcbnew,5.0.1*
G04 #@! TF.CreationDate,2018-11-12T23:15:09+00:00*
G04 #@! TF.ProjectId,ESP32-WS2812-Controller,45535033322D5753323831322D436F6E,rev?*
G04 #@! TF.SameCoordinates,Original*
G04 #@! TF.FileFunction,Soldermask,Bot*
G04 #@! TF.FilePolarity,Negative*
%FSLAX46Y46*%
G04 Gerber Fmt 4.6, Leading zero omitted, Abs format (unit mm)*
G04 Created by KiCad (PCBNEW 5.0.1) date Mon 12 Nov 2018 23:15:09 GMT*
%MOMM*%
%LPD*%
G01*
G04 APERTURE LIST*
%ADD10C,0.100000*%
G04 APERTURE END LIST*
D10*
G36*
X126592798Y-147561624D02*
X126601938Y-147562524D01*
X126634610Y-147572435D01*
X126699957Y-147592258D01*
X126790294Y-147640544D01*
X126869475Y-147705525D01*
X126934456Y-147784706D01*
X126982742Y-147875042D01*
X127012476Y-147973062D01*
X127020000Y-148049455D01*
X127020000Y-148650545D01*
X127012476Y-148726938D01*
X126982742Y-148824958D01*
X126934456Y-148915294D01*
X126869475Y-148994475D01*
X126790294Y-149059456D01*
X126699958Y-149107742D01*
X126634611Y-149127565D01*
X126601939Y-149137476D01*
X126592799Y-149138376D01*
X126500000Y-149147516D01*
X126407202Y-149138376D01*
X126398062Y-149137476D01*
X126365390Y-149127565D01*
X126300043Y-149107742D01*
X126209707Y-149059456D01*
X126130526Y-148994475D01*
X126065545Y-148915294D01*
X126017259Y-148824958D01*
X126017258Y-148824956D01*
X125987524Y-148726939D01*
X125980000Y-148650539D01*
X125980000Y-148049456D01*
X125987524Y-147973063D01*
X125987525Y-147973061D01*
X125997435Y-147940390D01*
X126017258Y-147875043D01*
X126065544Y-147784706D01*
X126130525Y-147705525D01*
X126209706Y-147640544D01*
X126300042Y-147592258D01*
X126365389Y-147572435D01*
X126398061Y-147562524D01*
X126407201Y-147561624D01*
X126500000Y-147552484D01*
X126592798Y-147561624D01*
X126592798Y-147561624D01*
G37*
G36*
X133592798Y-147561624D02*
X133601938Y-147562524D01*
X133634610Y-147572435D01*
X133699957Y-147592258D01*
X133790294Y-147640544D01*
X133869475Y-147705525D01*
X133934456Y-147784706D01*
X133982742Y-147875042D01*
X134012476Y-147973062D01*
X134020000Y-148049455D01*
X134020000Y-148650545D01*
X134012476Y-148726938D01*
X133982742Y-148824958D01*
X133934456Y-148915294D01*
X133869475Y-148994475D01*
X133790294Y-149059456D01*
X133699958Y-149107742D01*
X133634611Y-149127565D01*
X133601939Y-149137476D01*
X133592799Y-149138376D01*
X133500000Y-149147516D01*
X133407202Y-149138376D01*
X133398062Y-149137476D01*
X133365390Y-149127565D01*
X133300043Y-149107742D01*
X133209707Y-149059456D01*
X133130526Y-148994475D01*
X133065545Y-148915294D01*
X133017259Y-148824958D01*
X133017258Y-148824956D01*
X132987524Y-148726939D01*
X132980000Y-148650539D01*
X132980000Y-148049456D01*
X132987524Y-147973063D01*
X132987525Y-147973061D01*
X132997435Y-147940390D01*
X133017258Y-147875043D01*
X133065544Y-147784706D01*
X133130525Y-147705525D01*
X133209706Y-147640544D01*
X133300042Y-147592258D01*
X133365389Y-147572435D01*
X133398061Y-147562524D01*
X133407201Y-147561624D01*
X133500000Y-147552484D01*
X133592798Y-147561624D01*
X133592798Y-147561624D01*
G37*
G36*
X155247765Y-143754403D02*
X155370445Y-143778805D01*
X155601571Y-143874541D01*
X155809581Y-144013529D01*
X155986471Y-144190419D01*
X155986473Y-144190422D01*
X156125459Y-144398429D01*
X156221195Y-144629555D01*
X156221195Y-144629557D01*
X156270000Y-144874914D01*
X156270000Y-145125086D01*
X156262625Y-145162162D01*
X156221195Y-145370445D01*
X156145593Y-145552963D01*
X156125459Y-145601571D01*
X155986471Y-145809581D01*
X155809581Y-145986471D01*
X155809578Y-145986473D01*
X155601571Y-146125459D01*
X155370445Y-146221195D01*
X155247765Y-146245597D01*
X155125086Y-146270000D01*
X154874914Y-146270000D01*
X154752235Y-146245597D01*
X154629555Y-146221195D01*
X154398429Y-146125459D01*
X154190422Y-145986473D01*
X154190419Y-145986471D01*
X154013529Y-145809581D01*
X153874541Y-145601571D01*
X153854407Y-145552963D01*
X153778805Y-145370445D01*
X153737375Y-145162162D01*
X153730000Y-145125086D01*
X153730000Y-144874914D01*
X153778805Y-144629557D01*
X153778805Y-144629555D01*
X153874541Y-144398429D01*
X154013527Y-144190422D01*
X154013529Y-144190419D01*
X154190419Y-144013529D01*
X154398429Y-143874541D01*
X154629555Y-143778805D01*
X154752235Y-143754403D01*
X154874914Y-143730000D01*
X155125086Y-143730000D01*
X155247765Y-143754403D01*
X155247765Y-143754403D01*
G37*
G36*
X105247765Y-143754403D02*
X105370445Y-143778805D01*
X105601571Y-143874541D01*
X105809581Y-144013529D01*
X105986471Y-144190419D01*
X105986473Y-144190422D01*
X106125459Y-144398429D01*
X106221195Y-144629555D01*
X106221195Y-144629557D01*
X106270000Y-144874914D01*
X106270000Y-145125086D01*
X106262625Y-145162162D01*
X106221195Y-145370445D01*
X106145593Y-145552963D01*
X106125459Y-145601571D01*
X105986471Y-145809581D01*
X105809581Y-145986471D01*
X105809578Y-145986473D01*
X105601571Y-146125459D01*
X105370445Y-146221195D01*
X105247765Y-146245597D01*
X105125086Y-146270000D01*
X104874914Y-146270000D01*
X104752235Y-146245597D01*
X104629555Y-146221195D01*
X104398429Y-146125459D01*
X104190422Y-145986473D01*
X104190419Y-145986471D01*
X104013529Y-145809581D01*
X103874541Y-145601571D01*
X103854407Y-145552963D01*
X103778805Y-145370445D01*
X103737375Y-145162162D01*
X103730000Y-145125086D01*
X103730000Y-144874914D01*
X103778805Y-144629557D01*
X103778805Y-144629555D01*
X103874541Y-144398429D01*
X104013527Y-144190422D01*
X104013529Y-144190419D01*
X104190419Y-144013529D01*
X104398429Y-143874541D01*
X104629555Y-143778805D01*
X104752235Y-143754403D01*
X104874914Y-143730000D01*
X105125086Y-143730000D01*
X105247765Y-143754403D01*
X105247765Y-143754403D01*
G37*
G36*
X127747037Y-145162162D02*
X127840345Y-145190467D01*
X127926338Y-145236431D01*
X128001711Y-145298289D01*
X128063569Y-145373662D01*
X128109533Y-145459655D01*
X128137838Y-145552963D01*
X128147395Y-145650000D01*
X128137838Y-145747037D01*
X128109533Y-145840345D01*
X128063569Y-145926338D01*
X128001711Y-146001711D01*
X127926338Y-146063569D01*
X127840345Y-146109533D01*
X127747037Y-146137838D01*
X127674318Y-146145000D01*
X127325682Y-146145000D01*
X127252963Y-146137838D01*
X127159655Y-146109533D01*
X127073662Y-146063569D01*
X126998289Y-146001711D01*
X126936431Y-145926338D01*
X126890467Y-145840345D01*
X126862162Y-145747037D01*
X126852605Y-145650000D01*
X126862162Y-145552963D01*
X126890467Y-145459655D01*
X126936431Y-145373662D01*
X126998289Y-145298289D01*
X127073662Y-145236431D01*
X127159655Y-145190467D01*
X127252963Y-145162162D01*
X127325682Y-145155000D01*
X127674318Y-145155000D01*
X127747037Y-145162162D01*
X127747037Y-145162162D01*
G37*
G36*
X132747037Y-145162162D02*
X132840345Y-145190467D01*
X132926338Y-145236431D01*
X133001711Y-145298289D01*
X133063569Y-145373662D01*
X133109533Y-145459655D01*
X133137838Y-145552963D01*
X133147395Y-145650000D01*
X133137838Y-145747037D01*
X133109533Y-145840345D01*
X133063569Y-145926338D01*
X133001711Y-146001711D01*
X132926338Y-146063569D01*
X132840345Y-146109533D01*
X132747037Y-146137838D01*
X132674318Y-146145000D01*
X132325682Y-146145000D01*
X132252963Y-146137838D01*
X132159655Y-146109533D01*
X132073662Y-146063569D01*
X131998289Y-146001711D01*
X131936431Y-145926338D01*
X131890467Y-145840345D01*
X131862162Y-145747037D01*
X131852605Y-145650000D01*
X131862162Y-145552963D01*
X131890467Y-145459655D01*
X131936431Y-145373662D01*
X131998289Y-145298289D01*
X132073662Y-145236431D01*
X132159655Y-145190467D01*
X132252963Y-145162162D01*
X132325682Y-145155000D01*
X132674318Y-145155000D01*
X132747037Y-145162162D01*
X132747037Y-145162162D01*
G37*
G36*
X131739955Y-136694758D02*
X131932223Y-136753083D01*
X131932225Y-136753084D01*
X132109423Y-136847798D01*
X132161195Y-136890286D01*
X132264742Y-136975264D01*
X132392201Y-137130574D01*
X132486917Y-137307776D01*
X132545242Y-137500044D01*
X132560000Y-137649891D01*
X132560000Y-138350108D01*
X132545242Y-138499955D01*
X132486917Y-138692225D01*
X132392203Y-138869424D01*
X132264739Y-139024739D01*
X132109426Y-139152201D01*
X131932224Y-139246917D01*
X131739956Y-139305242D01*
X131540000Y-139324935D01*
X131340045Y-139305242D01*
X131147777Y-139246917D01*
X130970575Y-139152201D01*
X130815262Y-139024739D01*
X130687800Y-138869425D01*
X130593083Y-138692224D01*
X130534758Y-138499956D01*
X130520000Y-138350109D01*
X130520000Y-137649892D01*
X130534758Y-137500045D01*
X130593083Y-137307777D01*
X130687797Y-137130579D01*
X130687798Y-137130577D01*
X130730286Y-137078805D01*
X130815264Y-136975258D01*
X130970574Y-136847799D01*
X131147776Y-136753083D01*
X131340044Y-136694758D01*
X131540000Y-136675065D01*
X131739955Y-136694758D01*
X131739955Y-136694758D01*
G37*
G36*
X130020000Y-139320000D02*
X127980000Y-139320000D01*
X127980000Y-136680000D01*
X130020000Y-136680000D01*
X130020000Y-139320000D01*
X130020000Y-139320000D01*
G37*
G36*
X104920546Y-136472588D02*
X104920549Y-136472589D01*
X104920550Y-136472589D01*
X105084545Y-136522336D01*
X105084547Y-136522337D01*
X105235686Y-136603122D01*
X105368159Y-136711841D01*
X105476878Y-136844314D01*
X105546871Y-136975262D01*
X105557664Y-136995455D01*
X105598653Y-137130579D01*
X105607412Y-137159454D01*
X105624209Y-137330000D01*
X105607412Y-137500546D01*
X105557663Y-137664547D01*
X105476878Y-137815686D01*
X105368159Y-137948159D01*
X105235686Y-138056878D01*
X105084547Y-138137663D01*
X105084545Y-138137664D01*
X104920550Y-138187411D01*
X104920549Y-138187411D01*
X104920546Y-138187412D01*
X104792738Y-138200000D01*
X104707262Y-138200000D01*
X104579454Y-138187412D01*
X104579451Y-138187411D01*
X104579450Y-138187411D01*
X104415455Y-138137664D01*
X104415453Y-138137663D01*
X104264314Y-138056878D01*
X104131841Y-137948159D01*
X104023122Y-137815686D01*
X103942337Y-137664547D01*
X103892588Y-137500546D01*
X103875791Y-137330000D01*
X103892588Y-137159454D01*
X103901347Y-137130579D01*
X103942336Y-136995455D01*
X103953129Y-136975262D01*
X104023122Y-136844314D01*
X104131841Y-136711841D01*
X104264314Y-136603122D01*
X104415453Y-136522337D01*
X104415455Y-136522336D01*
X104579450Y-136472589D01*
X104579451Y-136472589D01*
X104579454Y-136472588D01*
X104707262Y-136460000D01*
X104792738Y-136460000D01*
X104920546Y-136472588D01*
X104920546Y-136472588D01*
G37*
G36*
X104920546Y-133932588D02*
X104920549Y-133932589D01*
X104920550Y-133932589D01*
X105084545Y-133982336D01*
X105084547Y-133982337D01*
X105235686Y-134063122D01*
X105368159Y-134171841D01*
X105476878Y-134304314D01*
X105557663Y-134455453D01*
X105557664Y-134455455D01*
X105583079Y-134539237D01*
X105607412Y-134619454D01*
X105624209Y-134790000D01*
X105607412Y-134960546D01*
X105607411Y-134960549D01*
X105607411Y-134960550D01*
X105585676Y-135032202D01*
X105557663Y-135124547D01*
X105476878Y-135275686D01*
X105368159Y-135408159D01*
X105235686Y-135516878D01*
X105084547Y-135597663D01*
X105084545Y-135597664D01*
X104920550Y-135647411D01*
X104920549Y-135647411D01*
X104920546Y-135647412D01*
X104792738Y-135660000D01*
X104707262Y-135660000D01*
X104579454Y-135647412D01*
X104579451Y-135647411D01*
X104579450Y-135647411D01*
X104415455Y-135597664D01*
X104415453Y-135597663D01*
X104264314Y-135516878D01*
X104131841Y-135408159D01*
X104023122Y-135275686D01*
X103942337Y-135124547D01*
X103914325Y-135032202D01*
X103892589Y-134960550D01*
X103892589Y-134960549D01*
X103892588Y-134960546D01*
X103875791Y-134790000D01*
X103892588Y-134619454D01*
X103916921Y-134539237D01*
X103942336Y-134455455D01*
X103942337Y-134455453D01*
X104023122Y-134304314D01*
X104131841Y-134171841D01*
X104264314Y-134063122D01*
X104415453Y-133982337D01*
X104415455Y-133982336D01*
X104579450Y-133932589D01*
X104579451Y-133932589D01*
X104579454Y-133932588D01*
X104707262Y-133920000D01*
X104792738Y-133920000D01*
X104920546Y-133932588D01*
X104920546Y-133932588D01*
G37*
G36*
X111229974Y-133815756D02*
X111309185Y-133831512D01*
X111458416Y-133893325D01*
X111592720Y-133983064D01*
X111706936Y-134097280D01*
X111796675Y-134231584D01*
X111858488Y-134380815D01*
X111890000Y-134539237D01*
X111890000Y-134700763D01*
X111858488Y-134859185D01*
X111796675Y-135008416D01*
X111706936Y-135142720D01*
X111592720Y-135256936D01*
X111458416Y-135346675D01*
X111309185Y-135408488D01*
X111229974Y-135424244D01*
X111150764Y-135440000D01*
X110989236Y-135440000D01*
X110910026Y-135424244D01*
X110830815Y-135408488D01*
X110681584Y-135346675D01*
X110547280Y-135256936D01*
X110433064Y-135142720D01*
X110343325Y-135008416D01*
X110281512Y-134859185D01*
X110250000Y-134700763D01*
X110250000Y-134539237D01*
X110281512Y-134380815D01*
X110343325Y-134231584D01*
X110433064Y-134097280D01*
X110547280Y-133983064D01*
X110681584Y-133893325D01*
X110830815Y-133831512D01*
X110910026Y-133815756D01*
X110989236Y-133800000D01*
X111150764Y-133800000D01*
X111229974Y-133815756D01*
X111229974Y-133815756D01*
G37*
G36*
X114390000Y-135440000D02*
X112750000Y-135440000D01*
X112750000Y-133800000D01*
X114390000Y-133800000D01*
X114390000Y-135440000D01*
X114390000Y-135440000D01*
G37*
G36*
X117579974Y-133815756D02*
X117659185Y-133831512D01*
X117808416Y-133893325D01*
X117942720Y-133983064D01*
X118056936Y-134097280D01*
X118146675Y-134231584D01*
X118208488Y-134380815D01*
X118240000Y-134539237D01*
X118240000Y-134700763D01*
X118208488Y-134859185D01*
X118146675Y-135008416D01*
X118056936Y-135142720D01*
X117942720Y-135256936D01*
X117808416Y-135346675D01*
X117659185Y-135408488D01*
X117579974Y-135424244D01*
X117500764Y-135440000D01*
X117339236Y-135440000D01*
X117260026Y-135424244D01*
X117180815Y-135408488D01*
X117031584Y-135346675D01*
X116897280Y-135256936D01*
X116783064Y-135142720D01*
X116693325Y-135008416D01*
X116631512Y-134859185D01*
X116600000Y-134700763D01*
X116600000Y-134539237D01*
X116631512Y-134380815D01*
X116693325Y-134231584D01*
X116783064Y-134097280D01*
X116897280Y-133983064D01*
X117031584Y-133893325D01*
X117180815Y-133831512D01*
X117260026Y-133815756D01*
X117339236Y-133800000D01*
X117500764Y-133800000D01*
X117579974Y-133815756D01*
X117579974Y-133815756D01*
G37*
G36*
X120740000Y-135440000D02*
X119100000Y-135440000D01*
X119100000Y-133800000D01*
X120740000Y-133800000D01*
X120740000Y-135440000D01*
X120740000Y-135440000D01*
G37*
G36*
X154699956Y-133174758D02*
X154892224Y-133233083D01*
X155069426Y-133327799D01*
X155224739Y-133455261D01*
X155352201Y-133610574D01*
X155446917Y-133787776D01*
X155505242Y-133980044D01*
X155524935Y-134180000D01*
X155505242Y-134379956D01*
X155446917Y-134572224D01*
X155352201Y-134749426D01*
X155224739Y-134904739D01*
X155069426Y-135032201D01*
X154892224Y-135126917D01*
X154699956Y-135185242D01*
X154550109Y-135200000D01*
X153849891Y-135200000D01*
X153700044Y-135185242D01*
X153507776Y-135126917D01*
X153330574Y-135032201D01*
X153175261Y-134904739D01*
X153047799Y-134749426D01*
X152953083Y-134572224D01*
X152894758Y-134379956D01*
X152875065Y-134180000D01*
X152894758Y-133980044D01*
X152953083Y-133787776D01*
X153047799Y-133610574D01*
X153175261Y-133455261D01*
X153330574Y-133327799D01*
X153507776Y-133233083D01*
X153700044Y-133174758D01*
X153849891Y-133160000D01*
X154550109Y-133160000D01*
X154699956Y-133174758D01*
X154699956Y-133174758D01*
G37*
G36*
X147020000Y-134920000D02*
X145380000Y-134920000D01*
X145380000Y-133280000D01*
X147020000Y-133280000D01*
X147020000Y-134920000D01*
X147020000Y-134920000D01*
G37*
G36*
X105620000Y-133120000D02*
X103880000Y-133120000D01*
X103880000Y-131380000D01*
X105620000Y-131380000D01*
X105620000Y-133120000D01*
X105620000Y-133120000D01*
G37*
G36*
X154699956Y-130634758D02*
X154892224Y-130693083D01*
X155069426Y-130787799D01*
X155224739Y-130915261D01*
X155352201Y-131070574D01*
X155446917Y-131247776D01*
X155505242Y-131440044D01*
X155524935Y-131640000D01*
X155505242Y-131839956D01*
X155446917Y-132032224D01*
X155352201Y-132209426D01*
X155224739Y-132364739D01*
X155069426Y-132492201D01*
X154892224Y-132586917D01*
X154699956Y-132645242D01*
X154550109Y-132660000D01*
X153849891Y-132660000D01*
X153700044Y-132645242D01*
X153507776Y-132586917D01*
X153330574Y-132492201D01*
X153175261Y-132364739D01*
X153047799Y-132209426D01*
X152953083Y-132032224D01*
X152894758Y-131839956D01*
X152875065Y-131640000D01*
X152894758Y-131440044D01*
X152953083Y-131247776D01*
X153047799Y-131070574D01*
X153175261Y-130915261D01*
X153330574Y-130787799D01*
X153507776Y-130693083D01*
X153700044Y-130634758D01*
X153849891Y-130620000D01*
X154550109Y-130620000D01*
X154699956Y-130634758D01*
X154699956Y-130634758D01*
G37*
G36*
X146359974Y-130795756D02*
X146439185Y-130811512D01*
X146588416Y-130873325D01*
X146722720Y-130963064D01*
X146836936Y-131077280D01*
X146926675Y-131211584D01*
X146988488Y-131360815D01*
X147020000Y-131519237D01*
X147020000Y-131680763D01*
X146988488Y-131839185D01*
X146926675Y-131988416D01*
X146836936Y-132122720D01*
X146722720Y-132236936D01*
X146588416Y-132326675D01*
X146439185Y-132388488D01*
X146359974Y-132404244D01*
X146280764Y-132420000D01*
X146119236Y-132420000D01*
X146040026Y-132404244D01*
X145960815Y-132388488D01*
X145811584Y-132326675D01*
X145677280Y-132236936D01*
X145563064Y-132122720D01*
X145473325Y-131988416D01*
X145411512Y-131839185D01*
X145380000Y-131680763D01*
X145380000Y-131519237D01*
X145411512Y-131360815D01*
X145473325Y-131211584D01*
X145563064Y-131077280D01*
X145677280Y-130963064D01*
X145811584Y-130873325D01*
X145960815Y-130811512D01*
X146040026Y-130795756D01*
X146119236Y-130780000D01*
X146280764Y-130780000D01*
X146359974Y-130795756D01*
X146359974Y-130795756D01*
G37*
G36*
X155520000Y-130120000D02*
X152880000Y-130120000D01*
X152880000Y-128080000D01*
X155520000Y-128080000D01*
X155520000Y-130120000D01*
X155520000Y-130120000D01*
G37*
G36*
X106710546Y-125222588D02*
X106710549Y-125222589D01*
X106710550Y-125222589D01*
X106874545Y-125272336D01*
X106874547Y-125272337D01*
X107025686Y-125353122D01*
X107158159Y-125461841D01*
X107266878Y-125594314D01*
X107347663Y-125745453D01*
X107397412Y-125909454D01*
X107414209Y-126080000D01*
X107397412Y-126250546D01*
X107347663Y-126414547D01*
X107266878Y-126565686D01*
X107158159Y-126698159D01*
X107025686Y-126806878D01*
X106874547Y-126887663D01*
X106874545Y-126887664D01*
X106710550Y-126937411D01*
X106710549Y-126937411D01*
X106710546Y-126937412D01*
X106582738Y-126950000D01*
X106497262Y-126950000D01*
X106369454Y-126937412D01*
X106369451Y-126937411D01*
X106369450Y-126937411D01*
X106205455Y-126887664D01*
X106205453Y-126887663D01*
X106054314Y-126806878D01*
X105921841Y-126698159D01*
X105813122Y-126565686D01*
X105732337Y-126414547D01*
X105682588Y-126250546D01*
X105665791Y-126080000D01*
X105682588Y-125909454D01*
X105732337Y-125745453D01*
X105813122Y-125594314D01*
X105921841Y-125461841D01*
X106054314Y-125353122D01*
X106205453Y-125272337D01*
X106205455Y-125272336D01*
X106369450Y-125222589D01*
X106369451Y-125222589D01*
X106369454Y-125222588D01*
X106497262Y-125210000D01*
X106582738Y-125210000D01*
X106710546Y-125222588D01*
X106710546Y-125222588D01*
G37*
G36*
X104170546Y-125222588D02*
X104170549Y-125222589D01*
X104170550Y-125222589D01*
X104334545Y-125272336D01*
X104334547Y-125272337D01*
X104485686Y-125353122D01*
X104618159Y-125461841D01*
X104726878Y-125594314D01*
X104807663Y-125745453D01*
X104857412Y-125909454D01*
X104874209Y-126080000D01*
X104857412Y-126250546D01*
X104807663Y-126414547D01*
X104726878Y-126565686D01*
X104618159Y-126698159D01*
X104485686Y-126806878D01*
X104334547Y-126887663D01*
X104334545Y-126887664D01*
X104170550Y-126937411D01*
X104170549Y-126937411D01*
X104170546Y-126937412D01*
X104042738Y-126950000D01*
X103957262Y-126950000D01*
X103829454Y-126937412D01*
X103829451Y-126937411D01*
X103829450Y-126937411D01*
X103665455Y-126887664D01*
X103665453Y-126887663D01*
X103514314Y-126806878D01*
X103381841Y-126698159D01*
X103273122Y-126565686D01*
X103192337Y-126414547D01*
X103142588Y-126250546D01*
X103125791Y-126080000D01*
X103142588Y-125909454D01*
X103192337Y-125745453D01*
X103273122Y-125594314D01*
X103381841Y-125461841D01*
X103514314Y-125353122D01*
X103665453Y-125272337D01*
X103665455Y-125272336D01*
X103829450Y-125222589D01*
X103829451Y-125222589D01*
X103829454Y-125222588D01*
X103957262Y-125210000D01*
X104042738Y-125210000D01*
X104170546Y-125222588D01*
X104170546Y-125222588D01*
G37*
G36*
X106710546Y-122682588D02*
X106710549Y-122682589D01*
X106710550Y-122682589D01*
X106874545Y-122732336D01*
X106874547Y-122732337D01*
X107025686Y-122813122D01*
X107158159Y-122921841D01*
X107266878Y-123054314D01*
X107347663Y-123205453D01*
X107397412Y-123369454D01*
X107414209Y-123540000D01*
X107397412Y-123710546D01*
X107347663Y-123874547D01*
X107266878Y-124025686D01*
X107158159Y-124158159D01*
X107025686Y-124266878D01*
X106874547Y-124347663D01*
X106874545Y-124347664D01*
X106710550Y-124397411D01*
X106710549Y-124397411D01*
X106710546Y-124397412D01*
X106582738Y-124410000D01*
X106497262Y-124410000D01*
X106369454Y-124397412D01*
X106369451Y-124397411D01*
X106369450Y-124397411D01*
X106205455Y-124347664D01*
X106205453Y-124347663D01*
X106054314Y-124266878D01*
X105921841Y-124158159D01*
X105813122Y-124025686D01*
X105732337Y-123874547D01*
X105682588Y-123710546D01*
X105665791Y-123540000D01*
X105682588Y-123369454D01*
X105732337Y-123205453D01*
X105813122Y-123054314D01*
X105921841Y-122921841D01*
X106054314Y-122813122D01*
X106205453Y-122732337D01*
X106205455Y-122732336D01*
X106369450Y-122682589D01*
X106369451Y-122682589D01*
X106369454Y-122682588D01*
X106497262Y-122670000D01*
X106582738Y-122670000D01*
X106710546Y-122682588D01*
X106710546Y-122682588D01*
G37*
G36*
X104170546Y-122682588D02*
X104170549Y-122682589D01*
X104170550Y-122682589D01*
X104334545Y-122732336D01*
X104334547Y-122732337D01*
X104485686Y-122813122D01*
X104618159Y-122921841D01*
X104726878Y-123054314D01*
X104807663Y-123205453D01*
X104857412Y-123369454D01*
X104874209Y-123540000D01*
X104857412Y-123710546D01*
X104807663Y-123874547D01*
X104726878Y-124025686D01*
X104618159Y-124158159D01*
X104485686Y-124266878D01*
X104334547Y-124347663D01*
X104334545Y-124347664D01*
X104170550Y-124397411D01*
X104170549Y-124397411D01*
X104170546Y-124397412D01*
X104042738Y-124410000D01*
X103957262Y-124410000D01*
X103829454Y-124397412D01*
X103829451Y-124397411D01*
X103829450Y-124397411D01*
X103665455Y-124347664D01*
X103665453Y-124347663D01*
X103514314Y-124266878D01*
X103381841Y-124158159D01*
X103273122Y-124025686D01*
X103192337Y-123874547D01*
X103142588Y-123710546D01*
X103125791Y-123540000D01*
X103142588Y-123369454D01*
X103192337Y-123205453D01*
X103273122Y-123054314D01*
X103381841Y-122921841D01*
X103514314Y-122813122D01*
X103665453Y-122732337D01*
X103665455Y-122732336D01*
X103829450Y-122682589D01*
X103829451Y-122682589D01*
X103829454Y-122682588D01*
X103957262Y-122670000D01*
X104042738Y-122670000D01*
X104170546Y-122682588D01*
X104170546Y-122682588D01*
G37*
G36*
X106710546Y-120142588D02*
X106710549Y-120142589D01*
X106710550Y-120142589D01*
X106874545Y-120192336D01*
X106874547Y-120192337D01*
X107025686Y-120273122D01*
X107158159Y-120381841D01*
X107266878Y-120514314D01*
X107347663Y-120665453D01*
X107397412Y-120829454D01*
X107414209Y-121000000D01*
X107397412Y-121170546D01*
X107347663Y-121334547D01*
X107266878Y-121485686D01*
X107158159Y-121618159D01*
X107025686Y-121726878D01*
X106874547Y-121807663D01*
X106874545Y-121807664D01*
X106710550Y-121857411D01*
X106710549Y-121857411D01*
X106710546Y-121857412D01*
X106582738Y-121870000D01*
X106497262Y-121870000D01*
X106369454Y-121857412D01*
X106369451Y-121857411D01*
X106369450Y-121857411D01*
X106205455Y-121807664D01*
X106205453Y-121807663D01*
X106054314Y-121726878D01*
X105921841Y-121618159D01*
X105813122Y-121485686D01*
X105732337Y-121334547D01*
X105682588Y-121170546D01*
X105665791Y-121000000D01*
X105682588Y-120829454D01*
X105732337Y-120665453D01*
X105813122Y-120514314D01*
X105921841Y-120381841D01*
X106054314Y-120273122D01*
X106205453Y-120192337D01*
X106205455Y-120192336D01*
X106369450Y-120142589D01*
X106369451Y-120142589D01*
X106369454Y-120142588D01*
X106497262Y-120130000D01*
X106582738Y-120130000D01*
X106710546Y-120142588D01*
X106710546Y-120142588D01*
G37*
G36*
X104870000Y-121870000D02*
X103130000Y-121870000D01*
X103130000Y-120130000D01*
X104870000Y-120130000D01*
X104870000Y-121870000D01*
X104870000Y-121870000D01*
G37*
G36*
X150049768Y-110878957D02*
X150153616Y-110889185D01*
X150320175Y-110939710D01*
X150362436Y-110962299D01*
X150473673Y-111021756D01*
X150608223Y-111132177D01*
X150718644Y-111266727D01*
X150778101Y-111377964D01*
X150800690Y-111420225D01*
X150851215Y-111586784D01*
X150868275Y-111760000D01*
X150851215Y-111933216D01*
X150800690Y-112099775D01*
X150800687Y-112099780D01*
X150718644Y-112253273D01*
X150608223Y-112387823D01*
X150473673Y-112498244D01*
X150362436Y-112557701D01*
X150320175Y-112580290D01*
X150153616Y-112630815D01*
X150049768Y-112641043D01*
X150023807Y-112643600D01*
X148616193Y-112643600D01*
X148590232Y-112641043D01*
X148486384Y-112630815D01*
X148319825Y-112580290D01*
X148277564Y-112557701D01*
X148166327Y-112498244D01*
X148031777Y-112387823D01*
X147921356Y-112253273D01*
X147839313Y-112099780D01*
X147839310Y-112099775D01*
X147788785Y-111933216D01*
X147771725Y-111760000D01*
X147788785Y-111586784D01*
X147839310Y-111420225D01*
X147861899Y-111377964D01*
X147921356Y-111266727D01*
X148031777Y-111132177D01*
X148166327Y-111021756D01*
X148277564Y-110962299D01*
X148319825Y-110939710D01*
X148486384Y-110889185D01*
X148590232Y-110878957D01*
X148616193Y-110876400D01*
X150023807Y-110876400D01*
X150049768Y-110878957D01*
X150049768Y-110878957D01*
G37*
G36*
X137549768Y-110878957D02*
X137653616Y-110889185D01*
X137820175Y-110939710D01*
X137862436Y-110962299D01*
X137973673Y-111021756D01*
X138108223Y-111132177D01*
X138218644Y-111266727D01*
X138278101Y-111377964D01*
X138300690Y-111420225D01*
X138351215Y-111586784D01*
X138368275Y-111760000D01*
X138351215Y-111933216D01*
X138300690Y-112099775D01*
X138300687Y-112099780D01*
X138218644Y-112253273D01*
X138108223Y-112387823D01*
X137973673Y-112498244D01*
X137862436Y-112557701D01*
X137820175Y-112580290D01*
X137653616Y-112630815D01*
X137549768Y-112641043D01*
X137523807Y-112643600D01*
X136116193Y-112643600D01*
X136090232Y-112641043D01*
X135986384Y-112630815D01*
X135819825Y-112580290D01*
X135777564Y-112557701D01*
X135666327Y-112498244D01*
X135531777Y-112387823D01*
X135421356Y-112253273D01*
X135339313Y-112099780D01*
X135339310Y-112099775D01*
X135288785Y-111933216D01*
X135271725Y-111760000D01*
X135288785Y-111586784D01*
X135339310Y-111420225D01*
X135361899Y-111377964D01*
X135421356Y-111266727D01*
X135531777Y-111132177D01*
X135666327Y-111021756D01*
X135777564Y-110962299D01*
X135819825Y-110939710D01*
X135986384Y-110889185D01*
X136090232Y-110878957D01*
X136116193Y-110876400D01*
X137523807Y-110876400D01*
X137549768Y-110878957D01*
X137549768Y-110878957D01*
G37*
G36*
X137549768Y-105878957D02*
X137653616Y-105889185D01*
X137820175Y-105939710D01*
X137862436Y-105962299D01*
X137973673Y-106021756D01*
X138108223Y-106132177D01*
X138218644Y-106266727D01*
X138220393Y-106270000D01*
X138300690Y-106420225D01*
X138351215Y-106586784D01*
X138368275Y-106760000D01*
X138351215Y-106933216D01*
X138300690Y-107099775D01*
X138300687Y-107099780D01*
X138218644Y-107253273D01*
X138108223Y-107387823D01*
X137973673Y-107498244D01*
X137862436Y-107557701D01*
X137820175Y-107580290D01*
X137653616Y-107630815D01*
X137549768Y-107641043D01*
X137523807Y-107643600D01*
X136116193Y-107643600D01*
X136090232Y-107641043D01*
X135986384Y-107630815D01*
X135819825Y-107580290D01*
X135777564Y-107557701D01*
X135666327Y-107498244D01*
X135531777Y-107387823D01*
X135421356Y-107253273D01*
X135339313Y-107099780D01*
X135339310Y-107099775D01*
X135288785Y-106933216D01*
X135271725Y-106760000D01*
X135288785Y-106586784D01*
X135339310Y-106420225D01*
X135419607Y-106270000D01*
X135421356Y-106266727D01*
X135531777Y-106132177D01*
X135666327Y-106021756D01*
X135777564Y-105962299D01*
X135819825Y-105939710D01*
X135986384Y-105889185D01*
X136090232Y-105878957D01*
X136116193Y-105876400D01*
X137523807Y-105876400D01*
X137549768Y-105878957D01*
X137549768Y-105878957D01*
G37*
G36*
X150049768Y-105878957D02*
X150153616Y-105889185D01*
X150320175Y-105939710D01*
X150362436Y-105962299D01*
X150473673Y-106021756D01*
X150608223Y-106132177D01*
X150718644Y-106266727D01*
X150720393Y-106270000D01*
X150800690Y-106420225D01*
X150851215Y-106586784D01*
X150868275Y-106760000D01*
X150851215Y-106933216D01*
X150800690Y-107099775D01*
X150800687Y-107099780D01*
X150718644Y-107253273D01*
X150608223Y-107387823D01*
X150473673Y-107498244D01*
X150362436Y-107557701D01*
X150320175Y-107580290D01*
X150153616Y-107630815D01*
X150049768Y-107641043D01*
X150023807Y-107643600D01*
X148616193Y-107643600D01*
X148590232Y-107641043D01*
X148486384Y-107630815D01*
X148319825Y-107580290D01*
X148277564Y-107557701D01*
X148166327Y-107498244D01*
X148031777Y-107387823D01*
X147921356Y-107253273D01*
X147839313Y-107099780D01*
X147839310Y-107099775D01*
X147788785Y-106933216D01*
X147771725Y-106760000D01*
X147788785Y-106586784D01*
X147839310Y-106420225D01*
X147919607Y-106270000D01*
X147921356Y-106266727D01*
X148031777Y-106132177D01*
X148166327Y-106021756D01*
X148277564Y-105962299D01*
X148319825Y-105939710D01*
X148486384Y-105889185D01*
X148590232Y-105878957D01*
X148616193Y-105876400D01*
X150023807Y-105876400D01*
X150049768Y-105878957D01*
X150049768Y-105878957D01*
G37*
G36*
X155247765Y-103754403D02*
X155370445Y-103778805D01*
X155601571Y-103874541D01*
X155809581Y-104013529D01*
X155986471Y-104190419D01*
X155986473Y-104190422D01*
X156125459Y-104398429D01*
X156221195Y-104629555D01*
X156270000Y-104874916D01*
X156270000Y-105125084D01*
X156221195Y-105370445D01*
X156125459Y-105601571D01*
X155986471Y-105809581D01*
X155809581Y-105986471D01*
X155809578Y-105986473D01*
X155601571Y-106125459D01*
X155370445Y-106221195D01*
X155247765Y-106245597D01*
X155125086Y-106270000D01*
X154874914Y-106270000D01*
X154752236Y-106245598D01*
X154629555Y-106221195D01*
X154398429Y-106125459D01*
X154190422Y-105986473D01*
X154190419Y-105986471D01*
X154013529Y-105809581D01*
X153874541Y-105601571D01*
X153778805Y-105370445D01*
X153730000Y-105125084D01*
X153730000Y-104874916D01*
X153778805Y-104629555D01*
X153874541Y-104398429D01*
X154013527Y-104190422D01*
X154013529Y-104190419D01*
X154190419Y-104013529D01*
X154398429Y-103874541D01*
X154629555Y-103778805D01*
X154752235Y-103754403D01*
X154874914Y-103730000D01*
X155125086Y-103730000D01*
X155247765Y-103754403D01*
X155247765Y-103754403D01*
G37*
G36*
X105247765Y-103754403D02*
X105370445Y-103778805D01*
X105601571Y-103874541D01*
X105809581Y-104013529D01*
X105986471Y-104190419D01*
X105986473Y-104190422D01*
X106125459Y-104398429D01*
X106221195Y-104629555D01*
X106270000Y-104874916D01*
X106270000Y-105125084D01*
X106221195Y-105370445D01*
X106125459Y-105601571D01*
X105986471Y-105809581D01*
X105809581Y-105986471D01*
X105809578Y-105986473D01*
X105601571Y-106125459D01*
X105370445Y-106221195D01*
X105247765Y-106245597D01*
X105125086Y-106270000D01*
X104874914Y-106270000D01*
X104752236Y-106245598D01*
X104629555Y-106221195D01*
X104398429Y-106125459D01*
X104190422Y-105986473D01*
X104190419Y-105986471D01*
X104013529Y-105809581D01*
X103874541Y-105601571D01*
X103778805Y-105370445D01*
X103730000Y-105125084D01*
X103730000Y-104874916D01*
X103778805Y-104629555D01*
X103874541Y-104398429D01*
X104013527Y-104190422D01*
X104013529Y-104190419D01*
X104190419Y-104013529D01*
X104398429Y-103874541D01*
X104629555Y-103778805D01*
X104752235Y-103754403D01*
X104874914Y-103730000D01*
X105125086Y-103730000D01*
X105247765Y-103754403D01*
X105247765Y-103754403D01*
G37*
M02*
